<?xml version="1.0" encoding="UTF-8" standalone="no"?>
<!DOCTYPE svg PUBLIC "-//W3C//DTD SVG 1.1//EN"
 "http://www.w3.org/Graphics/SVG/1.1/DTD/svg11.dtd">
<!-- Generated by graphviz version 14.1.3 (20260303.0454)
 -->
<!-- Title: G Pages: 1 -->
<svg width="469pt" height="604pt"
 viewBox="0.00 0.00 469.00 604.00" xmlns="http://www.w3.org/2000/svg" xmlns:xlink="http://www.w3.org/1999/xlink">
<g id="graph0" class="graph" transform="scale(1 1) rotate(0) translate(21.6 582.5)">
<title>G</title>
<polygon fill="white" stroke="none" points="-21.6,21.6 -21.6,-582.5 447.85,-582.5 447.85,21.6 -21.6,21.6"/>
<text xml:space="preserve" text-anchor="middle" x="213.12" y="-537.9" font-family="Helvetica,sans-Serif" font-size="20.00">Question 2: deriving the bipartite planar bound</text>
<!-- a -->
<g id="node1" class="node">
<title>a</title>
<path fill="#f8fafc" stroke="#475569" d="M314.96,-531.9C314.96,-531.9 111.29,-531.9 111.29,-531.9 105.29,-531.9 99.29,-525.9 99.29,-519.9 99.29,-519.9 99.29,-495.12 99.29,-495.12 99.29,-489.12 105.29,-483.12 111.29,-483.12 111.29,-483.12 314.96,-483.12 314.96,-483.12 320.96,-483.12 326.96,-489.12 326.96,-495.12 326.96,-495.12 326.96,-519.9 326.96,-519.9 326.96,-525.9 320.96,-531.9 314.96,-531.9"/>
<text xml:space="preserve" text-anchor="middle" x="213.12" y="-509.01" font-family="Helvetica,sans-Serif" font-size="15.00">Bipartite =&gt; no odd cycles =&gt;</text>
<text xml:space="preserve" text-anchor="middle" x="213.12" y="-493.26" font-family="Helvetica,sans-Serif" font-size="15.00">every face degree is at least 4</text>
</g>
<!-- b -->
<g id="node2" class="node">
<title>b</title>
<path fill="#f8fafc" stroke="#475569" d="M280.46,-447.12C280.46,-447.12 145.79,-447.12 145.79,-447.12 139.79,-447.12 133.79,-441.12 133.79,-435.12 133.79,-435.12 133.79,-410.34 133.79,-410.34 133.79,-404.34 139.79,-398.34 145.79,-398.34 145.79,-398.34 280.46,-398.34 280.46,-398.34 286.46,-398.34 292.46,-404.34 292.46,-410.34 292.46,-410.34 292.46,-435.12 292.46,-435.12 292.46,-441.12 286.46,-447.12 280.46,-447.12"/>
<text xml:space="preserve" text-anchor="middle" x="213.12" y="-424.23" font-family="Helvetica,sans-Serif" font-size="15.00">Face handshaking:</text>
<text xml:space="preserve" text-anchor="middle" x="213.12" y="-408.48" font-family="Helvetica,sans-Serif" font-size="15.00">sum deg(face) = 2E</text>
</g>
<!-- a&#45;&gt;b -->
<g id="edge1" class="edge">
<title>a&#45;&gt;b</title>
<path fill="none" stroke="#64748b" stroke-width="2" d="M213.12,-483.01C213.12,-475.39 213.12,-466.76 213.12,-458.49"/>
<polygon fill="#64748b" stroke="#64748b" stroke-width="2" points="215.93,-458.6 213.13,-450.6 210.33,-458.6 215.93,-458.6"/>
</g>
<!-- c -->
<g id="node3" class="node">
<title>c</title>
<path fill="#f8fafc" stroke="#475569" d="M281.21,-362.34C281.21,-362.34 145.04,-362.34 145.04,-362.34 139.04,-362.34 133.04,-356.34 133.04,-350.34 133.04,-350.34 133.04,-325.56 133.04,-325.56 133.04,-319.56 139.04,-313.56 145.04,-313.56 145.04,-313.56 281.21,-313.56 281.21,-313.56 287.21,-313.56 293.21,-319.56 293.21,-325.56 293.21,-325.56 293.21,-350.34 293.21,-350.34 293.21,-356.34 287.21,-362.34 281.21,-362.34"/>
<text xml:space="preserve" text-anchor="middle" x="213.12" y="-339.45" font-family="Helvetica,sans-Serif" font-size="15.00">Therefore 2E &gt;= 4F,</text>
<text xml:space="preserve" text-anchor="middle" x="213.12" y="-323.7" font-family="Helvetica,sans-Serif" font-size="15.00">so F &lt;= E/2</text>
</g>
<!-- b&#45;&gt;c -->
<g id="edge2" class="edge">
<title>b&#45;&gt;c</title>
<path fill="none" stroke="#64748b" stroke-width="2" d="M213.12,-398.23C213.12,-390.61 213.12,-381.98 213.12,-373.71"/>
<polygon fill="#64748b" stroke="#64748b" stroke-width="2" points="215.93,-373.82 213.13,-365.82 210.33,-373.82 215.93,-373.82"/>
</g>
<!-- d -->
<g id="node4" class="node">
<title>d</title>
<path fill="#f8fafc" stroke="#475569" d="M277.46,-277.56C277.46,-277.56 148.79,-277.56 148.79,-277.56 142.79,-277.56 136.79,-271.56 136.79,-265.56 136.79,-265.56 136.79,-240.78 136.79,-240.78 136.79,-234.78 142.79,-228.78 148.79,-228.78 148.79,-228.78 277.46,-228.78 277.46,-228.78 283.46,-228.78 289.46,-234.78 289.46,-240.78 289.46,-240.78 289.46,-265.56 289.46,-265.56 289.46,-271.56 283.46,-277.56 277.46,-277.56"/>
<text xml:space="preserve" text-anchor="middle" x="213.12" y="-254.67" font-family="Helvetica,sans-Serif" font-size="15.00">Euler with V = 100:</text>
<text xml:space="preserve" text-anchor="middle" x="213.12" y="-238.92" font-family="Helvetica,sans-Serif" font-size="15.00">100 &#45; E + F = 2</text>
</g>
<!-- c&#45;&gt;d -->
<g id="edge3" class="edge">
<title>c&#45;&gt;d</title>
<path fill="none" stroke="#64748b" stroke-width="2" d="M213.12,-313.45C213.12,-305.83 213.12,-297.2 213.12,-288.93"/>
<polygon fill="#64748b" stroke="#64748b" stroke-width="2" points="215.93,-289.04 213.13,-281.04 210.33,-289.04 215.93,-289.04"/>
</g>
<!-- e -->
<g id="node5" class="node">
<title>e</title>
<path fill="#f8fafc" stroke="#475569" d="M281.21,-192.78C281.21,-192.78 145.04,-192.78 145.04,-192.78 139.04,-192.78 133.04,-186.78 133.04,-180.78 133.04,-180.78 133.04,-156 133.04,-156 133.04,-150 139.04,-144 145.04,-144 145.04,-144 281.21,-144 281.21,-144 287.21,-144 293.21,-150 293.21,-156 293.21,-156 293.21,-180.78 293.21,-180.78 293.21,-186.78 287.21,-192.78 281.21,-192.78"/>
<text xml:space="preserve" text-anchor="middle" x="213.12" y="-169.89" font-family="Helvetica,sans-Serif" font-size="15.00">Substitute F &lt;= E/2:</text>
<text xml:space="preserve" text-anchor="middle" x="213.12" y="-154.14" font-family="Helvetica,sans-Serif" font-size="15.00">100 &#45; E + E/2 &gt;= 2</text>
</g>
<!-- d&#45;&gt;e -->
<g id="edge4" class="edge">
<title>d&#45;&gt;e</title>
<path fill="none" stroke="#64748b" stroke-width="2" d="M213.12,-228.67C213.12,-221.05 213.12,-212.42 213.12,-204.15"/>
<polygon fill="#64748b" stroke="#64748b" stroke-width="2" points="215.93,-204.26 213.13,-196.26 210.33,-204.26 215.93,-204.26"/>
</g>
<!-- f -->
<g id="node6" class="node">
<title>f</title>
<path fill="#f8fafc" stroke="#475569" d="M256.09,-108C256.09,-108 170.16,-108 170.16,-108 164.16,-108 158.16,-102 158.16,-96 158.16,-96 158.16,-84 158.16,-84 158.16,-78 164.16,-72 170.16,-72 170.16,-72 256.09,-72 256.09,-72 262.09,-72 268.09,-78 268.09,-84 268.09,-84 268.09,-96 268.09,-96 268.09,-102 262.09,-108 256.09,-108"/>
<text xml:space="preserve" text-anchor="middle" x="213.12" y="-83.62" font-family="Helvetica,sans-Serif" font-size="15.00">So E &lt;= 196</text>
</g>
<!-- e&#45;&gt;f -->
<g id="edge5" class="edge">
<title>e&#45;&gt;f</title>
<path fill="none" stroke="#64748b" stroke-width="2" d="M213.12,-143.64C213.12,-135.9 213.12,-127.23 213.12,-119.2"/>
<polygon fill="#64748b" stroke="#64748b" stroke-width="2" points="215.93,-119.45 213.13,-111.45 210.33,-119.45 215.93,-119.45"/>
</g>
<!-- g -->
<g id="node7" class="node">
<title>g</title>
<path fill="#f8fafc" stroke="#475569" d="M308.96,-36C308.96,-36 117.29,-36 117.29,-36 111.29,-36 105.29,-30 105.29,-24 105.29,-24 105.29,-12 105.29,-12 105.29,-6 111.29,0 117.29,0 117.29,0 308.96,0 308.96,0 314.96,0 320.96,-6 320.96,-12 320.96,-12 320.96,-24 320.96,-24 320.96,-30 314.96,-36 308.96,-36"/>
<text xml:space="preserve" text-anchor="middle" x="213.12" y="-11.62" font-family="Helvetica,sans-Serif" font-size="15.00">Then F = 2 &#45; 100 + 196 = 98</text>
</g>
<!-- f&#45;&gt;g -->
<g id="edge6" class="edge">
<title>f&#45;&gt;g</title>
<path fill="none" stroke="#64748b" stroke-width="2" d="M213.12,-71.7C213.12,-64.24 213.12,-55.32 213.12,-46.97"/>
<polygon fill="#64748b" stroke="#64748b" stroke-width="2" points="215.93,-47.13 213.13,-39.13 210.33,-47.13 215.93,-47.13"/>
</g>
</g>
</svg>
