<?xml version="1.0" encoding="UTF-8" standalone="no"?>
<!DOCTYPE svg PUBLIC "-//W3C//DTD SVG 1.1//EN"
 "http://www.w3.org/Graphics/SVG/1.1/DTD/svg11.dtd">
<!-- Generated by graphviz version 14.1.3 (20260303.0454)
 -->
<!-- Title: G Pages: 1 -->
<svg width="536pt" height="439pt"
 viewBox="0.00 0.00 536.00 439.00" xmlns="http://www.w3.org/2000/svg" xmlns:xlink="http://www.w3.org/1999/xlink">
<g id="graph0" class="graph" transform="scale(1 1) rotate(0) translate(84.77 417.26)">
<title>G</title>
<polygon fill="white" stroke="none" points="-84.77,21.6 -84.77,-417.26 451.43,-417.26 451.43,21.6 -84.77,21.6"/>
<text xml:space="preserve" text-anchor="middle" x="183.33" y="-372.66" font-family="Helvetica,sans-Serif" font-size="20.00">Question 2: small equality&#45;case example (cube graph)</text>
<!-- a&#45;&#45;b -->
<g id="edge1" class="edge">
<title>a&#45;&#45;b</title>
<path fill="none" stroke="#0f172a" stroke-width="2" d="M40.26,-19.8C99,-19.8 267.69,-19.8 326.41,-19.8"/>
</g>
<!-- a&#45;&#45;e -->
<g id="edge9" class="edge">
<title>a&#45;&#45;e</title>
<path fill="none" stroke="#0f172a" stroke-width="2" d="M34.05,-34.05C54.83,-54.83 93.24,-93.24 114.22,-114.22"/>
</g>
<!-- b&#45;&#45;c -->
<g id="edge2" class="edge">
<title>b&#45;&#45;c</title>
<path fill="none" stroke="#0f172a" stroke-width="2" d="M346.86,-40.26C346.86,-99 346.86,-267.69 346.86,-326.41"/>
</g>
<!-- b&#45;&#45;f -->
<g id="edge10" class="edge">
<title>b&#45;&#45;f</title>
<path fill="none" stroke="#0f172a" stroke-width="2" d="M332.61,-34.05C311.83,-54.83 273.42,-93.24 252.45,-114.22"/>
</g>
<!-- c&#45;&#45;d -->
<g id="edge3" class="edge">
<title>c&#45;&#45;d</title>
<path fill="none" stroke="#0f172a" stroke-width="2" d="M326.4,-346.86C267.67,-346.86 98.98,-346.86 40.25,-346.86"/>
</g>
<!-- c&#45;&#45;g -->
<g id="edge11" class="edge">
<title>c&#45;&#45;g</title>
<path fill="none" stroke="#0f172a" stroke-width="2" d="M332.61,-332.61C311.83,-311.83 273.42,-273.42 252.45,-252.45"/>
</g>
<!-- d&#45;&#45;a -->
<g id="edge4" class="edge">
<title>d&#45;&#45;a</title>
<path fill="none" stroke="#0f172a" stroke-width="2" d="M19.8,-326.4C19.8,-267.67 19.8,-98.98 19.8,-40.25"/>
</g>
<!-- d&#45;&#45;h -->
<g id="edge12" class="edge">
<title>d&#45;&#45;h</title>
<path fill="none" stroke="#0f172a" stroke-width="2" d="M34.05,-332.61C54.83,-311.83 93.24,-273.42 114.22,-252.45"/>
</g>
<!-- e&#45;&#45;f -->
<g id="edge5" class="edge">
<title>e&#45;&#45;f</title>
<path fill="none" stroke="#0f172a" stroke-width="2" d="M149.33,-128.82C168.82,-128.82 197.97,-128.82 217.43,-128.82"/>
</g>
<!-- f&#45;&#45;g -->
<g id="edge6" class="edge">
<title>f&#45;&#45;g</title>
<path fill="none" stroke="#0f172a" stroke-width="2" d="M237.84,-149.33C237.84,-168.82 237.84,-197.97 237.84,-217.43"/>
</g>
<!-- g&#45;&#45;h -->
<g id="edge7" class="edge">
<title>g&#45;&#45;h</title>
<path fill="none" stroke="#0f172a" stroke-width="2" d="M217.34,-237.84C197.84,-237.84 168.7,-237.84 149.24,-237.84"/>
</g>
<!-- h&#45;&#45;e -->
<g id="edge8" class="edge">
<title>h&#45;&#45;e</title>
<path fill="none" stroke="#0f172a" stroke-width="2" d="M128.82,-217.34C128.82,-197.84 128.82,-168.7 128.82,-149.24"/>
</g>
<!-- a -->
<g id="node1" class="node">
<title>a</title>
<ellipse fill="#f8fafc" stroke="#475569" stroke-width="1.8" cx="19.8" cy="-19.8" rx="19.8" ry="19.8"/>
<text xml:space="preserve" text-anchor="middle" x="19.8" y="-14.77" font-family="Helvetica,sans-Serif" font-size="12.00">a</text>
</g>
<!-- b -->
<g id="node2" class="node">
<title>b</title>
<ellipse fill="#f8fafc" stroke="#475569" stroke-width="1.8" cx="346.86" cy="-19.8" rx="19.8" ry="19.8"/>
<text xml:space="preserve" text-anchor="middle" x="346.86" y="-14.77" font-family="Helvetica,sans-Serif" font-size="12.00">b</text>
</g>
<!-- c -->
<g id="node3" class="node">
<title>c</title>
<ellipse fill="#f8fafc" stroke="#475569" stroke-width="1.8" cx="346.86" cy="-346.86" rx="19.8" ry="19.8"/>
<text xml:space="preserve" text-anchor="middle" x="346.86" y="-341.84" font-family="Helvetica,sans-Serif" font-size="12.00">c</text>
</g>
<!-- d -->
<g id="node4" class="node">
<title>d</title>
<ellipse fill="#f8fafc" stroke="#475569" stroke-width="1.8" cx="19.8" cy="-346.86" rx="19.8" ry="19.8"/>
<text xml:space="preserve" text-anchor="middle" x="19.8" y="-341.84" font-family="Helvetica,sans-Serif" font-size="12.00">d</text>
</g>
<!-- e -->
<g id="node5" class="node">
<title>e</title>
<ellipse fill="#f8fafc" stroke="#475569" stroke-width="1.8" cx="128.82" cy="-128.82" rx="19.8" ry="19.8"/>
<text xml:space="preserve" text-anchor="middle" x="128.82" y="-123.8" font-family="Helvetica,sans-Serif" font-size="12.00">e</text>
</g>
<!-- f -->
<g id="node6" class="node">
<title>f</title>
<ellipse fill="#f8fafc" stroke="#475569" stroke-width="1.8" cx="237.84" cy="-128.82" rx="19.8" ry="19.8"/>
<text xml:space="preserve" text-anchor="middle" x="237.84" y="-123.8" font-family="Helvetica,sans-Serif" font-size="12.00">f</text>
</g>
<!-- g -->
<g id="node7" class="node">
<title>g</title>
<ellipse fill="#f8fafc" stroke="#475569" stroke-width="1.8" cx="237.84" cy="-237.84" rx="19.8" ry="19.8"/>
<text xml:space="preserve" text-anchor="middle" x="237.84" y="-232.82" font-family="Helvetica,sans-Serif" font-size="12.00">g</text>
</g>
<!-- h -->
<g id="node8" class="node">
<title>h</title>
<ellipse fill="#f8fafc" stroke="#475569" stroke-width="1.8" cx="128.82" cy="-237.84" rx="19.8" ry="19.8"/>
<text xml:space="preserve" text-anchor="middle" x="128.82" y="-232.82" font-family="Helvetica,sans-Serif" font-size="12.00">h</text>
</g>
</g>
</svg>
