<?xml version="1.0" encoding="UTF-8" standalone="no"?>
<!DOCTYPE svg PUBLIC "-//W3C//DTD SVG 1.1//EN"
 "http://www.w3.org/Graphics/SVG/1.1/DTD/svg11.dtd">
<!-- Generated by graphviz version 14.1.3 (20260303.0454)
 -->
<!-- Title: G Pages: 1 -->
<svg width="629pt" height="267pt"
 viewBox="0.00 0.00 629.00 267.00" xmlns="http://www.w3.org/2000/svg" xmlns:xlink="http://www.w3.org/1999/xlink">
<g id="graph0" class="graph" transform="scale(1 1) rotate(0) translate(21.6 245.1)">
<title>G</title>
<polygon fill="white" stroke="none" points="-21.6,21.6 -21.6,-245.1 607.85,-245.1 607.85,21.6 -21.6,21.6"/>
<text xml:space="preserve" text-anchor="middle" x="293.12" y="-200.5" font-family="Helvetica,sans-Serif" font-size="20.00">Question 2: summary</text>
<!-- t -->
<g id="node1" class="node">
<title>t</title>
<polygon fill="none" stroke="black" points="1,-155 1,-193.5 149,-193.5 149,-155 1,-155"/>
<text xml:space="preserve" text-anchor="start" x="48.75" y="-170.2" font-family="Times,serif" font-weight="bold" font-size="14.00">Quantity</text>
<polygon fill="none" stroke="black" points="149,-155 149,-193.5 204,-193.5 204,-155 149,-155"/>
<text xml:space="preserve" text-anchor="start" x="160" y="-170.2" font-family="Times,serif" font-weight="bold" font-size="14.00">Value</text>
<polygon fill="none" stroke="black" points="204,-155 204,-193.5 585.25,-193.5 585.25,-155 204,-155"/>
<text xml:space="preserve" text-anchor="start" x="373.62" y="-170.2" font-family="Times,serif" font-weight="bold" font-size="14.00">Reason</text>
<polygon fill="none" stroke="black" points="1,-116.5 1,-155 149,-155 149,-116.5 1,-116.5"/>
<text xml:space="preserve" text-anchor="start" x="70.12" y="-131.25" font-family="Times,serif" font-size="14.00">V</text>
<polygon fill="none" stroke="black" points="149,-116.5 149,-155 204,-155 204,-116.5 149,-116.5"/>
<text xml:space="preserve" text-anchor="start" x="166.38" y="-131.25" font-family="Times,serif" font-size="14.00">100</text>
<polygon fill="none" stroke="black" points="204,-116.5 204,-155 585.25,-155 585.25,-116.5 204,-116.5"/>
<text xml:space="preserve" text-anchor="start" x="378.12" y="-131.25" font-family="Times,serif" font-size="14.00">Given</text>
<polygon fill="none" stroke="black" points="1,-78 1,-116.5 149,-116.5 149,-78 1,-78"/>
<text xml:space="preserve" text-anchor="start" x="55.5" y="-92.75" font-family="Times,serif" font-size="14.00">E_max</text>
<polygon fill="none" stroke="black" points="149,-78 149,-116.5 204,-116.5 204,-78 149,-78"/>
<text xml:space="preserve" text-anchor="start" x="166.38" y="-92.75" font-family="Times,serif" font-size="14.00">196</text>
<polygon fill="none" stroke="black" points="204,-78 204,-116.5 585.25,-116.5 585.25,-78 204,-78"/>
<text xml:space="preserve" text-anchor="start" x="339.88" y="-92.75" font-family="Times,serif" font-size="14.00">2E &gt;= 4F and Euler</text>
<polygon fill="none" stroke="black" points="1,-39.5 1,-78 149,-78 149,-39.5 1,-39.5"/>
<text xml:space="preserve" text-anchor="start" x="55.88" y="-54.25" font-family="Times,serif" font-size="14.00">F_max</text>
<polygon fill="none" stroke="black" points="149,-39.5 149,-78 204,-78 204,-39.5 149,-39.5"/>
<text xml:space="preserve" text-anchor="start" x="169.75" y="-54.25" font-family="Times,serif" font-size="14.00">98</text>
<polygon fill="none" stroke="black" points="204,-39.5 204,-78 585.25,-78 585.25,-39.5 204,-39.5"/>
<text xml:space="preserve" text-anchor="start" x="357.5" y="-54.25" font-family="Times,serif" font-size="14.00">F = 2 &#45; V + E</text>
<polygon fill="none" stroke="black" points="1,-1 1,-39.5 149,-39.5 149,-1 1,-1"/>
<text xml:space="preserve" text-anchor="start" x="12" y="-15.75" font-family="Times,serif" font-size="14.00">Face degree at equality</text>
<polygon fill="none" stroke="black" points="149,-1 149,-39.5 204,-39.5 204,-1 149,-1"/>
<text xml:space="preserve" text-anchor="start" x="173.12" y="-15.75" font-family="Times,serif" font-size="14.00">4</text>
<polygon fill="none" stroke="black" points="204,-1 204,-39.5 585.25,-39.5 585.25,-1 204,-1"/>
<text xml:space="preserve" text-anchor="start" x="215" y="-15.75" font-family="Times,serif" font-size="14.00">Average face degree is exactly 4, so every face hits the minimum</text>
<polygon fill="none" stroke="black" points="0,0 0,-194.5 586.25,-194.5 586.25,0 0,0"/>
</g>
</g>
</svg>
