<?xml version="1.0" encoding="UTF-8" standalone="no"?>
<!DOCTYPE svg PUBLIC "-//W3C//DTD SVG 1.1//EN"
 "http://www.w3.org/Graphics/SVG/1.1/DTD/svg11.dtd">
<!-- Generated by graphviz version 14.1.3 (20260303.0454)
 -->
<!-- Title: G Pages: 1 -->
<svg width="641pt" height="398pt"
 viewBox="0.00 0.00 641.00 398.00" xmlns="http://www.w3.org/2000/svg" xmlns:xlink="http://www.w3.org/1999/xlink">
<g id="graph0" class="graph" transform="scale(1 1) rotate(0) translate(25.2 373.2)">
<title>G</title>
<polygon fill="white" stroke="none" points="-25.2,25.2 -25.2,-373.2 615.7,-373.2 615.7,25.2 -25.2,25.2"/>
<text xml:space="preserve" text-anchor="middle" x="295.25" y="-325" font-family="Helvetica,sans-Serif" font-size="20.00">Question 1: one n=3 Gale&#45;Shapley worst&#45;case instance</text>
<text xml:space="preserve" text-anchor="middle" x="295.25" y="-304" font-family="Helvetica,sans-Serif" font-size="20.00">This instance forces 7 proposals, which is the maximum possible.</text>
<!-- proposers -->
<g id="node1" class="node">
<title>proposers</title>
<polygon fill="none" stroke="black" points="225.12,-104.5 225.12,-139 365.38,-139 365.38,-104.5 225.12,-104.5"/>
<text xml:space="preserve" text-anchor="start" x="234.12" y="-117.7" font-family="Times,serif" font-weight="bold" font-size="14.00">Proposer preferences</text>
<polygon fill="none" stroke="black" points="225.12,-70 225.12,-104.5 271.25,-104.5 271.25,-70 225.12,-70"/>
<text xml:space="preserve" text-anchor="start" x="241.06" y="-82.75" font-family="Times,serif" font-size="14.00">P1</text>
<polygon fill="none" stroke="black" points="271.25,-70 271.25,-104.5 365.38,-104.5 365.38,-70 271.25,-70"/>
<text xml:space="preserve" text-anchor="start" x="287.19" y="-82.75" font-family="Times,serif" font-size="14.00">R1, R2, R3</text>
<polygon fill="none" stroke="black" points="225.12,-35.5 225.12,-70 271.25,-70 271.25,-35.5 225.12,-35.5"/>
<text xml:space="preserve" text-anchor="start" x="241.06" y="-48.25" font-family="Times,serif" font-size="14.00">P2</text>
<polygon fill="none" stroke="black" points="271.25,-35.5 271.25,-70 365.38,-70 365.38,-35.5 271.25,-35.5"/>
<text xml:space="preserve" text-anchor="start" x="287.19" y="-48.25" font-family="Times,serif" font-size="14.00">R1, R2, R3</text>
<polygon fill="none" stroke="black" points="225.12,-1 225.12,-35.5 271.25,-35.5 271.25,-1 225.12,-1"/>
<text xml:space="preserve" text-anchor="start" x="241.06" y="-13.75" font-family="Times,serif" font-size="14.00">P3</text>
<polygon fill="none" stroke="black" points="271.25,-1 271.25,-35.5 365.38,-35.5 365.38,-1 271.25,-1"/>
<text xml:space="preserve" text-anchor="start" x="287.19" y="-13.75" font-family="Times,serif" font-size="14.00">R2, R1, R3</text>
<polygon fill="none" stroke="black" points="224.12,0 224.12,-140 366.38,-140 366.38,0 224.12,0"/>
</g>
<!-- reviewers -->
<g id="node2" class="node">
<title>reviewers</title>
<polygon fill="none" stroke="black" points="224.38,-262.5 224.38,-297 366.12,-297 366.12,-262.5 224.38,-262.5"/>
<text xml:space="preserve" text-anchor="start" x="233.38" y="-275.7" font-family="Times,serif" font-weight="bold" font-size="14.00">Reviewer preferences</text>
<polygon fill="none" stroke="black" points="224.38,-228 224.38,-262.5 274.25,-262.5 274.25,-228 224.38,-228"/>
<text xml:space="preserve" text-anchor="start" x="241.44" y="-240.75" font-family="Times,serif" font-size="14.00">R1</text>
<polygon fill="none" stroke="black" points="274.25,-228 274.25,-262.5 366.12,-262.5 366.12,-228 274.25,-228"/>
<text xml:space="preserve" text-anchor="start" x="291.31" y="-240.75" font-family="Times,serif" font-size="14.00">P3, P1, P2</text>
<polygon fill="none" stroke="black" points="224.38,-193.5 224.38,-228 274.25,-228 274.25,-193.5 224.38,-193.5"/>
<text xml:space="preserve" text-anchor="start" x="241.44" y="-206.25" font-family="Times,serif" font-size="14.00">R2</text>
<polygon fill="none" stroke="black" points="274.25,-193.5 274.25,-228 366.12,-228 366.12,-193.5 274.25,-193.5"/>
<text xml:space="preserve" text-anchor="start" x="291.31" y="-206.25" font-family="Times,serif" font-size="14.00">P1, P2, P3</text>
<polygon fill="none" stroke="black" points="224.38,-159 224.38,-193.5 274.25,-193.5 274.25,-159 224.38,-159"/>
<text xml:space="preserve" text-anchor="start" x="241.44" y="-171.75" font-family="Times,serif" font-size="14.00">R3</text>
<polygon fill="none" stroke="black" points="274.25,-159 274.25,-193.5 366.12,-193.5 366.12,-159 274.25,-159"/>
<text xml:space="preserve" text-anchor="start" x="291.31" y="-171.75" font-family="Times,serif" font-size="14.00">P1, P2, P3</text>
<polygon fill="none" stroke="black" points="223.38,-158 223.38,-298 367.12,-298 367.12,-158 223.38,-158"/>
</g>
</g>
</svg>
