<?xml version="1.0" encoding="UTF-8" standalone="no"?>
<!DOCTYPE svg PUBLIC "-//W3C//DTD SVG 1.1//EN"
 "http://www.w3.org/Graphics/SVG/1.1/DTD/svg11.dtd">
<!-- Generated by graphviz version 14.1.3 (20260303.0454)
 -->
<!-- Title: G Pages: 1 -->
<svg width="632pt" height="600pt"
 viewBox="0.00 0.00 632.00 600.00" xmlns="http://www.w3.org/2000/svg" xmlns:xlink="http://www.w3.org/1999/xlink">
<g id="graph0" class="graph" transform="scale(1 1) rotate(0) translate(25.2 574.34)">
<title>G</title>
<polygon fill="white" stroke="none" points="-25.2,25.2 -25.2,-574.34 606.7,-574.34 606.7,25.2 -25.2,25.2"/>
<text xml:space="preserve" text-anchor="middle" x="290.75" y="-526.14" font-family="Helvetica,sans-Serif" font-size="20.00">Question 1: proposal trace with alphabetical free&#45;proposer order</text>
<!-- n1 -->
<g id="node1" class="node">
<title>n1</title>
<path fill="#dbeafe" stroke="#2563eb" stroke-width="1.6" d="M333.43,-520.14C333.43,-520.14 248.07,-520.14 248.07,-520.14 242.07,-520.14 236.07,-514.14 236.07,-508.14 236.07,-508.14 236.07,-487.62 236.07,-487.62 236.07,-481.62 242.07,-475.62 248.07,-475.62 248.07,-475.62 333.43,-475.62 333.43,-475.62 339.43,-475.62 345.43,-481.62 345.43,-487.62 345.43,-487.62 345.43,-508.14 345.43,-508.14 345.43,-514.14 339.43,-520.14 333.43,-520.14"/>
<text xml:space="preserve" text-anchor="middle" x="290.75" y="-499.18" font-family="Helvetica,sans-Serif" font-size="16.00">1. P1 &#45;&gt; R1</text>
<text xml:space="preserve" text-anchor="middle" x="290.75" y="-482.68" font-family="Helvetica,sans-Serif" font-size="16.00">R1 holds P1</text>
</g>
<!-- n2 -->
<g id="node2" class="node">
<title>n2</title>
<path fill="#fee2e2" stroke="#dc2626" stroke-width="1.6" d="M337.93,-443.62C337.93,-443.62 243.58,-443.62 243.58,-443.62 237.58,-443.62 231.58,-437.62 231.58,-431.62 231.58,-431.62 231.58,-411.1 231.58,-411.1 231.58,-405.1 237.58,-399.1 243.58,-399.1 243.58,-399.1 337.93,-399.1 337.93,-399.1 343.93,-399.1 349.93,-405.1 349.93,-411.1 349.93,-411.1 349.93,-431.62 349.93,-431.62 349.93,-437.62 343.93,-443.62 337.93,-443.62"/>
<text xml:space="preserve" text-anchor="middle" x="290.75" y="-422.66" font-family="Helvetica,sans-Serif" font-size="16.00">2. P2 &#45;&gt; R1</text>
<text xml:space="preserve" text-anchor="middle" x="290.75" y="-406.16" font-family="Helvetica,sans-Serif" font-size="16.00">R1 rejects P2</text>
</g>
<!-- n1&#45;&gt;n2 -->
<g id="edge1" class="edge">
<title>n1&#45;&gt;n2</title>
<path fill="none" stroke="#475569" stroke-width="1.6" d="M290.75,-474.92C290.75,-468.61 290.75,-461.59 290.75,-454.79"/>
<polygon fill="#475569" stroke="#475569" stroke-width="1.6" points="293.55,-454.84 290.75,-446.84 287.95,-454.84 293.55,-454.84"/>
</g>
<!-- n3 -->
<g id="node3" class="node">
<title>n3</title>
<path fill="#dbeafe" stroke="#2563eb" stroke-width="1.6" d="M333.43,-367.1C333.43,-367.1 248.07,-367.1 248.07,-367.1 242.07,-367.1 236.07,-361.1 236.07,-355.1 236.07,-355.1 236.07,-334.58 236.07,-334.58 236.07,-328.58 242.07,-322.58 248.07,-322.58 248.07,-322.58 333.43,-322.58 333.43,-322.58 339.43,-322.58 345.43,-328.58 345.43,-334.58 345.43,-334.58 345.43,-355.1 345.43,-355.1 345.43,-361.1 339.43,-367.1 333.43,-367.1"/>
<text xml:space="preserve" text-anchor="middle" x="290.75" y="-346.14" font-family="Helvetica,sans-Serif" font-size="16.00">3. P3 &#45;&gt; R2</text>
<text xml:space="preserve" text-anchor="middle" x="290.75" y="-329.64" font-family="Helvetica,sans-Serif" font-size="16.00">R2 holds P3</text>
</g>
<!-- n2&#45;&gt;n3 -->
<g id="edge2" class="edge">
<title>n2&#45;&gt;n3</title>
<path fill="none" stroke="#475569" stroke-width="1.6" d="M290.75,-398.4C290.75,-392.09 290.75,-385.07 290.75,-378.27"/>
<polygon fill="#475569" stroke="#475569" stroke-width="1.6" points="293.55,-378.32 290.75,-370.32 287.95,-378.32 293.55,-378.32"/>
</g>
<!-- n4 -->
<g id="node4" class="node">
<title>n4</title>
<path fill="#fee2e2" stroke="#dc2626" stroke-width="1.6" d="M379.55,-290.58C379.55,-290.58 201.95,-290.58 201.95,-290.58 195.95,-290.58 189.95,-284.58 189.95,-278.58 189.95,-278.58 189.95,-258.06 189.95,-258.06 189.95,-252.06 195.95,-246.06 201.95,-246.06 201.95,-246.06 379.55,-246.06 379.55,-246.06 385.55,-246.06 391.55,-252.06 391.55,-258.06 391.55,-258.06 391.55,-278.58 391.55,-278.58 391.55,-284.58 385.55,-290.58 379.55,-290.58"/>
<text xml:space="preserve" text-anchor="middle" x="290.75" y="-269.62" font-family="Helvetica,sans-Serif" font-size="16.00">4. P2 &#45;&gt; R2</text>
<text xml:space="preserve" text-anchor="middle" x="290.75" y="-253.12" font-family="Helvetica,sans-Serif" font-size="16.00">R2 prefers P2, rejects P3</text>
</g>
<!-- n3&#45;&gt;n4 -->
<g id="edge3" class="edge">
<title>n3&#45;&gt;n4</title>
<path fill="none" stroke="#475569" stroke-width="1.6" d="M290.75,-321.88C290.75,-315.57 290.75,-308.55 290.75,-301.75"/>
<polygon fill="#475569" stroke="#475569" stroke-width="1.6" points="293.55,-301.8 290.75,-293.8 287.95,-301.8 293.55,-301.8"/>
</g>
<!-- n5 -->
<g id="node5" class="node">
<title>n5</title>
<path fill="#fee2e2" stroke="#dc2626" stroke-width="1.6" d="M379.55,-214.06C379.55,-214.06 201.95,-214.06 201.95,-214.06 195.95,-214.06 189.95,-208.06 189.95,-202.06 189.95,-202.06 189.95,-181.54 189.95,-181.54 189.95,-175.54 195.95,-169.54 201.95,-169.54 201.95,-169.54 379.55,-169.54 379.55,-169.54 385.55,-169.54 391.55,-175.54 391.55,-181.54 391.55,-181.54 391.55,-202.06 391.55,-202.06 391.55,-208.06 385.55,-214.06 379.55,-214.06"/>
<text xml:space="preserve" text-anchor="middle" x="290.75" y="-193.1" font-family="Helvetica,sans-Serif" font-size="16.00">5. P3 &#45;&gt; R1</text>
<text xml:space="preserve" text-anchor="middle" x="290.75" y="-176.6" font-family="Helvetica,sans-Serif" font-size="16.00">R1 prefers P3, rejects P1</text>
</g>
<!-- n4&#45;&gt;n5 -->
<g id="edge4" class="edge">
<title>n4&#45;&gt;n5</title>
<path fill="none" stroke="#475569" stroke-width="1.6" d="M290.75,-245.36C290.75,-239.05 290.75,-232.03 290.75,-225.23"/>
<polygon fill="#475569" stroke="#475569" stroke-width="1.6" points="293.55,-225.28 290.75,-217.28 287.95,-225.28 293.55,-225.28"/>
</g>
<!-- n6 -->
<g id="node6" class="node">
<title>n6</title>
<path fill="#fee2e2" stroke="#dc2626" stroke-width="1.6" d="M379.55,-137.54C379.55,-137.54 201.95,-137.54 201.95,-137.54 195.95,-137.54 189.95,-131.54 189.95,-125.54 189.95,-125.54 189.95,-105.02 189.95,-105.02 189.95,-99.02 195.95,-93.02 201.95,-93.02 201.95,-93.02 379.55,-93.02 379.55,-93.02 385.55,-93.02 391.55,-99.02 391.55,-105.02 391.55,-105.02 391.55,-125.54 391.55,-125.54 391.55,-131.54 385.55,-137.54 379.55,-137.54"/>
<text xml:space="preserve" text-anchor="middle" x="290.75" y="-116.58" font-family="Helvetica,sans-Serif" font-size="16.00">6. P1 &#45;&gt; R2</text>
<text xml:space="preserve" text-anchor="middle" x="290.75" y="-100.08" font-family="Helvetica,sans-Serif" font-size="16.00">R2 prefers P1, rejects P2</text>
</g>
<!-- n5&#45;&gt;n6 -->
<g id="edge5" class="edge">
<title>n5&#45;&gt;n6</title>
<path fill="none" stroke="#475569" stroke-width="1.6" d="M290.75,-168.84C290.75,-162.53 290.75,-155.51 290.75,-148.71"/>
<polygon fill="#475569" stroke="#475569" stroke-width="1.6" points="293.55,-148.76 290.75,-140.76 287.95,-148.76 293.55,-148.76"/>
</g>
<!-- n7 -->
<g id="node7" class="node">
<title>n7</title>
<path fill="#dcfce7" stroke="#16a34a" stroke-width="1.6" d="M438.05,-61.02C438.05,-61.02 143.45,-61.02 143.45,-61.02 137.45,-61.02 131.45,-55.02 131.45,-49.02 131.45,-49.02 131.45,-12 131.45,-12 131.45,-6 137.45,0 143.45,0 143.45,0 438.05,0 438.05,0 444.05,0 450.05,-6 450.05,-12 450.05,-12 450.05,-49.02 450.05,-49.02 450.05,-55.02 444.05,-61.02 438.05,-61.02"/>
<text xml:space="preserve" text-anchor="middle" x="290.75" y="-40.06" font-family="Helvetica,sans-Serif" font-size="16.00">7. P2 &#45;&gt; R3</text>
<text xml:space="preserve" text-anchor="middle" x="290.75" y="-23.56" font-family="Helvetica,sans-Serif" font-size="16.00">R3 holds P2</text>
<text xml:space="preserve" text-anchor="middle" x="290.75" y="-7.06" font-family="Helvetica,sans-Serif" font-size="16.00">Final matching: (P3,R1), (P1,R2), (P2,R3)</text>
</g>
<!-- n6&#45;&gt;n7 -->
<g id="edge6" class="edge">
<title>n6&#45;&gt;n7</title>
<path fill="none" stroke="#475569" stroke-width="1.6" d="M290.75,-92.53C290.75,-86.16 290.75,-78.98 290.75,-71.84"/>
<polygon fill="#475569" stroke="#475569" stroke-width="1.6" points="293.55,-71.93 290.75,-63.93 287.95,-71.93 293.55,-71.93"/>
</g>
</g>
</svg>
