<?xml version="1.0" encoding="UTF-8" standalone="no"?>
<!DOCTYPE svg PUBLIC "-//W3C//DTD SVG 1.1//EN"
 "http://www.w3.org/Graphics/SVG/1.1/DTD/svg11.dtd">
<!-- Generated by graphviz version 14.1.3 (20260303.0454)
 -->
<!-- Title: G Pages: 1 -->
<svg width="536pt" height="434pt"
 viewBox="0.00 0.00 536.00 434.00" xmlns="http://www.w3.org/2000/svg" xmlns:xlink="http://www.w3.org/1999/xlink">
<g id="graph0" class="graph" transform="scale(1 1) rotate(0) translate(25.2 409.05)">
<title>G</title>
<polygon fill="white" stroke="none" points="-25.2,25.2 -25.2,-409.05 511.3,-409.05 511.3,25.2 -25.2,25.2"/>
<text xml:space="preserve" text-anchor="middle" x="243.05" y="-360.85" font-family="Helvetica,sans-Serif" font-size="20.00">Backward&#45;edge example: the original flow network</text>
<text xml:space="preserve" text-anchor="middle" x="243.05" y="-339.85" font-family="Helvetica,sans-Serif" font-size="20.00">All capacities are 1.</text>
<!-- s&#45;&gt;a -->
<g id="edge1" class="edge">
<title>s&#45;&gt;a</title>
<path fill="none" stroke="#475569" stroke-width="2.4" d="M50.85,-182.13C89,-206.81 164.59,-255.72 208.75,-284.29"/>
<polygon fill="#475569" stroke="#475569" stroke-width="2.4" points="206.94,-286.87 216.21,-289.12 210.36,-281.59 206.94,-286.87"/>
<text xml:space="preserve" text-anchor="middle" x="130.58" y="-237.93" font-family="Helvetica,sans-Serif" font-size="16.00">1</text>
</g>
<!-- s&#45;&gt;b -->
<g id="edge2" class="edge">
<title>s&#45;&gt;b</title>
<path fill="none" stroke="#475569" stroke-width="2.4" d="M50.85,-151.72C89,-127.04 164.59,-78.13 208.75,-49.56"/>
<polygon fill="#475569" stroke="#475569" stroke-width="2.4" points="210.36,-52.26 216.21,-44.73 206.94,-46.97 210.36,-52.26"/>
<text xml:space="preserve" text-anchor="middle" x="130.58" y="-98.52" font-family="Helvetica,sans-Serif" font-size="16.00">1</text>
</g>
<!-- a&#45;&gt;b -->
<g id="edge3" class="edge">
<title>a&#45;&gt;b</title>
<path fill="none" stroke="#475569" stroke-width="2.4" d="M243.05,-278.19C243.05,-228.43 243.05,-125.11 243.05,-67.82"/>
<polygon fill="#475569" stroke="#475569" stroke-width="2.4" points="246.2,-67.95 243.05,-58.95 239.9,-67.95 246.2,-67.95"/>
<text xml:space="preserve" text-anchor="middle" x="238.55" y="-167.93" font-family="Helvetica,sans-Serif" font-size="16.00">1</text>
</g>
<!-- a&#45;&gt;t -->
<g id="edge4" class="edge">
<title>a&#45;&gt;t</title>
<path fill="none" stroke="#475569" stroke-width="2.4" d="M266.54,-291.29C304.69,-266.6 380.28,-217.7 424.44,-189.12"/>
<polygon fill="#475569" stroke="#475569" stroke-width="2.4" points="426.05,-191.83 431.9,-184.29 422.63,-186.54 426.05,-191.83"/>
<text xml:space="preserve" text-anchor="middle" x="346.27" y="-238.09" font-family="Helvetica,sans-Serif" font-size="16.00">1</text>
</g>
<!-- b&#45;&gt;t -->
<g id="edge5" class="edge">
<title>b&#45;&gt;t</title>
<path fill="none" stroke="#475569" stroke-width="2.4" d="M266.54,-42.56C304.69,-67.25 380.28,-116.15 424.44,-144.73"/>
<polygon fill="#475569" stroke="#475569" stroke-width="2.4" points="422.63,-147.31 431.9,-149.56 426.05,-142.02 422.63,-147.31"/>
<text xml:space="preserve" text-anchor="middle" x="346.27" y="-98.36" font-family="Helvetica,sans-Serif" font-size="16.00">1</text>
</g>
<!-- s -->
<g id="node1" class="node">
<title>s</title>
<ellipse fill="#f8fafc" stroke="#0f172a" stroke-width="2" cx="27.36" cy="-166.92" rx="27.36" ry="27.36"/>
<text xml:space="preserve" text-anchor="middle" x="27.36" y="-159.2" font-family="Helvetica,sans-Serif" font-size="18.00">s</text>
</g>
<!-- a -->
<g id="node2" class="node">
<title>a</title>
<ellipse fill="#f8fafc" stroke="#0f172a" stroke-width="2" cx="243.05" cy="-306.49" rx="27.36" ry="27.36"/>
<text xml:space="preserve" text-anchor="middle" x="243.05" y="-298.76" font-family="Helvetica,sans-Serif" font-size="18.00">a</text>
</g>
<!-- b -->
<g id="node3" class="node">
<title>b</title>
<ellipse fill="#f8fafc" stroke="#0f172a" stroke-width="2" cx="243.05" cy="-27.36" rx="27.36" ry="27.36"/>
<text xml:space="preserve" text-anchor="middle" x="243.05" y="-19.63" font-family="Helvetica,sans-Serif" font-size="18.00">b</text>
</g>
<!-- t -->
<g id="node4" class="node">
<title>t</title>
<ellipse fill="#f8fafc" stroke="#0f172a" stroke-width="2" cx="458.74" cy="-166.92" rx="27.36" ry="27.36"/>
<text xml:space="preserve" text-anchor="middle" x="458.74" y="-159.2" font-family="Helvetica,sans-Serif" font-size="18.00">t</text>
</g>
</g>
</svg>
