<?xml version="1.0" encoding="UTF-8" standalone="no"?>
<!DOCTYPE svg PUBLIC "-//W3C//DTD SVG 1.1//EN"
 "http://www.w3.org/Graphics/SVG/1.1/DTD/svg11.dtd">
<!-- Generated by graphviz version 14.1.3 (20260303.0454)
 -->
<!-- Title: G Pages: 1 -->
<svg width="552pt" height="434pt"
 viewBox="0.00 0.00 552.00 434.00" xmlns="http://www.w3.org/2000/svg" xmlns:xlink="http://www.w3.org/1999/xlink">
<g id="graph0" class="graph" transform="scale(1 1) rotate(0) translate(32.78 409.05)">
<title>G</title>
<polygon fill="white" stroke="none" points="-32.78,25.2 -32.78,-409.05 518.87,-409.05 518.87,25.2 -32.78,25.2"/>
<text xml:space="preserve" text-anchor="middle" x="243.05" y="-360.85" font-family="Helvetica,sans-Serif" font-size="20.00">Step 4: residual graph after the correction</text>
<text xml:space="preserve" text-anchor="middle" x="243.05" y="-339.85" font-family="Helvetica,sans-Serif" font-size="20.00">Stop now, because there is no residual path from s to t.</text>
<!-- a&#45;&gt;s -->
<g id="edge1" class="edge">
<title>a&#45;&gt;s</title>
<path fill="none" stroke="#94a3b8" stroke-width="2" d="M219.56,-291.29C181.25,-266.5 105.18,-217.28 61.1,-188.76"/>
<polygon fill="#94a3b8" stroke="#94a3b8" stroke-width="2" points="62.96,-186.21 53.69,-183.96 59.54,-191.5 62.96,-186.21"/>
<text xml:space="preserve" text-anchor="middle" x="130.77" y="-238.05" font-family="Helvetica,sans-Serif" font-size="16.00">1</text>
</g>
<!-- a&#45;&gt;b -->
<g id="edge3" class="edge">
<title>a&#45;&gt;b</title>
<path fill="none" stroke="#94a3b8" stroke-width="2" d="M243.05,-278.19C243.05,-228.22 243.05,-124.24 243.05,-67.1"/>
<polygon fill="#94a3b8" stroke="#94a3b8" stroke-width="2" points="246.2,-67.35 243.05,-58.35 239.9,-67.35 246.2,-67.35"/>
<text xml:space="preserve" text-anchor="middle" x="238.55" y="-168.32" font-family="Helvetica,sans-Serif" font-size="16.00">1</text>
</g>
<!-- b&#45;&gt;s -->
<g id="edge2" class="edge">
<title>b&#45;&gt;s</title>
<path fill="none" stroke="#94a3b8" stroke-width="2" d="M219.56,-42.56C181.25,-67.35 105.18,-116.57 61.1,-145.09"/>
<polygon fill="#94a3b8" stroke="#94a3b8" stroke-width="2" points="59.54,-142.35 53.69,-149.88 62.96,-147.64 59.54,-142.35"/>
<text xml:space="preserve" text-anchor="middle" x="130.77" y="-98.4" font-family="Helvetica,sans-Serif" font-size="16.00">1</text>
</g>
<!-- t&#45;&gt;a -->
<g id="edge4" class="edge">
<title>t&#45;&gt;a</title>
<path fill="none" stroke="#94a3b8" stroke-width="2" d="M435.25,-182.13C396.94,-206.91 320.87,-256.13 276.79,-284.66"/>
<polygon fill="#94a3b8" stroke="#94a3b8" stroke-width="2" points="275.23,-281.91 269.38,-289.45 278.65,-287.2 275.23,-281.91"/>
<text xml:space="preserve" text-anchor="middle" x="346.46" y="-237.96" font-family="Helvetica,sans-Serif" font-size="16.00">1</text>
</g>
<!-- t&#45;&gt;b -->
<g id="edge5" class="edge">
<title>t&#45;&gt;b</title>
<path fill="none" stroke="#94a3b8" stroke-width="2" d="M435.25,-151.72C396.94,-126.93 320.87,-77.72 276.79,-49.19"/>
<polygon fill="#94a3b8" stroke="#94a3b8" stroke-width="2" points="278.65,-46.64 269.38,-44.4 275.23,-51.93 278.65,-46.64"/>
<text xml:space="preserve" text-anchor="middle" x="346.46" y="-98.48" font-family="Helvetica,sans-Serif" font-size="16.00">1</text>
</g>
<!-- s -->
<g id="node1" class="node">
<title>s</title>
<ellipse fill="#f8fafc" stroke="#0f172a" stroke-width="2" cx="27.36" cy="-166.92" rx="27.36" ry="27.36"/>
<text xml:space="preserve" text-anchor="middle" x="27.36" y="-159.2" font-family="Helvetica,sans-Serif" font-size="18.00">s</text>
</g>
<!-- a -->
<g id="node2" class="node">
<title>a</title>
<ellipse fill="#f8fafc" stroke="#0f172a" stroke-width="2" cx="243.05" cy="-306.49" rx="27.36" ry="27.36"/>
<text xml:space="preserve" text-anchor="middle" x="243.05" y="-298.76" font-family="Helvetica,sans-Serif" font-size="18.00">a</text>
</g>
<!-- b -->
<g id="node3" class="node">
<title>b</title>
<ellipse fill="#f8fafc" stroke="#0f172a" stroke-width="2" cx="243.05" cy="-27.36" rx="27.36" ry="27.36"/>
<text xml:space="preserve" text-anchor="middle" x="243.05" y="-19.63" font-family="Helvetica,sans-Serif" font-size="18.00">b</text>
</g>
<!-- t -->
<g id="node4" class="node">
<title>t</title>
<ellipse fill="#f8fafc" stroke="#0f172a" stroke-width="2" cx="458.74" cy="-166.92" rx="27.36" ry="27.36"/>
<text xml:space="preserve" text-anchor="middle" x="458.74" y="-159.2" font-family="Helvetica,sans-Serif" font-size="18.00">t</text>
</g>
</g>
</svg>
