<?xml version="1.0" encoding="UTF-8" standalone="no"?>
<!DOCTYPE svg PUBLIC "-//W3C//DTD SVG 1.1//EN"
 "http://www.w3.org/Graphics/SVG/1.1/DTD/svg11.dtd">
<!-- Generated by graphviz version 14.1.3 (20260303.0454)
 -->
<!-- Title: G Pages: 1 -->
<svg width="536pt" height="434pt"
 viewBox="0.00 0.00 536.00 434.00" xmlns="http://www.w3.org/2000/svg" xmlns:xlink="http://www.w3.org/1999/xlink">
<g id="graph0" class="graph" transform="scale(1 1) rotate(0) translate(25.2 409.05)">
<title>G</title>
<polygon fill="white" stroke="none" points="-25.2,25.2 -25.2,-409.05 511.3,-409.05 511.3,25.2 -25.2,25.2"/>
<text xml:space="preserve" text-anchor="middle" x="243.05" y="-360.85" font-family="Helvetica,sans-Serif" font-size="20.00">Step 1: a bad first augmenting path</text>
<text xml:space="preserve" text-anchor="middle" x="243.05" y="-339.85" font-family="Helvetica,sans-Serif" font-size="20.00">Send 1 unit on s &#45;&gt; a &#45;&gt; b &#45;&gt; t.</text>
<!-- s&#45;&gt;a -->
<g id="edge1" class="edge">
<title>s&#45;&gt;a</title>
<path fill="none" stroke="#dc2626" stroke-width="3.8" d="M50.85,-182.13C88.52,-206.5 162.67,-254.48 207.05,-283.19"/>
<polygon fill="#dc2626" stroke="#dc2626" stroke-width="3.8" points="205.16,-285.72 214.43,-287.97 208.58,-280.43 205.16,-285.72"/>
<text xml:space="preserve" text-anchor="middle" x="123.97" y="-238.02" font-family="Helvetica,sans-Serif" font-size="16.00" fill="#dc2626">1/1</text>
</g>
<!-- s&#45;&gt;b -->
<g id="edge2" class="edge">
<title>s&#45;&gt;b</title>
<path fill="none" stroke="#cbd5e1" stroke-width="2" d="M50.85,-151.72C89.16,-126.93 165.23,-77.72 209.31,-49.19"/>
<polygon fill="#cbd5e1" stroke="#cbd5e1" stroke-width="2" points="210.87,-51.93 216.72,-44.4 207.45,-46.64 210.87,-51.93"/>
<text xml:space="preserve" text-anchor="middle" x="123.89" y="-98.48" font-family="Helvetica,sans-Serif" font-size="16.00">0/1</text>
</g>
<!-- a&#45;&gt;b -->
<g id="edge3" class="edge">
<title>a&#45;&gt;b</title>
<path fill="none" stroke="#dc2626" stroke-width="3.8" d="M243.05,-278.19C243.05,-229.05 243.05,-127.72 243.05,-70.02"/>
<polygon fill="#dc2626" stroke="#dc2626" stroke-width="3.8" points="246.2,-70.07 243.05,-61.07 239.9,-70.07 246.2,-70.07"/>
<text xml:space="preserve" text-anchor="middle" x="231.8" y="-168.17" font-family="Helvetica,sans-Serif" font-size="16.00" fill="#dc2626">1/1</text>
</g>
<!-- a&#45;&gt;t -->
<g id="edge4" class="edge">
<title>a&#45;&gt;t</title>
<path fill="none" stroke="#cbd5e1" stroke-width="2" d="M266.54,-291.29C304.85,-266.5 380.92,-217.28 425,-188.76"/>
<polygon fill="#cbd5e1" stroke="#cbd5e1" stroke-width="2" points="426.56,-191.5 432.41,-183.96 423.14,-186.21 426.56,-191.5"/>
<text xml:space="preserve" text-anchor="middle" x="339.58" y="-238.05" font-family="Helvetica,sans-Serif" font-size="16.00">0/1</text>
</g>
<!-- b&#45;&gt;t -->
<g id="edge5" class="edge">
<title>b&#45;&gt;t</title>
<path fill="none" stroke="#dc2626" stroke-width="3.8" d="M266.54,-42.56C304.21,-66.93 378.36,-114.91 422.74,-143.63"/>
<polygon fill="#dc2626" stroke="#dc2626" stroke-width="3.8" points="420.85,-146.16 430.12,-148.4 424.27,-140.87 420.85,-146.16"/>
<text xml:space="preserve" text-anchor="middle" x="339.66" y="-98.45" font-family="Helvetica,sans-Serif" font-size="16.00" fill="#dc2626">1/1</text>
</g>
<!-- s -->
<g id="node1" class="node">
<title>s</title>
<ellipse fill="#f8fafc" stroke="#0f172a" stroke-width="2" cx="27.36" cy="-166.92" rx="27.36" ry="27.36"/>
<text xml:space="preserve" text-anchor="middle" x="27.36" y="-159.2" font-family="Helvetica,sans-Serif" font-size="18.00">s</text>
</g>
<!-- a -->
<g id="node2" class="node">
<title>a</title>
<ellipse fill="#f8fafc" stroke="#0f172a" stroke-width="2" cx="243.05" cy="-306.49" rx="27.36" ry="27.36"/>
<text xml:space="preserve" text-anchor="middle" x="243.05" y="-298.76" font-family="Helvetica,sans-Serif" font-size="18.00">a</text>
</g>
<!-- b -->
<g id="node3" class="node">
<title>b</title>
<ellipse fill="#f8fafc" stroke="#0f172a" stroke-width="2" cx="243.05" cy="-27.36" rx="27.36" ry="27.36"/>
<text xml:space="preserve" text-anchor="middle" x="243.05" y="-19.63" font-family="Helvetica,sans-Serif" font-size="18.00">b</text>
</g>
<!-- t -->
<g id="node4" class="node">
<title>t</title>
<ellipse fill="#f8fafc" stroke="#0f172a" stroke-width="2" cx="458.74" cy="-166.92" rx="27.36" ry="27.36"/>
<text xml:space="preserve" text-anchor="middle" x="458.74" y="-159.2" font-family="Helvetica,sans-Serif" font-size="18.00">t</text>
</g>
</g>
</svg>
