<?xml version="1.0" encoding="UTF-8" standalone="no"?>
<!DOCTYPE svg PUBLIC "-//W3C//DTD SVG 1.1//EN"
 "http://www.w3.org/Graphics/SVG/1.1/DTD/svg11.dtd">
<!-- Generated by graphviz version 14.1.3 (20260303.0454)
 -->
<!-- Title: G Pages: 1 -->
<svg width="687pt" height="434pt"
 viewBox="0.00 0.00 687.00 434.00" xmlns="http://www.w3.org/2000/svg" xmlns:xlink="http://www.w3.org/1999/xlink">
<g id="graph0" class="graph" transform="scale(1 1) rotate(0) translate(100.28 409.05)">
<title>G</title>
<polygon fill="white" stroke="none" points="-100.28,25.2 -100.28,-409.05 586.37,-409.05 586.37,25.2 -100.28,25.2"/>
<text xml:space="preserve" text-anchor="middle" x="243.05" y="-360.85" font-family="Helvetica,sans-Serif" font-size="20.00">Step 2: the residual graph fixes the mistake</text>
<text xml:space="preserve" text-anchor="middle" x="243.05" y="-339.85" font-family="Helvetica,sans-Serif" font-size="20.00">Use residual path s &#45;&gt; b &#45;&gt; a &#45;&gt; t. The edge b &#45;&gt; a is a backward edge.</text>
<!-- s&#45;&gt;b -->
<g id="edge2" class="edge">
<title>s&#45;&gt;b</title>
<path fill="none" stroke="#16a34a" stroke-width="3.8" d="M50.85,-151.72C88.52,-127.35 162.67,-79.37 207.05,-50.65"/>
<polygon fill="#16a34a" stroke="#16a34a" stroke-width="3.8" points="208.58,-53.41 214.43,-45.88 205.16,-48.12 208.58,-53.41"/>
<text xml:space="preserve" text-anchor="middle" x="130.72" y="-98.43" font-family="Helvetica,sans-Serif" font-size="16.00" fill="#16a34a">1</text>
</g>
<!-- a&#45;&gt;s -->
<g id="edge1" class="edge">
<title>a&#45;&gt;s</title>
<path fill="none" stroke="#94a3b8" stroke-width="2" d="M219.56,-291.29C181.25,-266.5 105.18,-217.28 61.1,-188.76"/>
<polygon fill="#94a3b8" stroke="#94a3b8" stroke-width="2" points="62.96,-186.21 53.69,-183.96 59.54,-191.5 62.96,-186.21"/>
<text xml:space="preserve" text-anchor="middle" x="130.77" y="-238.05" font-family="Helvetica,sans-Serif" font-size="16.00">1</text>
</g>
<!-- a&#45;&gt;t -->
<g id="edge4" class="edge">
<title>a&#45;&gt;t</title>
<path fill="none" stroke="#16a34a" stroke-width="3.8" d="M266.54,-291.29C304.21,-266.92 378.36,-218.93 422.74,-190.22"/>
<polygon fill="#16a34a" stroke="#16a34a" stroke-width="3.8" points="424.27,-192.98 430.12,-185.44 420.85,-187.69 424.27,-192.98"/>
<text xml:space="preserve" text-anchor="middle" x="346.41" y="-237.99" font-family="Helvetica,sans-Serif" font-size="16.00" fill="#16a34a">1</text>
</g>
<!-- b&#45;&gt;a -->
<g id="edge3" class="edge">
<title>b&#45;&gt;a</title>
<path fill="none" stroke="#16a34a" stroke-width="3.8" d="M243.05,-55.66C243.05,-104.79 243.05,-206.13 243.05,-263.83"/>
<polygon fill="#16a34a" stroke="#16a34a" stroke-width="3.8" points="239.9,-263.78 243.05,-272.78 246.2,-263.78 239.9,-263.78"/>
<text xml:space="preserve" text-anchor="middle" x="238.55" y="-168.28" font-family="Helvetica,sans-Serif" font-size="16.00" fill="#16a34a">1</text>
</g>
<!-- t&#45;&gt;b -->
<g id="edge5" class="edge">
<title>t&#45;&gt;b</title>
<path fill="none" stroke="#94a3b8" stroke-width="2" d="M435.25,-151.72C396.94,-126.93 320.87,-77.72 276.79,-49.19"/>
<polygon fill="#94a3b8" stroke="#94a3b8" stroke-width="2" points="278.65,-46.64 269.38,-44.4 275.23,-51.93 278.65,-46.64"/>
<text xml:space="preserve" text-anchor="middle" x="346.46" y="-98.48" font-family="Helvetica,sans-Serif" font-size="16.00">1</text>
</g>
<!-- s -->
<g id="node1" class="node">
<title>s</title>
<ellipse fill="#f8fafc" stroke="#0f172a" stroke-width="2" cx="27.36" cy="-166.92" rx="27.36" ry="27.36"/>
<text xml:space="preserve" text-anchor="middle" x="27.36" y="-159.2" font-family="Helvetica,sans-Serif" font-size="18.00">s</text>
</g>
<!-- a -->
<g id="node2" class="node">
<title>a</title>
<ellipse fill="#f8fafc" stroke="#0f172a" stroke-width="2" cx="243.05" cy="-306.49" rx="27.36" ry="27.36"/>
<text xml:space="preserve" text-anchor="middle" x="243.05" y="-298.76" font-family="Helvetica,sans-Serif" font-size="18.00">a</text>
</g>
<!-- b -->
<g id="node3" class="node">
<title>b</title>
<ellipse fill="#f8fafc" stroke="#0f172a" stroke-width="2" cx="243.05" cy="-27.36" rx="27.36" ry="27.36"/>
<text xml:space="preserve" text-anchor="middle" x="243.05" y="-19.63" font-family="Helvetica,sans-Serif" font-size="18.00">b</text>
</g>
<!-- t -->
<g id="node4" class="node">
<title>t</title>
<ellipse fill="#f8fafc" stroke="#0f172a" stroke-width="2" cx="458.74" cy="-166.92" rx="27.36" ry="27.36"/>
<text xml:space="preserve" text-anchor="middle" x="458.74" y="-159.2" font-family="Helvetica,sans-Serif" font-size="18.00">t</text>
</g>
</g>
</svg>
