<?xml version="1.0" encoding="UTF-8" standalone="no"?>
<!DOCTYPE svg PUBLIC "-//W3C//DTD SVG 1.1//EN"
 "http://www.w3.org/Graphics/SVG/1.1/DTD/svg11.dtd">
<!-- Generated by graphviz version 14.1.3 (20260303.0454)
 -->
<!-- Title: G Pages: 1 -->
<svg width="667pt" height="434pt"
 viewBox="0.00 0.00 667.00 434.00" xmlns="http://www.w3.org/2000/svg" xmlns:xlink="http://www.w3.org/1999/xlink">
<g id="graph0" class="graph" transform="scale(1 1) rotate(0) translate(90.53 409.05)">
<title>G</title>
<polygon fill="white" stroke="none" points="-90.53,25.2 -90.53,-409.05 576.62,-409.05 576.62,25.2 -90.53,25.2"/>
<text xml:space="preserve" text-anchor="middle" x="243.05" y="-360.85" font-family="Helvetica,sans-Serif" font-size="20.00">Step 3: final corrected maximum flow</text>
<text xml:space="preserve" text-anchor="middle" x="243.05" y="-339.85" font-family="Helvetica,sans-Serif" font-size="20.00">The backward edge removed flow from a &#45;&gt; b and unlocked value 2.</text>
<!-- s&#45;&gt;a -->
<g id="edge1" class="edge">
<title>s&#45;&gt;a</title>
<path fill="none" stroke="#16a34a" stroke-width="3.8" d="M50.85,-182.13C88.52,-206.5 162.67,-254.48 207.05,-283.19"/>
<polygon fill="#16a34a" stroke="#16a34a" stroke-width="3.8" points="205.16,-285.72 214.43,-287.97 208.58,-280.43 205.16,-285.72"/>
<text xml:space="preserve" text-anchor="middle" x="123.97" y="-238.02" font-family="Helvetica,sans-Serif" font-size="16.00" fill="#16a34a">1/1</text>
</g>
<!-- s&#45;&gt;b -->
<g id="edge2" class="edge">
<title>s&#45;&gt;b</title>
<path fill="none" stroke="#16a34a" stroke-width="3.8" d="M50.85,-151.72C88.52,-127.35 162.67,-79.37 207.05,-50.65"/>
<polygon fill="#16a34a" stroke="#16a34a" stroke-width="3.8" points="208.58,-53.41 214.43,-45.88 205.16,-48.12 208.58,-53.41"/>
<text xml:space="preserve" text-anchor="middle" x="123.97" y="-98.43" font-family="Helvetica,sans-Serif" font-size="16.00" fill="#16a34a">1/1</text>
</g>
<!-- a&#45;&gt;b -->
<g id="edge3" class="edge">
<title>a&#45;&gt;b</title>
<path fill="none" stroke="#cbd5e1" stroke-width="2" d="M243.05,-278.19C243.05,-228.22 243.05,-124.24 243.05,-67.1"/>
<polygon fill="#cbd5e1" stroke="#cbd5e1" stroke-width="2" points="246.2,-67.35 243.05,-58.35 239.9,-67.35 246.2,-67.35"/>
<text xml:space="preserve" text-anchor="middle" x="231.8" y="-168.32" font-family="Helvetica,sans-Serif" font-size="16.00">0/1</text>
</g>
<!-- a&#45;&gt;t -->
<g id="edge4" class="edge">
<title>a&#45;&gt;t</title>
<path fill="none" stroke="#16a34a" stroke-width="3.8" d="M266.54,-291.29C304.21,-266.92 378.36,-218.93 422.74,-190.22"/>
<polygon fill="#16a34a" stroke="#16a34a" stroke-width="3.8" points="424.27,-192.98 430.12,-185.44 420.85,-187.69 424.27,-192.98"/>
<text xml:space="preserve" text-anchor="middle" x="339.66" y="-237.99" font-family="Helvetica,sans-Serif" font-size="16.00" fill="#16a34a">1/1</text>
</g>
<!-- b&#45;&gt;t -->
<g id="edge5" class="edge">
<title>b&#45;&gt;t</title>
<path fill="none" stroke="#16a34a" stroke-width="3.8" d="M266.54,-42.56C304.21,-66.93 378.36,-114.91 422.74,-143.63"/>
<polygon fill="#16a34a" stroke="#16a34a" stroke-width="3.8" points="420.85,-146.16 430.12,-148.4 424.27,-140.87 420.85,-146.16"/>
<text xml:space="preserve" text-anchor="middle" x="339.66" y="-98.45" font-family="Helvetica,sans-Serif" font-size="16.00" fill="#16a34a">1/1</text>
</g>
<!-- s -->
<g id="node1" class="node">
<title>s</title>
<ellipse fill="#f8fafc" stroke="#0f172a" stroke-width="2" cx="27.36" cy="-166.92" rx="27.36" ry="27.36"/>
<text xml:space="preserve" text-anchor="middle" x="27.36" y="-159.2" font-family="Helvetica,sans-Serif" font-size="18.00">s</text>
</g>
<!-- a -->
<g id="node2" class="node">
<title>a</title>
<ellipse fill="#f8fafc" stroke="#0f172a" stroke-width="2" cx="243.05" cy="-306.49" rx="27.36" ry="27.36"/>
<text xml:space="preserve" text-anchor="middle" x="243.05" y="-298.76" font-family="Helvetica,sans-Serif" font-size="18.00">a</text>
</g>
<!-- b -->
<g id="node3" class="node">
<title>b</title>
<ellipse fill="#f8fafc" stroke="#0f172a" stroke-width="2" cx="243.05" cy="-27.36" rx="27.36" ry="27.36"/>
<text xml:space="preserve" text-anchor="middle" x="243.05" y="-19.63" font-family="Helvetica,sans-Serif" font-size="18.00">b</text>
</g>
<!-- t -->
<g id="node4" class="node">
<title>t</title>
<ellipse fill="#f8fafc" stroke="#0f172a" stroke-width="2" cx="458.74" cy="-166.92" rx="27.36" ry="27.36"/>
<text xml:space="preserve" text-anchor="middle" x="458.74" y="-159.2" font-family="Helvetica,sans-Serif" font-size="18.00">t</text>
</g>
</g>
</svg>
