<?xml version="1.0" encoding="UTF-8" standalone="no"?>
<!DOCTYPE svg PUBLIC "-//W3C//DTD SVG 1.1//EN"
 "http://www.w3.org/Graphics/SVG/1.1/DTD/svg11.dtd">
<!-- Generated by graphviz version 14.1.3 (20260303.0454)
 -->
<!-- Title: G Pages: 1 -->
<svg width="948pt" height="431pt"
 viewBox="0.00 0.00 948.00 431.00" xmlns="http://www.w3.org/2000/svg" xmlns:xlink="http://www.w3.org/1999/xlink">
<g id="graph0" class="graph" transform="scale(1 1) rotate(0) translate(242.63 395.3)">
<title>G</title>
<polygon fill="white" stroke="none" points="-242.63,36 -242.63,-395.3 704.87,-395.3 704.87,36 -242.63,36"/>
<text xml:space="preserve" text-anchor="middle" x="231.12" y="-336.3" font-family="Helvetica,sans-Serif" font-size="20.00">Step 4: recurse and glue</text>
<text xml:space="preserve" text-anchor="middle" x="231.12" y="-315.3" font-family="Helvetica,sans-Serif" font-size="20.00">F1 and F3 are placed inside the cycle; F2 is placed outside. Each flap subproblem is a base case.</text>
<!-- v1&#45;&#45;v2 -->
<g id="edge1" class="edge">
<title>v1&#45;&#45;v2</title>
<path fill="none" stroke="#f59e0b" stroke-width="3.4" d="M42.99,-215.3C59.87,-230.45 84.71,-252.74 101.68,-267.97"/>
</g>
<!-- v1&#45;&#45;x -->
<g id="edge7" class="edge">
<title>v1&#45;&#45;x</title>
<path fill="none" stroke="#16a34a" stroke-width="3.2" d="M48.34,-206.35C61.58,-210.6 78,-215.87 91.27,-220.13"/>
</g>
<!-- v2&#45;&#45;v3 -->
<g id="edge2" class="edge">
<title>v2&#45;&#45;v3</title>
<path fill="none" stroke="#f59e0b" stroke-width="3.4" d="M145.76,-283.49C167.84,-282.33 199.69,-280.66 221.75,-279.5"/>
</g>
<!-- v2&#45;&#45;y -->
<g id="edge11" class="edge">
<title>v2&#45;&#45;y</title>
<path fill="none" stroke="#7c3aed" stroke-width="3.2" d="M144.61,-277.52C169.99,-269.96 211.14,-258 247.02,-248.97 289.11,-238.37 300.98,-240.94 342.39,-227.9 351.87,-224.91 354.16,-223.8 363.04,-219.34 381.67,-210 401.92,-197.8 416.64,-188.54"/>
</g>
<!-- v3&#45;&#45;v4 -->
<g id="edge3" class="edge">
<title>v3&#45;&#45;v4</title>
<path fill="none" stroke="#f59e0b" stroke-width="3.4" d="M266.32,-262.09C282.86,-248.3 306.58,-228.54 323.12,-214.75"/>
</g>
<!-- v4&#45;&#45;v5 -->
<g id="edge4" class="edge">
<title>v4&#45;&#45;v5</title>
<path fill="none" stroke="#f59e0b" stroke-width="3.4" d="M327.28,-178.54C309.42,-154.73 279.89,-115.36 262.06,-91.59"/>
</g>
<!-- v4&#45;&#45;z -->
<g id="edge9" class="edge">
<title>v4&#45;&#45;z</title>
<path fill="none" stroke="#16a34a" stroke-width="3.2" d="M318.35,-190.94C296.64,-183.94 264.87,-173.69 243.18,-166.69"/>
</g>
<!-- v5&#45;&#45;v6 -->
<g id="edge5" class="edge">
<title>v5&#45;&#45;v6</title>
<path fill="none" stroke="#f59e0b" stroke-width="3.4" d="M221.89,-71.53C199.6,-71.53 167.2,-71.53 144.92,-71.53"/>
</g>
<!-- v6&#45;&#45;v1 -->
<g id="edge6" class="edge">
<title>v6&#45;&#45;v1</title>
<path fill="none" stroke="#f59e0b" stroke-width="3.4" d="M104.74,-91.68C86.88,-115.49 57.35,-154.87 39.52,-178.64"/>
</g>
<!-- x&#45;&#45;v3 -->
<g id="edge8" class="edge">
<title>x&#45;&#45;v3</title>
<path fill="none" stroke="#16a34a" stroke-width="3.2" d="M138.83,-236.84C162.81,-246 199.76,-260.12 223.67,-269.25"/>
</g>
<!-- z&#45;&#45;v6 -->
<g id="edge10" class="edge">
<title>z&#45;&#45;v6</title>
<path fill="none" stroke="#16a34a" stroke-width="3.2" d="M200.51,-142.51C182.86,-126.98 156.53,-103.8 138.79,-88.2"/>
</g>
<!-- y&#45;&#45;v5 -->
<g id="edge12" class="edge">
<title>y&#45;&#45;v5</title>
<path fill="none" stroke="#7c3aed" stroke-width="3.2" d="M415.51,-162.8C378.75,-142.89 305.79,-103.37 269.13,-83.51"/>
</g>
<!-- v1 -->
<g id="node1" class="node">
<title>v1</title>
<ellipse fill="#fed7aa" stroke="#ea580c" stroke-width="1.8" cx="24.48" cy="-198.69" rx="24.48" ry="24.48"/>
<text xml:space="preserve" text-anchor="middle" x="24.48" y="-191.74" font-family="Helvetica,sans-Serif" font-size="16.00">v1</text>
</g>
<!-- v2 -->
<g id="node2" class="node">
<title>v2</title>
<ellipse fill="#fed7aa" stroke="#ea580c" stroke-width="1.8" cx="120.46" cy="-284.82" rx="24.48" ry="24.48"/>
<text xml:space="preserve" text-anchor="middle" x="120.46" y="-277.87" font-family="Helvetica,sans-Serif" font-size="16.00">v2</text>
</g>
<!-- v3 -->
<g id="node3" class="node">
<title>v3</title>
<ellipse fill="#fed7aa" stroke="#ea580c" stroke-width="1.8" cx="247.02" cy="-278.17" rx="24.48" ry="24.48"/>
<text xml:space="preserve" text-anchor="middle" x="247.02" y="-271.22" font-family="Helvetica,sans-Serif" font-size="16.00">v3</text>
</g>
<!-- v4 -->
<g id="node4" class="node">
<title>v4</title>
<ellipse fill="#fed7aa" stroke="#ea580c" stroke-width="1.8" cx="342.39" cy="-198.69" rx="24.48" ry="24.48"/>
<text xml:space="preserve" text-anchor="middle" x="342.39" y="-191.74" font-family="Helvetica,sans-Serif" font-size="16.00">v4</text>
</g>
<!-- v5 -->
<g id="node5" class="node">
<title>v5</title>
<ellipse fill="#fed7aa" stroke="#ea580c" stroke-width="1.8" cx="247.02" cy="-71.53" rx="24.48" ry="24.48"/>
<text xml:space="preserve" text-anchor="middle" x="247.02" y="-64.58" font-family="Helvetica,sans-Serif" font-size="16.00">v5</text>
</g>
<!-- v6 -->
<g id="node6" class="node">
<title>v6</title>
<ellipse fill="#fed7aa" stroke="#ea580c" stroke-width="1.8" cx="119.85" cy="-71.53" rx="24.48" ry="24.48"/>
<text xml:space="preserve" text-anchor="middle" x="119.85" y="-64.58" font-family="Helvetica,sans-Serif" font-size="16.00">v6</text>
</g>
<!-- x -->
<g id="node7" class="node">
<title>x</title>
<ellipse fill="#dcfce7" stroke="#16a34a" stroke-width="1.8" cx="115.28" cy="-227.84" rx="24.48" ry="24.48"/>
<text xml:space="preserve" text-anchor="middle" x="115.28" y="-220.89" font-family="Helvetica,sans-Serif" font-size="16.00">x</text>
</g>
<!-- z -->
<g id="node8" class="node">
<title>z</title>
<ellipse fill="#dcfce7" stroke="#16a34a" stroke-width="1.8" cx="219.2" cy="-158.96" rx="24.48" ry="24.48"/>
<text xml:space="preserve" text-anchor="middle" x="219.2" y="-152.01" font-family="Helvetica,sans-Serif" font-size="16.00">z</text>
</g>
<!-- y -->
<g id="node9" class="node">
<title>y</title>
<ellipse fill="#ede9fe" stroke="#7c3aed" stroke-width="1.8" cx="437.76" cy="-174.85" rx="24.48" ry="24.48"/>
<text xml:space="preserve" text-anchor="middle" x="437.76" y="-167.9" font-family="Helvetica,sans-Serif" font-size="16.00">y</text>
</g>
<!-- note1 -->
<g id="node10" class="node">
<title>note1</title>
<text xml:space="preserve" text-anchor="middle" x="151.64" y="6.95" font-family="Helvetica,sans-Serif" font-size="16.00">Inside flaps: F1 and F3</text>
</g>
<!-- note2 -->
<g id="node11" class="node">
<title>note2</title>
<text xml:space="preserve" text-anchor="middle" x="405.97" y="6.95" font-family="Helvetica,sans-Serif" font-size="16.00">Outside flap: F2</text>
</g>
</g>
</svg>
