<?xml version="1.0" encoding="UTF-8" standalone="no"?>
<!DOCTYPE svg PUBLIC "-//W3C//DTD SVG 1.1//EN"
 "http://www.w3.org/Graphics/SVG/1.1/DTD/svg11.dtd">
<!-- Generated by graphviz version 14.1.3 (20260303.0454)
 -->
<!-- Title: G Pages: 1 -->
<svg width="835pt" height="570pt"
 viewBox="0.00 0.00 835.00 570.00" xmlns="http://www.w3.org/2000/svg" xmlns:xlink="http://www.w3.org/1999/xlink">
<g id="graph0" class="graph" transform="scale(1 1) rotate(0) translate(244.68 544.96)">
<title>G</title>
<polygon fill="white" stroke="none" points="-244.68,25.2 -244.68,-544.96 590.47,-544.96 590.47,25.2 -244.68,25.2"/>
<text xml:space="preserve" text-anchor="middle" x="172.89" y="-496.76" font-family="Helvetica,sans-Serif" font-size="20.00">Part 2: D is forced to have degree 3</text>
<text xml:space="preserve" text-anchor="middle" x="172.89" y="-475.76" font-family="Helvetica,sans-Serif" font-size="20.00">Because D is the only inside vertex, maximal planarity forces edges D&#45;A, D&#45;B, and D&#45;C.</text>
<!-- A&#45;&#45;B -->
<g id="edge1" class="edge">
<title>A&#45;&#45;B</title>
<path fill="none" stroke="#cbd5e1" stroke-width="1.9" d="M44.98,-120.98C72.8,-159.24 127.98,-235.1 155.88,-273.47"/>
</g>
<!-- B&#45;&#45;C -->
<g id="edge2" class="edge">
<title>B&#45;&#45;C</title>
<path fill="none" stroke="#cbd5e1" stroke-width="1.9" d="M189.79,-273.63C217.62,-235.37 272.79,-159.51 300.69,-121.14"/>
</g>
<!-- C&#45;&#45;A -->
<g id="edge3" class="edge">
<title>C&#45;&#45;A</title>
<path fill="none" stroke="#cbd5e1" stroke-width="1.9" d="M288.88,-97.75C233.36,-97.75 112.22,-97.75 56.79,-97.75"/>
</g>
<!-- D&#45;&#45;A -->
<g id="edge4" class="edge">
<title>D&#45;&#45;A</title>
<path fill="none" stroke="#2563eb" stroke-width="4" d="M148,-168.95C121.31,-153.1 79.21,-128.11 52.65,-112.34"/>
</g>
<!-- D&#45;&#45;B -->
<g id="edge5" class="edge">
<title>D&#45;&#45;B</title>
<path fill="none" stroke="#2563eb" stroke-width="4" d="M172.89,-212.57C172.89,-229.59 172.89,-251.06 172.89,-268.08"/>
</g>
<!-- D&#45;&#45;C -->
<g id="edge6" class="edge">
<title>D&#45;&#45;C</title>
<path fill="none" stroke="#2563eb" stroke-width="4" d="M197.79,-168.95C224.47,-153.1 266.58,-128.11 293.14,-112.34"/>
</g>
<!-- E&#45;&#45;A -->
<g id="edge7" class="edge">
<title>E&#45;&#45;A</title>
<path fill="none" stroke="#cbd5e1" stroke-width="1.9" d="M170.13,-415.26C141.49,-351.24 68.62,-188.37 39.94,-124.25"/>
</g>
<!-- E&#45;&#45;B -->
<g id="edge8" class="edge">
<title>E&#45;&#45;B</title>
<path fill="none" stroke="#cbd5e1" stroke-width="1.9" d="M180.13,-412.72C178.55,-387.46 176.28,-351.01 174.7,-325.77"/>
</g>
<!-- E&#45;&#45;C -->
<g id="edge9" class="edge">
<title>E&#45;&#45;C</title>
<path fill="none" stroke="#cbd5e1" stroke-width="1.9" d="M192.6,-414.69C217.97,-350.4 281.77,-188.78 307.1,-124.61"/>
</g>
<!-- F&#45;&#45;A -->
<g id="edge10" class="edge">
<title>F&#45;&#45;A</title>
<path fill="none" stroke="#cbd5e1" stroke-width="1.9" d="M39.96,-299.78C37.36,-255.43 32.38,-170.86 29.77,-126.51"/>
</g>
<!-- F&#45;&#45;B -->
<g id="edge11" class="edge">
<title>F&#45;&#45;B</title>
<path fill="none" stroke="#cbd5e1" stroke-width="1.9" d="M69.81,-321.75C91.95,-316.4 122.65,-308.99 144.79,-303.65"/>
</g>
<!-- F&#45;&#45;E -->
<g id="edge12" class="edge">
<title>F&#45;&#45;E</title>
<path fill="none" stroke="#cbd5e1" stroke-width="1.9" d="M64.2,-346.72C90.37,-367.83 133.3,-402.45 159.46,-423.55"/>
</g>
<!-- A -->
<g id="node1" class="node">
<title>A</title>
<ellipse fill="#fed7aa" stroke="#ea580c" stroke-width="2" cx="28.08" cy="-97.75" rx="28.08" ry="28.08"/>
<text xml:space="preserve" text-anchor="middle" x="28.08" y="-90.02" font-family="Helvetica,sans-Serif" font-size="18.00">A</text>
</g>
<!-- B -->
<g id="node2" class="node">
<title>B</title>
<ellipse fill="#fed7aa" stroke="#ea580c" stroke-width="2" cx="172.89" cy="-296.87" rx="28.08" ry="28.08"/>
<text xml:space="preserve" text-anchor="middle" x="172.89" y="-289.14" font-family="Helvetica,sans-Serif" font-size="18.00">B</text>
</g>
<!-- C -->
<g id="node3" class="node">
<title>C</title>
<ellipse fill="#fed7aa" stroke="#ea580c" stroke-width="2" cx="317.7" cy="-97.75" rx="28.08" ry="28.08"/>
<text xml:space="preserve" text-anchor="middle" x="317.7" y="-90.02" font-family="Helvetica,sans-Serif" font-size="18.00">C</text>
</g>
<!-- D -->
<g id="node4" class="node">
<title>D</title>
<ellipse fill="#dbeafe" stroke="#2563eb" stroke-width="2" cx="172.89" cy="-183.73" rx="28.08" ry="28.08"/>
<text xml:space="preserve" text-anchor="middle" x="172.89" y="-176.01" font-family="Helvetica,sans-Serif" font-size="18.00">D</text>
</g>
<!-- E -->
<g id="node5" class="node">
<title>E</title>
<ellipse fill="#dcfce7" stroke="#16a34a" stroke-width="2" cx="181.94" cy="-441.68" rx="28.08" ry="28.08"/>
<text xml:space="preserve" text-anchor="middle" x="181.94" y="-433.95" font-family="Helvetica,sans-Serif" font-size="18.00">E</text>
</g>
<!-- F -->
<g id="node6" class="node">
<title>F</title>
<ellipse fill="#dcfce7" stroke="#16a34a" stroke-width="2" cx="41.66" cy="-328.54" rx="28.08" ry="28.08"/>
<text xml:space="preserve" text-anchor="middle" x="41.66" y="-320.82" font-family="Helvetica,sans-Serif" font-size="18.00">F</text>
</g>
<!-- note1 -->
<g id="node7" class="node">
<title>note1</title>
<polygon fill="lightgrey" stroke="none" stroke-width="2" points="nan,nan nan,nan nan,nan nan,nan nan,nan"/>
<text xml:space="preserve" text-anchor="middle" x="172.89" y="-19.43" font-family="Helvetica,sans-Serif" font-size="18.00">D cannot connect to E or F without crossing the separator ABC.</text>
</g>
<!-- note2 -->
<g id="node8" class="node">
<title>note2</title>
<polygon fill="lightgrey" stroke="none" stroke-width="2" points="nan,nan nan,nan nan,nan nan,nan nan,nan"/>
<text xml:space="preserve" text-anchor="middle" x="172.89" y="7.72" font-family="Helvetica,sans-Serif" font-size="18.00">With only one inside vertex, the inside region must split into faces ABD, BCD, and CAD.</text>
</g>
</g>
</svg>
