<?xml version="1.0" encoding="UTF-8" standalone="no"?>
<!DOCTYPE svg PUBLIC "-//W3C//DTD SVG 1.1//EN"
 "http://www.w3.org/Graphics/SVG/1.1/DTD/svg11.dtd">
<!-- Generated by graphviz version 14.1.3 (20260303.0454)
 -->
<!-- Title: G Pages: 1 -->
<svg width="824pt" height="534pt"
 viewBox="0.00 0.00 824.00 534.00" xmlns="http://www.w3.org/2000/svg" xmlns:xlink="http://www.w3.org/1999/xlink">
<g id="graph0" class="graph" transform="scale(1 1) rotate(0) translate(239.06 508.75)">
<title>G</title>
<polygon fill="white" stroke="none" points="-239.06,25.2 -239.06,-508.75 584.84,-508.75 584.84,25.2 -239.06,25.2"/>
<text xml:space="preserve" text-anchor="middle" x="172.89" y="-460.55" font-family="Helvetica,sans-Serif" font-size="20.00">Quarantine Zone setup: one concrete maximal planar graph satisfying the stated rules</text>
<text xml:space="preserve" text-anchor="middle" x="172.89" y="-439.55" font-family="Helvetica,sans-Serif" font-size="20.00">ABC is a separating triangle, D is inside, and E,F are outside.</text>
<!-- A&#45;&#45;B -->
<g id="edge1" class="edge">
<title>A&#45;&#45;B</title>
<path fill="none" stroke="#f59e0b" stroke-width="3.8" d="M44.98,-51.31C72.8,-89.58 127.98,-165.44 155.88,-203.81"/>
</g>
<!-- B&#45;&#45;C -->
<g id="edge2" class="edge">
<title>B&#45;&#45;C</title>
<path fill="none" stroke="#f59e0b" stroke-width="3.8" d="M189.79,-203.97C217.62,-165.7 272.79,-89.84 300.69,-51.47"/>
</g>
<!-- C&#45;&#45;A -->
<g id="edge3" class="edge">
<title>C&#45;&#45;A</title>
<path fill="none" stroke="#f59e0b" stroke-width="3.8" d="M288.88,-28.08C233.36,-28.08 112.22,-28.08 56.79,-28.08"/>
</g>
<!-- D&#45;&#45;A -->
<g id="edge4" class="edge">
<title>D&#45;&#45;A</title>
<path fill="none" stroke="#64748b" stroke-width="2.2" d="M148,-97.44C121.47,-82.1 79.72,-57.95 53.13,-42.57"/>
</g>
<!-- D&#45;&#45;B -->
<g id="edge5" class="edge">
<title>D&#45;&#45;B</title>
<path fill="none" stroke="#64748b" stroke-width="2.2" d="M172.89,-140.65C172.89,-158.27 172.89,-180.73 172.89,-198.35"/>
</g>
<!-- D&#45;&#45;C -->
<g id="edge6" class="edge">
<title>D&#45;&#45;C</title>
<path fill="none" stroke="#64748b" stroke-width="2.2" d="M197.79,-97.44C224.31,-82.1 266.07,-57.95 292.65,-42.57"/>
</g>
<!-- E&#45;&#45;A -->
<g id="edge7" class="edge">
<title>E&#45;&#45;A</title>
<path fill="none" stroke="#64748b" stroke-width="2.2" d="M170.13,-345.59C141.49,-281.57 68.62,-118.7 39.94,-54.59"/>
</g>
<!-- E&#45;&#45;B -->
<g id="edge8" class="edge">
<title>E&#45;&#45;B</title>
<path fill="none" stroke="#64748b" stroke-width="2.2" d="M180.13,-343.05C178.55,-317.8 176.28,-281.35 174.7,-256.1"/>
</g>
<!-- E&#45;&#45;C -->
<g id="edge9" class="edge">
<title>E&#45;&#45;C</title>
<path fill="none" stroke="#64748b" stroke-width="2.2" d="M192.6,-345.02C217.97,-280.73 281.77,-119.11 307.1,-54.94"/>
</g>
<!-- F&#45;&#45;A -->
<g id="edge10" class="edge">
<title>F&#45;&#45;A</title>
<path fill="none" stroke="#64748b" stroke-width="2.2" d="M39.96,-230.11C37.36,-185.76 32.38,-101.19 29.77,-56.84"/>
</g>
<!-- F&#45;&#45;B -->
<g id="edge11" class="edge">
<title>F&#45;&#45;B</title>
<path fill="none" stroke="#64748b" stroke-width="2.2" d="M69.81,-252.08C91.95,-246.73 122.65,-239.32 144.79,-233.98"/>
</g>
<!-- F&#45;&#45;E -->
<g id="edge12" class="edge">
<title>F&#45;&#45;E</title>
<path fill="none" stroke="#64748b" stroke-width="2.2" d="M64.2,-277.05C90.37,-298.16 133.3,-332.78 159.46,-353.88"/>
</g>
<!-- A -->
<g id="node1" class="node">
<title>A</title>
<ellipse fill="#fed7aa" stroke="#ea580c" stroke-width="2" cx="28.08" cy="-28.08" rx="28.08" ry="28.08"/>
<text xml:space="preserve" text-anchor="middle" x="28.08" y="-20.35" font-family="Helvetica,sans-Serif" font-size="18.00">A</text>
</g>
<!-- B -->
<g id="node2" class="node">
<title>B</title>
<ellipse fill="#fed7aa" stroke="#ea580c" stroke-width="2" cx="172.89" cy="-227.2" rx="28.08" ry="28.08"/>
<text xml:space="preserve" text-anchor="middle" x="172.89" y="-219.47" font-family="Helvetica,sans-Serif" font-size="18.00">B</text>
</g>
<!-- C -->
<g id="node3" class="node">
<title>C</title>
<ellipse fill="#fed7aa" stroke="#ea580c" stroke-width="2" cx="317.7" cy="-28.08" rx="28.08" ry="28.08"/>
<text xml:space="preserve" text-anchor="middle" x="317.7" y="-20.35" font-family="Helvetica,sans-Serif" font-size="18.00">C</text>
</g>
<!-- D -->
<g id="node4" class="node">
<title>D</title>
<ellipse fill="#dbeafe" stroke="#2563eb" stroke-width="2" cx="172.89" cy="-111.84" rx="28.08" ry="28.08"/>
<text xml:space="preserve" text-anchor="middle" x="172.89" y="-104.12" font-family="Helvetica,sans-Serif" font-size="18.00">D</text>
</g>
<!-- E -->
<g id="node5" class="node">
<title>E</title>
<ellipse fill="#dcfce7" stroke="#16a34a" stroke-width="2" cx="181.94" cy="-372.01" rx="28.08" ry="28.08"/>
<text xml:space="preserve" text-anchor="middle" x="181.94" y="-364.28" font-family="Helvetica,sans-Serif" font-size="18.00">E</text>
</g>
<!-- F -->
<g id="node6" class="node">
<title>F</title>
<ellipse fill="#dcfce7" stroke="#16a34a" stroke-width="2" cx="41.66" cy="-258.87" rx="28.08" ry="28.08"/>
<text xml:space="preserve" text-anchor="middle" x="41.66" y="-251.15" font-family="Helvetica,sans-Serif" font-size="18.00">F</text>
</g>
<!-- inside_note -->
<g id="node7" class="node">
<title>inside_note</title>
<polygon fill="lightgrey" stroke="none" stroke-width="2" points="nan,nan nan,nan nan,nan nan,nan nan,nan"/>
<text xml:space="preserve" text-anchor="middle" x="172.89" y="-140.23" font-family="Helvetica,sans-Serif" font-size="18.00">inside of triangle ABC</text>
</g>
<!-- outside_note -->
<g id="node8" class="node">
<title>outside_note</title>
<polygon fill="lightgrey" stroke="none" stroke-width="2" points="nan,nan nan,nan nan,nan nan,nan nan,nan"/>
<text xml:space="preserve" text-anchor="middle" x="186.47" y="-425.83" font-family="Helvetica,sans-Serif" font-size="18.00">outside of triangle ABC</text>
</g>
</g>
</svg>
