<?xml version="1.0" encoding="UTF-8" standalone="no"?>
<!DOCTYPE svg PUBLIC "-//W3C//DTD SVG 1.1//EN"
 "http://www.w3.org/Graphics/SVG/1.1/DTD/svg11.dtd">
<!-- Generated by graphviz version 14.1.3 (20260303.0454)
 -->
<!-- Title: G Pages: 1 -->
<svg width="705pt" height="204pt"
 viewBox="0.00 0.00 705.00 204.00" xmlns="http://www.w3.org/2000/svg" xmlns:xlink="http://www.w3.org/1999/xlink">
<g id="graph0" class="graph" transform="scale(1 1) rotate(0) translate(25.2 178.45)">
<title>G</title>
<polygon fill="white" stroke="none" points="-25.2,25.2 -25.2,-178.45 679.45,-178.45 679.45,25.2 -25.2,25.2"/>
<text xml:space="preserve" text-anchor="middle" x="327.12" y="-130.25" font-family="Helvetica,sans-Serif" font-size="20.00">Part 1: counting edges and faces in any maximal planar graph with n = 6</text>
<!-- top -->
<g id="node1" class="node">
<title>top</title>
<polygon fill="none" stroke="black" points="105.88,-82.5 105.88,-123.25 259.88,-123.25 259.88,-82.5 105.88,-82.5"/>
<text xml:space="preserve" text-anchor="start" x="116.88" y="-96.15" font-family="Helvetica,sans-Serif" font-weight="bold" font-size="18.00">Known formula</text>
<polygon fill="none" stroke="black" points="259.88,-82.5 259.88,-123.25 417.62,-123.25 417.62,-82.5 259.88,-82.5"/>
<text xml:space="preserve" text-anchor="start" x="270.88" y="-96.15" font-family="Helvetica,sans-Serif" font-weight="bold" font-size="18.00">Substitute n = 6</text>
<polygon fill="none" stroke="black" points="417.62,-82.5 417.62,-123.25 548.38,-123.25 548.38,-82.5 417.62,-82.5"/>
<text xml:space="preserve" text-anchor="start" x="450.75" y="-96.15" font-family="Helvetica,sans-Serif" font-weight="bold" font-size="18.00">Answer</text>
<polygon fill="none" stroke="black" points="105.88,-41.75 105.88,-82.5 259.88,-82.5 259.88,-41.75 105.88,-41.75"/>
<text xml:space="preserve" text-anchor="start" x="142" y="-57.25" font-family="Helvetica,sans-Serif" font-size="18.00">m = 3n &#45; 6</text>
<polygon fill="none" stroke="black" points="259.88,-41.75 259.88,-82.5 417.62,-82.5 417.62,-41.75 259.88,-41.75"/>
<text xml:space="preserve" text-anchor="start" x="291.88" y="-57.25" font-family="Helvetica,sans-Serif" font-size="18.00">m = 3(6) &#45; 6</text>
<polygon fill="none" stroke="black" points="417.62,-41.75 417.62,-82.5 548.38,-82.5 548.38,-41.75 417.62,-41.75"/>
<text xml:space="preserve" text-anchor="start" x="428.62" y="-57.25" font-family="Helvetica,sans-Serif" font-size="18.00">m = 12 edges</text>
<polygon fill="none" stroke="black" points="105.88,-1 105.88,-41.75 259.88,-41.75 259.88,-1 105.88,-1"/>
<text xml:space="preserve" text-anchor="start" x="146.88" y="-16.5" font-family="Helvetica,sans-Serif" font-size="18.00">f = 2n &#45; 4</text>
<polygon fill="none" stroke="black" points="259.88,-1 259.88,-41.75 417.62,-41.75 417.62,-1 259.88,-1"/>
<text xml:space="preserve" text-anchor="start" x="296.75" y="-16.5" font-family="Helvetica,sans-Serif" font-size="18.00">f = 2(6) &#45; 4</text>
<polygon fill="none" stroke="black" points="417.62,-1 417.62,-41.75 548.38,-41.75 548.38,-1 417.62,-1"/>
<text xml:space="preserve" text-anchor="start" x="441" y="-16.5" font-family="Helvetica,sans-Serif" font-size="18.00">f = 8 faces</text>
<polygon fill="none" stroke="black" points="104.88,0 104.88,-124.25 549.38,-124.25 549.38,0 104.88,0"/>
</g>
</g>
</svg>
