<?xml version="1.0" encoding="UTF-8" standalone="no"?>
<!DOCTYPE svg PUBLIC "-//W3C//DTD SVG 1.1//EN"
 "http://www.w3.org/Graphics/SVG/1.1/DTD/svg11.dtd">
<!-- Generated by graphviz version 14.1.3 (20260303.0454)
 -->
<!-- Title: G Pages: 1 -->
<svg width="549pt" height="593pt"
 viewBox="0.00 0.00 549.00 593.00" xmlns="http://www.w3.org/2000/svg" xmlns:xlink="http://www.w3.org/1999/xlink">
<g id="graph0" class="graph" transform="scale(1 1) rotate(0) translate(84.42 567.57)">
<title>G</title>
<polygon fill="white" stroke="none" points="-84.42,25.2 -84.42,-567.57 464.98,-567.57 464.98,25.2 -84.42,25.2"/>
<text xml:space="preserve" text-anchor="middle" x="190.28" y="-519.37" font-family="Helvetica,sans-Serif" font-size="20.00">Part 3 is false as stated: the ant can succeed</text>
<text xml:space="preserve" text-anchor="middle" x="190.28" y="-498.37" font-family="Helvetica,sans-Serif" font-size="20.00">This valid example has Hamiltonian path D&#45;C&#45;E&#45;F&#45;B&#45;A.</text>
<!-- A&#45;&#45;B -->
<g id="edge1" class="edge">
<title>A&#45;&#45;B</title>
<path fill="none" stroke="#cbd5e1" stroke-width="2" d="M41.34,-104.63C69.79,-149.28 136.07,-240.41 169.88,-281.4"/>
</g>
<!-- A&#45;&#45;B -->
<g id="edge13" class="edge">
<title>A&#45;&#45;B</title>
<path fill="none" stroke="#16a34a" stroke-width="4.2" d="M48.31,-99.57C82.02,-140.39 148.3,-231.51 176.88,-276.31"/>
</g>
<!-- B&#45;&#45;C -->
<g id="edge2" class="edge">
<title>B&#45;&#45;C</title>
<path fill="none" stroke="#cbd5e1" stroke-width="2" d="M207.33,-278.65C238.48,-235.81 304.25,-145.39 335.41,-102.54"/>
</g>
<!-- C&#45;&#45;A -->
<g id="edge3" class="edge">
<title>C&#45;&#45;A</title>
<path fill="none" stroke="#cbd5e1" stroke-width="2" d="M323.4,-79.07C261.66,-79.07 118.11,-79.07 56.74,-79.07"/>
</g>
<!-- D&#45;&#45;A -->
<g id="edge4" class="edge">
<title>D&#45;&#45;A</title>
<path fill="none" stroke="#cbd5e1" stroke-width="2" d="M165.29,-160.54C134.72,-142.39 83.29,-111.85 52.83,-93.77"/>
</g>
<!-- D&#45;&#45;B -->
<g id="edge5" class="edge">
<title>D&#45;&#45;B</title>
<path fill="none" stroke="#cbd5e1" stroke-width="2" d="M190.28,-204.45C190.28,-225.05 190.28,-252.58 190.28,-273.16"/>
</g>
<!-- D&#45;&#45;C -->
<g id="edge6" class="edge">
<title>D&#45;&#45;C</title>
<path fill="none" stroke="#16a34a" stroke-width="4.2" d="M215.27,-160.54C245.83,-142.39 297.27,-111.85 327.73,-93.77"/>
</g>
<!-- E&#45;&#45;A -->
<g id="edge7" class="edge">
<title>E&#45;&#45;A</title>
<path fill="none" stroke="#cbd5e1" stroke-width="2" d="M188.57,-437.81C157.05,-367.35 71.38,-175.86 39.89,-105.48"/>
</g>
<!-- E&#45;&#45;B -->
<g id="edge8" class="edge">
<title>E&#45;&#45;B</title>
<path fill="none" stroke="#cbd5e1" stroke-width="2" d="M198.6,-435.29C196.76,-405.86 193.93,-360.55 192.09,-331.11"/>
</g>
<!-- E&#45;&#45;C -->
<g id="edge9" class="edge">
<title>E&#45;&#45;C</title>
<path fill="none" stroke="#16a34a" stroke-width="4.2" d="M210.99,-437.51C238.84,-366.96 313.99,-176.57 341.87,-105.93"/>
</g>
<!-- F&#45;&#45;A -->
<g id="edge10" class="edge">
<title>F&#45;&#45;A</title>
<path fill="none" stroke="#cbd5e1" stroke-width="2" d="M41.6,-308.92C38.68,-259.23 32.7,-157.63 29.77,-107.85"/>
</g>
<!-- F&#45;&#45;B -->
<g id="edge11" class="edge">
<title>F&#45;&#45;B</title>
<path fill="none" stroke="#16a34a" stroke-width="4.2" d="M71.28,-330.82C97.44,-324.5 136.27,-315.13 162.39,-308.83"/>
</g>
<!-- F&#45;&#45;E -->
<g id="edge12" class="edge">
<title>F&#45;&#45;E</title>
<path fill="none" stroke="#16a34a" stroke-width="4.2" d="M65.8,-355.73C95.67,-379.82 148.09,-422.1 177.94,-446.17"/>
</g>
<!-- A -->
<g id="node1" class="node">
<title>A</title>
<ellipse fill="#fed7aa" stroke="#ea580c" stroke-width="2" cx="28.08" cy="-79.07" rx="28.08" ry="28.08"/>
<text xml:space="preserve" text-anchor="middle" x="28.08" y="-80.72" font-family="Helvetica,sans-Serif" font-size="18.00">A</text>
<text xml:space="preserve" text-anchor="middle" x="28.08" y="-61.97" font-family="Helvetica,sans-Serif" font-size="18.00">6</text>
</g>
<!-- B -->
<g id="node2" class="node">
<title>B</title>
<ellipse fill="#fed7aa" stroke="#ea580c" stroke-width="2" cx="190.28" cy="-302.09" rx="28.08" ry="28.08"/>
<text xml:space="preserve" text-anchor="middle" x="190.28" y="-303.74" font-family="Helvetica,sans-Serif" font-size="18.00">B</text>
<text xml:space="preserve" text-anchor="middle" x="190.28" y="-284.99" font-family="Helvetica,sans-Serif" font-size="18.00">5</text>
</g>
<!-- C -->
<g id="node3" class="node">
<title>C</title>
<ellipse fill="#fed7aa" stroke="#ea580c" stroke-width="2" cx="352.48" cy="-79.07" rx="28.08" ry="28.08"/>
<text xml:space="preserve" text-anchor="middle" x="352.48" y="-80.72" font-family="Helvetica,sans-Serif" font-size="18.00">C</text>
<text xml:space="preserve" text-anchor="middle" x="352.48" y="-61.97" font-family="Helvetica,sans-Serif" font-size="18.00">2</text>
</g>
<!-- D -->
<g id="node4" class="node">
<title>D</title>
<ellipse fill="#dbeafe" stroke="#2563eb" stroke-width="2" cx="190.28" cy="-175.38" rx="28.08" ry="28.08"/>
<text xml:space="preserve" text-anchor="middle" x="190.28" y="-177.03" font-family="Helvetica,sans-Serif" font-size="18.00">D</text>
<text xml:space="preserve" text-anchor="middle" x="190.28" y="-158.28" font-family="Helvetica,sans-Serif" font-size="18.00">1</text>
</g>
<!-- E -->
<g id="node5" class="node">
<title>E</title>
<ellipse fill="#dcfce7" stroke="#16a34a" stroke-width="2" cx="200.42" cy="-464.29" rx="28.08" ry="28.08"/>
<text xml:space="preserve" text-anchor="middle" x="200.42" y="-465.94" font-family="Helvetica,sans-Serif" font-size="18.00">E</text>
<text xml:space="preserve" text-anchor="middle" x="200.42" y="-447.19" font-family="Helvetica,sans-Serif" font-size="18.00">3</text>
</g>
<!-- F -->
<g id="node6" class="node">
<title>F</title>
<ellipse fill="#dcfce7" stroke="#16a34a" stroke-width="2" cx="43.29" cy="-337.57" rx="28.08" ry="28.08"/>
<text xml:space="preserve" text-anchor="middle" x="43.29" y="-339.22" font-family="Helvetica,sans-Serif" font-size="18.00">F</text>
<text xml:space="preserve" text-anchor="middle" x="43.29" y="-320.47" font-family="Helvetica,sans-Serif" font-size="18.00">4</text>
</g>
<!-- note1 -->
<g id="node7" class="node">
<title>note1</title>
<polygon fill="lightgrey" stroke="none" stroke-width="2" points="nan,nan nan,nan nan,nan nan,nan nan,nan"/>
<text xml:space="preserve" text-anchor="middle" x="190.28" y="7.72" font-family="Helvetica,sans-Serif" font-size="18.00">Hamiltonian path: D &#45;&gt; C &#45;&gt; E &#45;&gt; F &#45;&gt; B &#45;&gt; A</text>
</g>
</g>
</svg>
