<?xml version="1.0" encoding="UTF-8" standalone="no"?>
<!DOCTYPE svg PUBLIC "-//W3C//DTD SVG 1.1//EN"
 "http://www.w3.org/Graphics/SVG/1.1/DTD/svg11.dtd">
<!-- Generated by graphviz version 14.1.3 (20260303.0454)
 -->
<!-- Title: G Pages: 1 -->
<svg width="915pt" height="212pt"
 viewBox="0.00 0.00 915.00 212.00" xmlns="http://www.w3.org/2000/svg" xmlns:xlink="http://www.w3.org/1999/xlink">
<g id="graph0" class="graph" transform="scale(1 1) rotate(0) translate(21.6 190.6)">
<title>G</title>
<polygon fill="white" stroke="none" points="-21.6,21.6 -21.6,-190.6 893.6,-190.6 893.6,21.6 -21.6,21.6"/>
<text xml:space="preserve" text-anchor="middle" x="436" y="-146" font-family="Helvetica,sans-Serif" font-size="20.00">Question 1: region&#45;count logic</text>
<!-- t -->
<g id="node1" class="node">
<title>t</title>
<polygon fill="none" stroke="black" points="1,-104.5 1,-139 57.25,-139 57.25,-104.5 1,-104.5"/>
<text xml:space="preserve" text-anchor="start" x="10" y="-117.7" font-family="Times,serif" font-weight="bold" font-size="14.00">Vertex</text>
<polygon fill="none" stroke="black" points="57.25,-104.5 57.25,-139 145.75,-139 145.75,-104.5 57.25,-104.5"/>
<text xml:space="preserve" text-anchor="start" x="66.25" y="-117.7" font-family="Times,serif" font-weight="bold" font-size="14.00">Coordinates</text>
<polygon fill="none" stroke="black" points="145.75,-104.5 145.75,-139 526.75,-139 526.75,-104.5 145.75,-104.5"/>
<text xml:space="preserve" text-anchor="start" x="278.5" y="-117.7" font-family="Times,serif" font-weight="bold" font-size="14.00">Mechanical reading</text>
<polygon fill="none" stroke="black" points="526.75,-104.5 526.75,-139 871,-139 871,-104.5 526.75,-104.5"/>
<text xml:space="preserve" text-anchor="start" x="634" y="-117.7" font-family="Times,serif" font-weight="bold" font-size="14.00">Forced outgoing edges</text>
<polygon fill="none" stroke="black" points="1,-70 1,-104.5 57.25,-104.5 57.25,-70 1,-70"/>
<text xml:space="preserve" text-anchor="start" x="22.38" y="-83.2" font-family="Times,serif" font-weight="bold" font-size="14.00">v2</text>
<polygon fill="none" stroke="black" points="57.25,-70 57.25,-104.5 145.75,-104.5 145.75,-70 57.25,-70"/>
<text xml:space="preserve" text-anchor="start" x="83.12" y="-82.75" font-family="Times,serif" font-size="14.00">(3,1,1)</text>
<polygon fill="none" stroke="black" points="145.75,-70 145.75,-104.5 526.75,-104.5 526.75,-70 145.75,-70"/>
<text xml:space="preserve" text-anchor="start" x="154.75" y="-82.75" font-family="Times,serif" font-size="14.00">The red side sees v1 twice; green and blue do not see it.</text>
<polygon fill="none" stroke="black" points="526.75,-70 526.75,-104.5 871,-104.5 871,-70 526.75,-70"/>
<text xml:space="preserve" text-anchor="start" x="535.75" y="-82.75" font-family="Times,serif" font-size="14.00">v2 goes directly to Red, Green, Blue.</text>
<polygon fill="none" stroke="black" points="1,-35.5 1,-70 57.25,-70 57.25,-35.5 1,-35.5"/>
<text xml:space="preserve" text-anchor="start" x="22.38" y="-48.7" font-family="Times,serif" font-weight="bold" font-size="14.00">v1</text>
<polygon fill="none" stroke="black" points="57.25,-35.5 57.25,-70 145.75,-70 145.75,-35.5 57.25,-35.5"/>
<text xml:space="preserve" text-anchor="start" x="83.12" y="-48.25" font-family="Times,serif" font-size="14.00">(1,2,2)</text>
<polygon fill="none" stroke="black" points="145.75,-35.5 145.75,-70 526.75,-70 526.75,-35.5 145.75,-35.5"/>
<text xml:space="preserve" text-anchor="start" x="154.75" y="-48.25" font-family="Times,serif" font-size="14.00">v2 contributes on the green and blue sides, but not on the red side.</text>
<polygon fill="none" stroke="black" points="526.75,-35.5 526.75,-70 871,-70 871,-35.5 526.75,-35.5"/>
<text xml:space="preserve" text-anchor="start" x="535.75" y="-48.25" font-family="Times,serif" font-size="14.00">v1 goes directly to Green and Blue, and its red parent is v2.</text>
<polygon fill="none" stroke="black" points="1,-1 1,-35.5 871,-35.5 871,-1 1,-1"/>
<text xml:space="preserve" text-anchor="start" x="10" y="-14.2" font-family="Times,serif" font-weight="bold" font-size="14.00">Conclusion:</text>
<text xml:space="preserve" text-anchor="start" x="79" y="-14.2" font-family="Times,serif" font-size="14.00"> the internal edge is a red edge directed v1 &#45;&gt; v2, and the only missing primal edge is v1&#45;Red.</text>
<polygon fill="none" stroke="black" points="0,0 0,-140 872,-140 872,0 0,0"/>
</g>
</g>
</svg>
