<?xml version="1.0" encoding="UTF-8" standalone="no"?>
<!DOCTYPE svg PUBLIC "-//W3C//DTD SVG 1.1//EN"
 "http://www.w3.org/Graphics/SVG/1.1/DTD/svg11.dtd">
<!-- Generated by graphviz version 14.1.3 (20260303.0454)
 -->
<!-- Title: G Pages: 1 -->
<svg width="635pt" height="605pt"
 viewBox="0.00 0.00 635.00 605.00" xmlns="http://www.w3.org/2000/svg" xmlns:xlink="http://www.w3.org/1999/xlink">
<g id="graph0" class="graph" transform="scale(1 1) rotate(0) translate(21.6 583.8)">
<title>G</title>
<polygon fill="white" stroke="none" points="-21.6,21.6 -21.6,-583.8 613.04,-583.8 613.04,21.6 -21.6,21.6"/>
<text xml:space="preserve" text-anchor="middle" x="295.72" y="-539.2" font-family="Helvetica,sans-Serif" font-size="20.00">Question 1: reconstructed Schnyder wood</text>
<!-- R&#45;&gt;G -->
<g id="edge1" class="edge">
<title>R&#45;&gt;G</title>
<path fill="none" stroke="#94a3b8" stroke-width="2" d="M276.75,-461.75C229.06,-377.13 104.52,-156.18 56.79,-71.5"/>
</g>
<!-- G&#45;&gt;B -->
<g id="edge2" class="edge">
<title>G&#45;&gt;B</title>
<path fill="none" stroke="#94a3b8" stroke-width="2" d="M76.57,-37.8C172.4,-37.8 419.56,-37.8 515.12,-37.8"/>
</g>
<!-- B&#45;&gt;R -->
<g id="edge3" class="edge">
<title>B&#45;&gt;R</title>
<path fill="none" stroke="#94a3b8" stroke-width="2" d="M534.68,-71.45C486.98,-156.07 362.44,-377.03 314.71,-461.7"/>
</g>
<!-- v1&#45;&gt;G -->
<g id="edge7" class="edge">
<title>v1&#45;&gt;G</title>
<path fill="none" stroke="#16a34a" stroke-width="2.6" d="M263.32,-183.29C217.18,-153.53 132.47,-98.88 81.03,-65.69"/>
<polygon fill="#16a34a" stroke="#16a34a" stroke-width="2.6" points="82.85,-63.12 73.58,-60.88 79.44,-68.41 82.85,-63.12"/>
<text xml:space="preserve" text-anchor="middle" x="149.48" y="-122.13" font-family="Helvetica,sans-Serif" font-size="13.00" fill="#16a34a">green</text>
</g>
<!-- v1&#45;&gt;B -->
<g id="edge9" class="edge">
<title>v1&#45;&gt;B</title>
<path fill="none" stroke="#2563eb" stroke-width="2.6" d="M328.13,-183.29C374.26,-153.53 458.97,-98.88 510.41,-65.69"/>
<polygon fill="#2563eb" stroke="#2563eb" stroke-width="2.6" points="512,-68.41 517.86,-60.88 508.59,-63.12 512,-68.41"/>
<text xml:space="preserve" text-anchor="middle" x="411.96" y="-122.13" font-family="Helvetica,sans-Serif" font-size="13.00" fill="#2563eb">blue</text>
</g>
<!-- v1&#45;&gt;v2 -->
<g id="edge5" class="edge">
<title>v1&#45;&gt;v2</title>
<path fill="none" stroke="#dc2626" stroke-width="2.6" d="M295.72,-242.94C295.72,-248.69 295.72,-254.69 295.72,-260.65"/>
<polygon fill="#dc2626" stroke="#dc2626" stroke-width="2.6" points="292.57,-260.59 295.72,-269.59 298.87,-260.59 292.57,-260.59"/>
<text xml:space="preserve" text-anchor="middle" x="285.97" y="-259" font-family="Helvetica,sans-Serif" font-size="13.00" fill="#dc2626">red</text>
</g>
<!-- v2&#45;&gt;R -->
<g id="edge4" class="edge">
<title>v2&#45;&gt;R</title>
<path fill="none" stroke="#dc2626" stroke-width="2.6" d="M295.72,-351.18C295.72,-378.24 295.72,-414.62 295.72,-444.07"/>
<polygon fill="#dc2626" stroke="#dc2626" stroke-width="2.6" points="292.57,-443.7 295.72,-452.7 298.87,-443.7 292.57,-443.7"/>
<text xml:space="preserve" text-anchor="middle" x="285.97" y="-405.09" font-family="Helvetica,sans-Serif" font-size="13.00" fill="#dc2626">red</text>
</g>
<!-- v2&#45;&gt;G -->
<g id="edge6" class="edge">
<title>v2&#45;&gt;G</title>
<path fill="none" stroke="#16a34a" stroke-width="2.6" d="M269.33,-284.27C222.6,-234.53 125.32,-130.97 72.96,-75.23"/>
<polygon fill="#16a34a" stroke="#16a34a" stroke-width="2.6" points="75.5,-73.33 67.04,-68.93 70.91,-77.64 75.5,-73.33"/>
<text xml:space="preserve" text-anchor="middle" x="149.55" y="-176.27" font-family="Helvetica,sans-Serif" font-size="13.00" fill="#16a34a">green</text>
</g>
<!-- v2&#45;&gt;B -->
<g id="edge8" class="edge">
<title>v2&#45;&gt;B</title>
<path fill="none" stroke="#2563eb" stroke-width="2.6" d="M322.11,-284.27C368.84,-234.53 466.12,-130.97 518.48,-75.23"/>
<polygon fill="#2563eb" stroke="#2563eb" stroke-width="2.6" points="520.53,-77.64 524.4,-68.93 515.94,-73.33 520.53,-77.64"/>
<text xml:space="preserve" text-anchor="middle" x="411.89" y="-176.27" font-family="Helvetica,sans-Serif" font-size="13.00" fill="#2563eb">blue</text>
</g>
<!-- R -->
<g id="node1" class="node">
<title>R</title>
<ellipse fill="#fee2e2" stroke="#dc2626" stroke-width="2.1" cx="295.72" cy="-495.4" rx="37.8" ry="37.8"/>
<text xml:space="preserve" text-anchor="middle" x="295.72" y="-489.03" font-family="Helvetica,sans-Serif" font-size="15.00">Red</text>
</g>
<!-- G -->
<g id="node2" class="node">
<title>G</title>
<ellipse fill="#dcfce7" stroke="#16a34a" stroke-width="2.1" cx="37.8" cy="-37.8" rx="37.8" ry="37.8"/>
<text xml:space="preserve" text-anchor="middle" x="37.8" y="-31.43" font-family="Helvetica,sans-Serif" font-size="15.00">Green</text>
</g>
<!-- B -->
<g id="node3" class="node">
<title>B</title>
<ellipse fill="#dbeafe" stroke="#2563eb" stroke-width="2.1" cx="553.64" cy="-37.8" rx="37.8" ry="37.8"/>
<text xml:space="preserve" text-anchor="middle" x="553.64" y="-31.43" font-family="Helvetica,sans-Serif" font-size="15.00">Blue</text>
</g>
<!-- v1 -->
<g id="node4" class="node">
<title>v1</title>
<ellipse fill="#f8fafc" stroke="#475569" stroke-width="2.1" cx="295.72" cy="-204.2" rx="37.8" ry="37.8"/>
<text xml:space="preserve" text-anchor="middle" x="295.72" y="-205.7" font-family="Helvetica,sans-Serif" font-size="15.00">v1</text>
<text xml:space="preserve" text-anchor="middle" x="295.72" y="-189.95" font-family="Helvetica,sans-Serif" font-size="15.00">(1,2,2)</text>
</g>
<!-- v2 -->
<g id="node5" class="node">
<title>v2</title>
<ellipse fill="#f8fafc" stroke="#475569" stroke-width="2.1" cx="295.72" cy="-312.36" rx="37.8" ry="37.8"/>
<text xml:space="preserve" text-anchor="middle" x="295.72" y="-313.86" font-family="Helvetica,sans-Serif" font-size="15.00">v2</text>
<text xml:space="preserve" text-anchor="middle" x="295.72" y="-298.11" font-family="Helvetica,sans-Serif" font-size="15.00">(3,1,1)</text>
</g>
</g>
</svg>
