<?xml version="1.0" encoding="UTF-8" standalone="no"?>
<!DOCTYPE svg PUBLIC "-//W3C//DTD SVG 1.1//EN"
 "http://www.w3.org/Graphics/SVG/1.1/DTD/svg11.dtd">
<!-- Generated by graphviz version 14.1.3 (20260303.0454)
 -->
<!-- Title: G Pages: 1 -->
<svg width="313pt" height="288pt"
 viewBox="0.00 0.00 313.00 288.00" xmlns="http://www.w3.org/2000/svg" xmlns:xlink="http://www.w3.org/1999/xlink">
<g id="graph0" class="graph" transform="scale(1 1) rotate(0) translate(25.2 263.2)">
<title>G</title>
<polygon fill="white" stroke="none" points="-25.2,25.2 -25.2,-263.2 287.95,-263.2 287.95,25.2 -25.2,25.2"/>
<text xml:space="preserve" text-anchor="middle" x="131.38" y="-215" font-family="Helvetica,sans-Serif" font-size="20.00">Step 1: after matching r4&#45;b4</text>
<!-- t -->
<g id="node1" class="node">
<title>t</title>
<polygon fill="none" stroke="black" points="27.12,-173.5 27.12,-208 109.62,-208 109.62,-173.5 27.12,-173.5"/>
<polygon fill="none" stroke="black" points="109.62,-173.5 109.62,-208 235.62,-208 235.62,-173.5 109.62,-173.5"/>
<text xml:space="preserve" text-anchor="start" x="137.75" y="-186.7" font-family="Times,serif" font-weight="bold" font-size="14.00">blue heights</text>
<polygon fill="none" stroke="black" points="27.12,-139 27.12,-173.5 109.62,-173.5 109.62,-139 27.12,-139"/>
<text xml:space="preserve" text-anchor="start" x="36.12" y="-152.2" font-family="Times,serif" font-weight="bold" font-size="14.00">red heights</text>
<polygon fill="none" stroke="black" points="109.62,-139 109.62,-173.5 141.12,-173.5 141.12,-139 109.62,-139"/>
<text xml:space="preserve" text-anchor="start" x="122" y="-151.75" font-family="Times,serif" font-size="14.00">5</text>
<polygon fill="none" stroke="black" points="141.12,-139 141.12,-173.5 172.62,-173.5 172.62,-139 141.12,-139"/>
<text xml:space="preserve" text-anchor="start" x="153.5" y="-151.75" font-family="Times,serif" font-size="14.00">9</text>
<polygon fill="none" stroke="black" points="172.62,-139 172.62,-173.5 204.12,-173.5 204.12,-139 172.62,-139"/>
<text xml:space="preserve" text-anchor="start" x="185" y="-151.75" font-family="Times,serif" font-size="14.00">3</text>
<polygon fill="none" stroke="black" points="204.12,-139 204.12,-173.5 235.62,-173.5 235.62,-139 204.12,-139"/>
<text xml:space="preserve" text-anchor="start" x="216.5" y="-151.75" font-family="Times,serif" font-size="14.00">1</text>
<polygon fill="none" stroke="black" points="27.12,-104.5 27.12,-139 109.62,-139 109.62,-104.5 27.12,-104.5"/>
<text xml:space="preserve" text-anchor="start" x="65" y="-117.25" font-family="Times,serif" font-size="14.00">0</text>
<polygon fill="none" stroke="black" points="109.62,-104.5 109.62,-139 141.12,-139 141.12,-104.5 109.62,-104.5"/>
<text xml:space="preserve" text-anchor="start" x="122" y="-117.25" font-family="Times,serif" font-size="14.00">0</text>
<polygon fill="none" stroke="black" points="141.12,-104.5 141.12,-139 172.62,-139 172.62,-104.5 141.12,-104.5"/>
<text xml:space="preserve" text-anchor="start" x="153.5" y="-117.25" font-family="Times,serif" font-size="14.00">0</text>
<polygon fill="none" stroke="black" points="172.62,-104.5 172.62,-139 204.12,-139 204.12,-104.5 172.62,-104.5"/>
<text xml:space="preserve" text-anchor="start" x="181.62" y="-117.25" font-family="Times,serif" font-size="14.00">14</text>
<polygon fill="none" stroke="black" points="204.12,-104.5 204.12,-139 235.62,-139 235.62,-104.5 204.12,-104.5"/>
<text xml:space="preserve" text-anchor="start" x="213.12" y="-117.25" font-family="Times,serif" font-size="14.00">20</text>
<polygon fill="none" stroke="black" points="27.12,-70 27.12,-104.5 109.62,-104.5 109.62,-70 27.12,-70"/>
<text xml:space="preserve" text-anchor="start" x="65" y="-82.75" font-family="Times,serif" font-size="14.00">0</text>
<polygon fill="none" stroke="black" points="109.62,-70 109.62,-104.5 141.12,-104.5 141.12,-70 109.62,-70"/>
<text xml:space="preserve" text-anchor="start" x="122" y="-82.75" font-family="Times,serif" font-size="14.00">3</text>
<polygon fill="none" stroke="black" points="141.12,-70 141.12,-104.5 172.62,-104.5 172.62,-70 141.12,-70"/>
<text xml:space="preserve" text-anchor="start" x="153.5" y="-82.75" font-family="Times,serif" font-size="14.00">3</text>
<polygon fill="none" stroke="black" points="172.62,-70 172.62,-104.5 204.12,-104.5 204.12,-70 172.62,-70"/>
<text xml:space="preserve" text-anchor="start" x="181.62" y="-82.75" font-family="Times,serif" font-size="14.00">22</text>
<polygon fill="none" stroke="black" points="204.12,-70 204.12,-104.5 235.62,-104.5 235.62,-70 204.12,-70"/>
<text xml:space="preserve" text-anchor="start" x="213.12" y="-82.75" font-family="Times,serif" font-size="14.00">17</text>
<polygon fill="none" stroke="black" points="27.12,-35.5 27.12,-70 109.62,-70 109.62,-35.5 27.12,-35.5"/>
<text xml:space="preserve" text-anchor="start" x="65" y="-48.25" font-family="Times,serif" font-size="14.00">0</text>
<polygon fill="none" stroke="black" points="109.62,-35.5 109.62,-70 141.12,-70 141.12,-35.5 109.62,-35.5"/>
<text xml:space="preserve" text-anchor="start" x="122" y="-48.25" font-family="Times,serif" font-size="14.00">9</text>
<polygon fill="none" stroke="black" points="141.12,-35.5 141.12,-70 172.62,-70 172.62,-35.5 141.12,-35.5"/>
<text xml:space="preserve" text-anchor="start" x="150.12" y="-48.25" font-family="Times,serif" font-size="14.00">14</text>
<polygon fill="none" stroke="black" points="172.62,-35.5 172.62,-70 204.12,-70 204.12,-35.5 172.62,-35.5"/>
<text xml:space="preserve" text-anchor="start" x="181.62" y="-48.25" font-family="Times,serif" font-size="14.00">12</text>
<polygon fill="none" stroke="black" points="204.12,-35.5 204.12,-70 235.62,-70 235.62,-35.5 204.12,-35.5"/>
<text xml:space="preserve" text-anchor="start" x="216.5" y="-48.25" font-family="Times,serif" font-size="14.00">5</text>
<polygon fill="none" stroke="black" points="27.12,-1 27.12,-35.5 109.62,-35.5 109.62,-1 27.12,-1"/>
<text xml:space="preserve" text-anchor="start" x="65" y="-13.75" font-family="Times,serif" font-size="14.00">0</text>
<polygon fill="none" stroke="black" points="109.62,-1 109.62,-35.5 141.12,-35.5 141.12,-1 109.62,-1"/>
<text xml:space="preserve" text-anchor="start" x="118.62" y="-13.75" font-family="Times,serif" font-size="14.00">14</text>
<polygon fill="none" stroke="black" points="141.12,-1 141.12,-35.5 172.62,-35.5 172.62,-1 141.12,-1"/>
<text xml:space="preserve" text-anchor="start" x="153.5" y="-13.75" font-family="Times,serif" font-size="14.00">7</text>
<polygon fill="none" stroke="black" points="172.62,-1 172.62,-35.5 204.12,-35.5 204.12,-1 172.62,-1"/>
<text xml:space="preserve" text-anchor="start" x="185" y="-13.75" font-family="Times,serif" font-size="14.00">0</text>
<polygon fill="none" stroke="black" points="204.12,-1 204.12,-35.5 235.62,-35.5 235.62,-1 204.12,-1"/>
<text xml:space="preserve" text-anchor="start" x="216.5" y="-13.75" font-family="Times,serif" font-size="14.00">0</text>
<polygon fill="none" stroke="black" points="26.12,0 26.12,-209 236.62,-209 236.62,0 26.12,0"/>
</g>
</g>
</svg>
