<?xml version="1.0" encoding="UTF-8" standalone="no"?>
<!DOCTYPE svg PUBLIC "-//W3C//DTD SVG 1.1//EN"
 "http://www.w3.org/Graphics/SVG/1.1/DTD/svg11.dtd">
<!-- Generated by graphviz version 14.1.3 (20260303.0454)
 -->
<!-- Title: G Pages: 1 -->
<svg width="545pt" height="440pt"
 viewBox="0.00 0.00 545.00 440.00" xmlns="http://www.w3.org/2000/svg" xmlns:xlink="http://www.w3.org/1999/xlink">
<g id="graph0" class="graph" transform="scale(1 1) rotate(0) translate(25.2 414.88)">
<title>G</title>
<polygon fill="white" stroke="none" points="-25.2,25.2 -25.2,-414.88 519.94,-414.88 519.94,25.2 -25.2,25.2"/>
<text xml:space="preserve" text-anchor="middle" x="247.37" y="-366.68" font-family="Helvetica,sans-Serif" font-size="20.00">Step 1: shortest path is s &#45;&gt; r1 &#45;&gt; b1</text>
<!-- s&#45;&gt;r1 -->
<g id="edge1" class="edge">
<title>s&#45;&gt;r1</title>
<path fill="none" stroke="#16a34a" stroke-width="3.6" stroke-dasharray="5,2" d="M50.21,-151.97C83.87,-187.61 150.63,-258.3 189.48,-299.44"/>
<polygon fill="#16a34a" stroke="#16a34a" stroke-width="3.6" points="187.22,-301.12 194.75,-305.01 191.29,-297.27 187.22,-301.12"/>
<text xml:space="preserve" text-anchor="middle" x="120.12" y="-231.86" font-family="Helvetica,sans-Serif" font-size="15.00" fill="#16a34a">0</text>
</g>
<!-- s&#45;&gt;r2 -->
<g id="edge2" class="edge">
<title>s&#45;&gt;r2</title>
<path fill="none" stroke="#cbd5e1" stroke-width="2" stroke-dasharray="5,2" d="M56.33,-144.26C89.55,-161.85 146.31,-191.9 183.34,-211.5"/>
<polygon fill="#cbd5e1" stroke="#cbd5e1" stroke-width="2" points="181.71,-213.81 190.09,-215.07 184.33,-208.86 181.71,-213.81"/>
<text xml:space="preserve" text-anchor="middle" x="120.21" y="-181.76" font-family="Helvetica,sans-Serif" font-size="15.00" fill="#0f172a">0</text>
</g>
<!-- s&#45;&gt;r3 -->
<g id="edge3" class="edge">
<title>s&#45;&gt;r3</title>
<path fill="none" stroke="#cbd5e1" stroke-width="2" stroke-dasharray="5,2" d="M60.03,-130.07C92.01,-130.07 142.46,-130.07 178.02,-130.07"/>
<polygon fill="#cbd5e1" stroke="#cbd5e1" stroke-width="2" points="177.97,-132.87 185.97,-130.07 177.97,-127.27 177.97,-132.87"/>
<text xml:space="preserve" text-anchor="middle" x="120.48" y="-131.57" font-family="Helvetica,sans-Serif" font-size="15.00" fill="#0f172a">0</text>
</g>
<!-- s&#45;&gt;r4 -->
<g id="edge4" class="edge">
<title>s&#45;&gt;r4</title>
<path fill="none" stroke="#cbd5e1" stroke-width="2" stroke-dasharray="5,2" d="M56.33,-115.87C89.55,-98.28 146.31,-68.24 183.34,-48.63"/>
<polygon fill="#cbd5e1" stroke="#cbd5e1" stroke-width="2" points="184.33,-51.27 190.09,-45.06 181.71,-46.33 184.33,-51.27"/>
<text xml:space="preserve" text-anchor="middle" x="120.21" y="-81.37" font-family="Helvetica,sans-Serif" font-size="15.00" fill="#0f172a">0</text>
</g>
<!-- r1&#45;&gt;b1 -->
<g id="edge5" class="edge">
<title>r1&#45;&gt;b1</title>
<path fill="none" stroke="#16a34a" stroke-width="3.6" d="M249.58,-331.16C292.6,-331.16 371.89,-331.16 421.41,-331.16"/>
<polygon fill="#16a34a" stroke="#16a34a" stroke-width="3.6" points="421.38,-333.96 429.38,-331.16 421.38,-328.36 421.38,-333.96"/>
<text xml:space="preserve" text-anchor="middle" x="338.14" y="-332.66" font-family="Helvetica,sans-Serif" font-size="15.00" fill="#16a34a">0</text>
</g>
<!-- b4&#45;&gt;r4 -->
<g id="edge6" class="edge">
<title>b4&#45;&gt;r4</title>
<path fill="none" stroke="#334155" stroke-width="3" d="M435.08,-29.52C391.78,-29.52 311.74,-29.52 262.3,-29.52"/>
<polygon fill="#334155" stroke="#334155" stroke-width="3" points="262.36,-26.72 254.36,-29.52 262.36,-32.32 262.36,-26.72"/>
<text xml:space="preserve" text-anchor="middle" x="338.34" y="-31.02" font-family="Helvetica,sans-Serif" font-size="15.00" fill="#334155">0</text>
</g>
<!-- s -->
<g id="node1" class="node">
<title>s</title>
<ellipse fill="#fef3c7" stroke="#d97706" stroke-width="2" cx="29.52" cy="-130.07" rx="29.52" ry="29.52"/>
<text xml:space="preserve" text-anchor="middle" x="29.52" y="-122.92" font-family="Helvetica,sans-Serif" font-size="17.00">s</text>
</g>
<!-- r1 -->
<g id="node2" class="node">
<title>r1</title>
<ellipse fill="#dbeafe" stroke="#2563eb" stroke-width="2" cx="219.44" cy="-331.16" rx="29.52" ry="29.52"/>
<text xml:space="preserve" text-anchor="middle" x="219.44" y="-333.01" font-family="Helvetica,sans-Serif" font-size="17.00">r1</text>
<text xml:space="preserve" text-anchor="middle" x="219.44" y="-315.01" font-family="Helvetica,sans-Serif" font-size="17.00">0</text>
</g>
<!-- r2 -->
<g id="node3" class="node">
<title>r2</title>
<ellipse fill="#dbeafe" stroke="#2563eb" stroke-width="2" cx="219.44" cy="-230.61" rx="29.52" ry="29.52"/>
<text xml:space="preserve" text-anchor="middle" x="219.44" y="-232.46" font-family="Helvetica,sans-Serif" font-size="17.00">r2</text>
<text xml:space="preserve" text-anchor="middle" x="219.44" y="-214.46" font-family="Helvetica,sans-Serif" font-size="17.00">0</text>
</g>
<!-- r3 -->
<g id="node4" class="node">
<title>r3</title>
<ellipse fill="#dbeafe" stroke="#2563eb" stroke-width="2" cx="219.44" cy="-130.07" rx="29.52" ry="29.52"/>
<text xml:space="preserve" text-anchor="middle" x="219.44" y="-131.92" font-family="Helvetica,sans-Serif" font-size="17.00">r3</text>
<text xml:space="preserve" text-anchor="middle" x="219.44" y="-113.92" font-family="Helvetica,sans-Serif" font-size="17.00">0</text>
</g>
<!-- r4 -->
<g id="node5" class="node">
<title>r4</title>
<ellipse fill="#dbeafe" stroke="#2563eb" stroke-width="2" cx="219.44" cy="-29.52" rx="29.52" ry="29.52"/>
<text xml:space="preserve" text-anchor="middle" x="219.44" y="-31.37" font-family="Helvetica,sans-Serif" font-size="17.00">r4</text>
<text xml:space="preserve" text-anchor="middle" x="219.44" y="-13.37" font-family="Helvetica,sans-Serif" font-size="17.00">5</text>
</g>
<!-- b1 -->
<g id="node6" class="node">
<title>b1</title>
<ellipse fill="#ffedd5" stroke="#ea580c" stroke-width="2" cx="465.22" cy="-331.16" rx="29.52" ry="29.52"/>
<text xml:space="preserve" text-anchor="middle" x="465.22" y="-333.01" font-family="Helvetica,sans-Serif" font-size="17.00">b1</text>
<text xml:space="preserve" text-anchor="middle" x="465.22" y="-315.01" font-family="Helvetica,sans-Serif" font-size="17.00">0</text>
</g>
<!-- b2 -->
<g id="node7" class="node">
<title>b2</title>
<ellipse fill="#ffedd5" stroke="#ea580c" stroke-width="2" cx="465.22" cy="-230.61" rx="29.52" ry="29.52"/>
<text xml:space="preserve" text-anchor="middle" x="465.22" y="-232.46" font-family="Helvetica,sans-Serif" font-size="17.00">b2</text>
<text xml:space="preserve" text-anchor="middle" x="465.22" y="-214.46" font-family="Helvetica,sans-Serif" font-size="17.00">0</text>
</g>
<!-- b3 -->
<g id="node8" class="node">
<title>b3</title>
<ellipse fill="#ffedd5" stroke="#ea580c" stroke-width="2" cx="465.22" cy="-130.07" rx="29.52" ry="29.52"/>
<text xml:space="preserve" text-anchor="middle" x="465.22" y="-131.92" font-family="Helvetica,sans-Serif" font-size="17.00">b3</text>
<text xml:space="preserve" text-anchor="middle" x="465.22" y="-113.92" font-family="Helvetica,sans-Serif" font-size="17.00">5</text>
</g>
<!-- b4 -->
<g id="node9" class="node">
<title>b4</title>
<ellipse fill="#ffedd5" stroke="#ea580c" stroke-width="2" cx="465.22" cy="-29.52" rx="29.52" ry="29.52"/>
<text xml:space="preserve" text-anchor="middle" x="465.22" y="-31.37" font-family="Helvetica,sans-Serif" font-size="17.00">b4</text>
<text xml:space="preserve" text-anchor="middle" x="465.22" y="-13.37" font-family="Helvetica,sans-Serif" font-size="17.00">5</text>
</g>
</g>
</svg>
