<?xml version="1.0" encoding="UTF-8" standalone="no"?>
<!DOCTYPE svg PUBLIC "-//W3C//DTD SVG 1.1//EN"
 "http://www.w3.org/Graphics/SVG/1.1/DTD/svg11.dtd">
<!-- Generated by graphviz version 14.1.3 (20260303.0454)
 -->
<!-- Title: G Pages: 1 -->
<svg width="532pt" height="431pt"
 viewBox="0.00 0.00 532.00 431.00" xmlns="http://www.w3.org/2000/svg" xmlns:xlink="http://www.w3.org/1999/xlink">
<g id="graph0" class="graph" transform="scale(1 1) rotate(0) translate(25.2 405.62)">
<title>G</title>
<polygon fill="white" stroke="none" points="-25.2,25.2 -25.2,-405.62 506.56,-405.62 506.56,25.2 -25.2,25.2"/>
<text xml:space="preserve" text-anchor="middle" x="240.68" y="-357.42" font-family="Helvetica,sans-Serif" font-size="20.00">Step 3: final augmenting path is s &#45;&gt; r2 &#45;&gt; b2</text>
<!-- s&#45;&gt;r1 -->
<g id="edge1" class="edge">
<title>s&#45;&gt;r1</title>
<path fill="none" stroke="#cbd5e1" stroke-width="2" stroke-dasharray="5,2" d="M50.28,-148.96C83.38,-184 148.15,-252.59 185.41,-292.04"/>
<polygon fill="#cbd5e1" stroke="#cbd5e1" stroke-width="2" points="183.32,-293.9 190.85,-297.8 187.39,-290.06 183.32,-293.9"/>
<text xml:space="preserve" text-anchor="middle" x="117.44" y="-225.93" font-family="Helvetica,sans-Serif" font-size="15.00" fill="#0f172a">0</text>
</g>
<!-- s&#45;&gt;r2 -->
<g id="edge2" class="edge">
<title>s&#45;&gt;r2</title>
<path fill="none" stroke="#16a34a" stroke-width="3.6" stroke-dasharray="5,2" d="M56.29,-141.15C87.51,-157.68 139.37,-185.14 174.96,-203.98"/>
<polygon fill="#16a34a" stroke="#16a34a" stroke-width="3.6" points="173.61,-206.43 181.99,-207.7 176.23,-201.48 173.61,-206.43"/>
<text xml:space="preserve" text-anchor="middle" x="117.37" y="-177.17" font-family="Helvetica,sans-Serif" font-size="15.00" fill="#16a34a">0</text>
</g>
<!-- s&#45;&gt;r3 -->
<g id="edge3" class="edge">
<title>s&#45;&gt;r3</title>
<path fill="none" stroke="#cbd5e1" stroke-width="2" stroke-dasharray="5,2" d="M59.92,-126.98C90.56,-126.98 138.08,-126.98 172.17,-126.98"/>
<polygon fill="#cbd5e1" stroke="#cbd5e1" stroke-width="2" points="172.14,-129.78 180.14,-126.98 172.14,-124.18 172.14,-129.78"/>
<text xml:space="preserve" text-anchor="middle" x="117.19" y="-128.48" font-family="Helvetica,sans-Serif" font-size="15.00" fill="#0f172a">0</text>
</g>
<!-- s&#45;&gt;r4 -->
<g id="edge4" class="edge">
<title>s&#45;&gt;r4</title>
<path fill="none" stroke="#cbd5e1" stroke-width="2" stroke-dasharray="5,2" d="M56.29,-112.81C88.19,-95.92 141.65,-67.62 177.27,-48.76"/>
<polygon fill="#cbd5e1" stroke="#cbd5e1" stroke-width="2" points="178.37,-51.34 184.13,-45.12 175.75,-46.39 178.37,-51.34"/>
<text xml:space="preserve" text-anchor="middle" x="117.4" y="-79.77" font-family="Helvetica,sans-Serif" font-size="15.00" fill="#0f172a">0</text>
</g>
<!-- r2&#45;&gt;b2 -->
<g id="edge5" class="edge">
<title>r2&#45;&gt;b2</title>
<path fill="none" stroke="#16a34a" stroke-width="3.6" d="M243.78,-224.44C285.38,-224.44 360.59,-224.44 408.28,-224.44"/>
<polygon fill="#16a34a" stroke="#16a34a" stroke-width="3.6" points="408.09,-227.24 416.09,-224.44 408.09,-221.64 408.09,-227.24"/>
<text xml:space="preserve" text-anchor="middle" x="328.76" y="-225.94" font-family="Helvetica,sans-Serif" font-size="15.00" fill="#16a34a">0</text>
</g>
<!-- b1&#45;&gt;r1 -->
<g id="edge6" class="edge">
<title>b1&#45;&gt;r1</title>
<path fill="none" stroke="#334155" stroke-width="3" d="M421.67,-321.9C379.81,-321.9 303.9,-321.9 256.26,-321.9"/>
<polygon fill="#334155" stroke="#334155" stroke-width="3" points="256.45,-319.1 248.45,-321.9 256.45,-324.7 256.45,-319.1"/>
<text xml:space="preserve" text-anchor="middle" x="328.86" y="-323.4" font-family="Helvetica,sans-Serif" font-size="15.00" fill="#334155">0</text>
</g>
<!-- b3&#45;&gt;r4 -->
<g id="edge8" class="edge">
<title>b3&#45;&gt;r4</title>
<path fill="none" stroke="#334155" stroke-width="3" d="M424.05,-115.61C381.84,-98.34 301.41,-65.44 253.13,-45.69"/>
<polygon fill="#334155" stroke="#334155" stroke-width="3" points="254.26,-43.13 245.8,-42.69 252.14,-48.31 254.26,-43.13"/>
<text xml:space="preserve" text-anchor="middle" x="328.63" y="-79.76" font-family="Helvetica,sans-Serif" font-size="15.00" fill="#334155">0</text>
</g>
<!-- b4&#45;&gt;r3 -->
<g id="edge7" class="edge">
<title>b4&#45;&gt;r3</title>
<path fill="none" stroke="#334155" stroke-width="3" d="M424.05,-40.89C381.84,-58.16 301.41,-91.06 253.13,-110.81"/>
<polygon fill="#334155" stroke="#334155" stroke-width="3" points="252.14,-108.19 245.8,-113.81 254.26,-113.37 252.14,-108.19"/>
<text xml:space="preserve" text-anchor="middle" x="328.63" y="-63.99" font-family="Helvetica,sans-Serif" font-size="15.00" fill="#334155">0</text>
</g>
<!-- s -->
<g id="node1" class="node">
<title>s</title>
<ellipse fill="#fef3c7" stroke="#d97706" stroke-width="2" cx="29.52" cy="-126.98" rx="29.52" ry="29.52"/>
<text xml:space="preserve" text-anchor="middle" x="29.52" y="-119.83" font-family="Helvetica,sans-Serif" font-size="17.00">s</text>
</g>
<!-- r1 -->
<g id="node2" class="node">
<title>r1</title>
<ellipse fill="#dbeafe" stroke="#2563eb" stroke-width="2" cx="213.61" cy="-321.9" rx="29.52" ry="29.52"/>
<text xml:space="preserve" text-anchor="middle" x="213.61" y="-323.75" font-family="Helvetica,sans-Serif" font-size="17.00">r1</text>
<text xml:space="preserve" text-anchor="middle" x="213.61" y="-305.75" font-family="Helvetica,sans-Serif" font-size="17.00">0</text>
</g>
<!-- r2 -->
<g id="node3" class="node">
<title>r2</title>
<ellipse fill="#dbeafe" stroke="#2563eb" stroke-width="2" cx="213.61" cy="-224.44" rx="29.52" ry="29.52"/>
<text xml:space="preserve" text-anchor="middle" x="213.61" y="-226.29" font-family="Helvetica,sans-Serif" font-size="17.00">r2</text>
<text xml:space="preserve" text-anchor="middle" x="213.61" y="-208.29" font-family="Helvetica,sans-Serif" font-size="17.00">0</text>
</g>
<!-- r3 -->
<g id="node4" class="node">
<title>r3</title>
<ellipse fill="#dbeafe" stroke="#2563eb" stroke-width="2" cx="213.61" cy="-126.98" rx="29.52" ry="29.52"/>
<text xml:space="preserve" text-anchor="middle" x="213.61" y="-128.83" font-family="Helvetica,sans-Serif" font-size="17.00">r3</text>
<text xml:space="preserve" text-anchor="middle" x="213.61" y="-110.83" font-family="Helvetica,sans-Serif" font-size="17.00">12</text>
</g>
<!-- r4 -->
<g id="node5" class="node">
<title>r4</title>
<ellipse fill="#dbeafe" stroke="#2563eb" stroke-width="2" cx="213.61" cy="-29.52" rx="29.52" ry="29.52"/>
<text xml:space="preserve" text-anchor="middle" x="213.61" y="-31.37" font-family="Helvetica,sans-Serif" font-size="17.00">r4</text>
<text xml:space="preserve" text-anchor="middle" x="213.61" y="-13.37" font-family="Helvetica,sans-Serif" font-size="17.00">12</text>
</g>
<!-- b1 -->
<g id="node6" class="node">
<title>b1</title>
<ellipse fill="#ffedd5" stroke="#ea580c" stroke-width="2" cx="451.84" cy="-321.9" rx="29.52" ry="29.52"/>
<text xml:space="preserve" text-anchor="middle" x="451.84" y="-323.75" font-family="Helvetica,sans-Serif" font-size="17.00">b1</text>
<text xml:space="preserve" text-anchor="middle" x="451.84" y="-305.75" font-family="Helvetica,sans-Serif" font-size="17.00">0</text>
</g>
<!-- b2 -->
<g id="node7" class="node">
<title>b2</title>
<ellipse fill="#ffedd5" stroke="#ea580c" stroke-width="2" cx="451.84" cy="-224.44" rx="29.52" ry="29.52"/>
<text xml:space="preserve" text-anchor="middle" x="451.84" y="-226.29" font-family="Helvetica,sans-Serif" font-size="17.00">b2</text>
<text xml:space="preserve" text-anchor="middle" x="451.84" y="-208.29" font-family="Helvetica,sans-Serif" font-size="17.00">0</text>
</g>
<!-- b3 -->
<g id="node8" class="node">
<title>b3</title>
<ellipse fill="#ffedd5" stroke="#ea580c" stroke-width="2" cx="451.84" cy="-126.98" rx="29.52" ry="29.52"/>
<text xml:space="preserve" text-anchor="middle" x="451.84" y="-128.83" font-family="Helvetica,sans-Serif" font-size="17.00">b3</text>
<text xml:space="preserve" text-anchor="middle" x="451.84" y="-110.83" font-family="Helvetica,sans-Serif" font-size="17.00">12</text>
</g>
<!-- b4 -->
<g id="node9" class="node">
<title>b4</title>
<ellipse fill="#ffedd5" stroke="#ea580c" stroke-width="2" cx="451.84" cy="-29.52" rx="29.52" ry="29.52"/>
<text xml:space="preserve" text-anchor="middle" x="451.84" y="-31.37" font-family="Helvetica,sans-Serif" font-size="17.00">b4</text>
<text xml:space="preserve" text-anchor="middle" x="451.84" y="-13.37" font-family="Helvetica,sans-Serif" font-size="17.00">12</text>
</g>
</g>
</svg>
