<?xml version="1.0" encoding="UTF-8" standalone="no"?>
<!DOCTYPE svg PUBLIC "-//W3C//DTD SVG 1.1//EN"
 "http://www.w3.org/Graphics/SVG/1.1/DTD/svg11.dtd">
<!-- Generated by graphviz version 14.1.3 (20260303.0454)
 -->
<!-- Title: G Pages: 1 -->
<svg width="484pt" height="288pt"
 viewBox="0.00 0.00 484.00 288.00" xmlns="http://www.w3.org/2000/svg" xmlns:xlink="http://www.w3.org/1999/xlink">
<g id="graph0" class="graph" transform="scale(1 1) rotate(0) translate(25.2 263.2)">
<title>G</title>
<polygon fill="white" stroke="none" points="-25.2,25.2 -25.2,-263.2 458.95,-263.2 458.95,25.2 -25.2,25.2"/>
<text xml:space="preserve" text-anchor="middle" x="216.88" y="-215" font-family="Helvetica,sans-Serif" font-size="20.00">Step 3: after rerouting to match r3&#45;b4 and r4&#45;b3</text>
<!-- t -->
<g id="node1" class="node">
<title>t</title>
<polygon fill="none" stroke="black" points="112.62,-173.5 112.62,-208 195.12,-208 195.12,-173.5 112.62,-173.5"/>
<polygon fill="none" stroke="black" points="195.12,-173.5 195.12,-208 321.12,-208 321.12,-173.5 195.12,-173.5"/>
<text xml:space="preserve" text-anchor="start" x="223.25" y="-186.7" font-family="Times,serif" font-weight="bold" font-size="14.00">blue heights</text>
<polygon fill="none" stroke="black" points="112.62,-139 112.62,-173.5 195.12,-173.5 195.12,-139 112.62,-139"/>
<text xml:space="preserve" text-anchor="start" x="121.62" y="-152.2" font-family="Times,serif" font-weight="bold" font-size="14.00">red heights</text>
<polygon fill="none" stroke="black" points="195.12,-139 195.12,-173.5 226.62,-173.5 226.62,-139 195.12,-139"/>
<text xml:space="preserve" text-anchor="start" x="207.5" y="-151.75" font-family="Times,serif" font-size="14.00">8</text>
<polygon fill="none" stroke="black" points="226.62,-139 226.62,-173.5 258.12,-173.5 258.12,-139 226.62,-139"/>
<text xml:space="preserve" text-anchor="start" x="235.62" y="-151.75" font-family="Times,serif" font-size="14.00">12</text>
<polygon fill="none" stroke="black" points="258.12,-139 258.12,-173.5 289.62,-173.5 289.62,-139 258.12,-139"/>
<text xml:space="preserve" text-anchor="start" x="270.5" y="-151.75" font-family="Times,serif" font-size="14.00">8</text>
<polygon fill="none" stroke="black" points="289.62,-139 289.62,-173.5 321.12,-173.5 321.12,-139 289.62,-139"/>
<text xml:space="preserve" text-anchor="start" x="302" y="-151.75" font-family="Times,serif" font-size="14.00">6</text>
<polygon fill="none" stroke="black" points="112.62,-104.5 112.62,-139 195.12,-139 195.12,-104.5 112.62,-104.5"/>
<text xml:space="preserve" text-anchor="start" x="148.25" y="-117.25" font-family="Times,serif" font-size="14.00">&#45;3</text>
<polygon fill="none" stroke="black" points="195.12,-104.5 195.12,-139 226.62,-139 226.62,-104.5 195.12,-104.5"/>
<text xml:space="preserve" text-anchor="start" x="207.5" y="-117.25" font-family="Times,serif" font-size="14.00">0</text>
<polygon fill="none" stroke="black" points="226.62,-104.5 226.62,-139 258.12,-139 258.12,-104.5 226.62,-104.5"/>
<text xml:space="preserve" text-anchor="start" x="239" y="-117.25" font-family="Times,serif" font-size="14.00">0</text>
<polygon fill="none" stroke="black" points="258.12,-104.5 258.12,-139 289.62,-139 289.62,-104.5 258.12,-104.5"/>
<text xml:space="preserve" text-anchor="start" x="267.12" y="-117.25" font-family="Times,serif" font-size="14.00">12</text>
<polygon fill="none" stroke="black" points="289.62,-104.5 289.62,-139 321.12,-139 321.12,-104.5 289.62,-104.5"/>
<text xml:space="preserve" text-anchor="start" x="298.62" y="-117.25" font-family="Times,serif" font-size="14.00">18</text>
<polygon fill="none" stroke="black" points="112.62,-70 112.62,-104.5 195.12,-104.5 195.12,-70 112.62,-70"/>
<text xml:space="preserve" text-anchor="start" x="150.5" y="-82.75" font-family="Times,serif" font-size="14.00">0</text>
<polygon fill="none" stroke="black" points="195.12,-70 195.12,-104.5 226.62,-104.5 226.62,-70 195.12,-70"/>
<text xml:space="preserve" text-anchor="start" x="207.5" y="-82.75" font-family="Times,serif" font-size="14.00">0</text>
<polygon fill="none" stroke="black" points="226.62,-70 226.62,-104.5 258.12,-104.5 258.12,-70 226.62,-70"/>
<text xml:space="preserve" text-anchor="start" x="239" y="-82.75" font-family="Times,serif" font-size="14.00">0</text>
<polygon fill="none" stroke="black" points="258.12,-70 258.12,-104.5 289.62,-104.5 289.62,-70 258.12,-70"/>
<text xml:space="preserve" text-anchor="start" x="267.12" y="-82.75" font-family="Times,serif" font-size="14.00">17</text>
<polygon fill="none" stroke="black" points="289.62,-70 289.62,-104.5 321.12,-104.5 321.12,-70 289.62,-70"/>
<text xml:space="preserve" text-anchor="start" x="298.62" y="-82.75" font-family="Times,serif" font-size="14.00">12</text>
<polygon fill="none" stroke="black" points="112.62,-35.5 112.62,-70 195.12,-70 195.12,-35.5 112.62,-35.5"/>
<text xml:space="preserve" text-anchor="start" x="150.5" y="-48.25" font-family="Times,serif" font-size="14.00">0</text>
<polygon fill="none" stroke="black" points="195.12,-35.5 195.12,-70 226.62,-70 226.62,-35.5 195.12,-35.5"/>
<text xml:space="preserve" text-anchor="start" x="207.5" y="-48.25" font-family="Times,serif" font-size="14.00">6</text>
<polygon fill="none" stroke="black" points="226.62,-35.5 226.62,-70 258.12,-70 258.12,-35.5 226.62,-35.5"/>
<text xml:space="preserve" text-anchor="start" x="235.62" y="-48.25" font-family="Times,serif" font-size="14.00">11</text>
<polygon fill="none" stroke="black" points="258.12,-35.5 258.12,-70 289.62,-70 289.62,-35.5 258.12,-35.5"/>
<text xml:space="preserve" text-anchor="start" x="270.5" y="-48.25" font-family="Times,serif" font-size="14.00">7</text>
<polygon fill="none" stroke="black" points="289.62,-35.5 289.62,-70 321.12,-70 321.12,-35.5 289.62,-35.5"/>
<text xml:space="preserve" text-anchor="start" x="302" y="-48.25" font-family="Times,serif" font-size="14.00">0</text>
<polygon fill="none" stroke="black" points="112.62,-1 112.62,-35.5 195.12,-35.5 195.12,-1 112.62,-1"/>
<text xml:space="preserve" text-anchor="start" x="148.25" y="-13.75" font-family="Times,serif" font-size="14.00">&#45;5</text>
<polygon fill="none" stroke="black" points="195.12,-1 195.12,-35.5 226.62,-35.5 226.62,-1 195.12,-1"/>
<text xml:space="preserve" text-anchor="start" x="204.12" y="-13.75" font-family="Times,serif" font-size="14.00">16</text>
<polygon fill="none" stroke="black" points="226.62,-1 226.62,-35.5 258.12,-35.5 258.12,-1 226.62,-1"/>
<text xml:space="preserve" text-anchor="start" x="239" y="-13.75" font-family="Times,serif" font-size="14.00">9</text>
<polygon fill="none" stroke="black" points="258.12,-1 258.12,-35.5 289.62,-35.5 289.62,-1 258.12,-1"/>
<text xml:space="preserve" text-anchor="start" x="270.5" y="-13.75" font-family="Times,serif" font-size="14.00">0</text>
<polygon fill="none" stroke="black" points="289.62,-1 289.62,-35.5 321.12,-35.5 321.12,-1 289.62,-1"/>
<text xml:space="preserve" text-anchor="start" x="302" y="-13.75" font-family="Times,serif" font-size="14.00">0</text>
<polygon fill="none" stroke="black" points="111.62,0 111.62,-209 322.12,-209 322.12,0 111.62,0"/>
</g>
</g>
</svg>
