<?xml version="1.0" encoding="UTF-8" standalone="no"?>
<!DOCTYPE svg PUBLIC "-//W3C//DTD SVG 1.1//EN"
 "http://www.w3.org/Graphics/SVG/1.1/DTD/svg11.dtd">
<!-- Generated by graphviz version 14.1.3 (20260303.0454)
 -->
<!-- Title: G Pages: 1 -->
<svg width="514pt" height="418pt"
 viewBox="0.00 0.00 514.00 418.00" xmlns="http://www.w3.org/2000/svg" xmlns:xlink="http://www.w3.org/1999/xlink">
<g id="graph0" class="graph" transform="scale(1 1) rotate(0) translate(25.2 393.26)">
<title>G</title>
<polygon fill="white" stroke="none" points="-25.2,25.2 -25.2,-393.26 488.72,-393.26 488.72,25.2 -25.2,25.2"/>
<text xml:space="preserve" text-anchor="middle" x="231.76" y="-345.06" font-family="Helvetica,sans-Serif" font-size="20.00">Step 2: rerouting path is s &#45;&gt; r3 &#45;&gt; b4 &#45;&gt; r4 &#45;&gt; b3</text>
<!-- s&#45;&gt;r1 -->
<g id="edge1" class="edge">
<title>s&#45;&gt;r1</title>
<path fill="none" stroke="#cbd5e1" stroke-width="2" stroke-dasharray="5,2" d="M50.44,-145.01C82.12,-178.55 142.32,-242.29 177.77,-279.83"/>
<polygon fill="#cbd5e1" stroke="#cbd5e1" stroke-width="2" points="175.33,-281.33 182.86,-285.22 179.4,-277.48 175.33,-281.33"/>
<text xml:space="preserve" text-anchor="middle" x="113.51" y="-217.66" font-family="Helvetica,sans-Serif" font-size="15.00" fill="#0f172a">0</text>
</g>
<!-- s&#45;&gt;r2 -->
<g id="edge2" class="edge">
<title>s&#45;&gt;r2</title>
<path fill="none" stroke="#cbd5e1" stroke-width="2" stroke-dasharray="5,2" d="M56.3,-137.04C86.55,-153.05 135.94,-179.2 169.61,-197.03"/>
<polygon fill="#cbd5e1" stroke="#cbd5e1" stroke-width="2" points="168.03,-199.36 176.42,-200.63 170.65,-194.41 168.03,-199.36"/>
<text xml:space="preserve" text-anchor="middle" x="113.75" y="-171.14" font-family="Helvetica,sans-Serif" font-size="15.00" fill="#0f172a">0</text>
</g>
<!-- s&#45;&gt;r3 -->
<g id="edge3" class="edge">
<title>s&#45;&gt;r3</title>
<path fill="none" stroke="#16a34a" stroke-width="3.6" stroke-dasharray="5,2" d="M59.83,-122.86C87.96,-122.86 130.16,-122.86 161.97,-122.86"/>
<polygon fill="#16a34a" stroke="#16a34a" stroke-width="3.6" points="161.88,-125.66 169.88,-122.86 161.88,-120.06 161.88,-125.66"/>
<text xml:space="preserve" text-anchor="middle" x="113.45" y="-124.36" font-family="Helvetica,sans-Serif" font-size="15.00" fill="#16a34a">0</text>
</g>
<!-- s&#45;&gt;r4 -->
<g id="edge4" class="edge">
<title>s&#45;&gt;r4</title>
<path fill="none" stroke="#cbd5e1" stroke-width="2" stroke-dasharray="5,2" d="M56.3,-108.68C86.55,-92.67 135.94,-66.52 169.61,-48.7"/>
<polygon fill="#cbd5e1" stroke="#cbd5e1" stroke-width="2" points="170.65,-51.31 176.42,-45.09 168.03,-46.36 170.65,-51.31"/>
<text xml:space="preserve" text-anchor="middle" x="113.75" y="-77.58" font-family="Helvetica,sans-Serif" font-size="15.00" fill="#0f172a">0</text>
</g>
<!-- r3&#45;&gt;b4 -->
<g id="edge5" class="edge">
<title>r3&#45;&gt;b4</title>
<path fill="none" stroke="#16a34a" stroke-width="3.6" d="M233.81,-111.42C273.84,-95.04 347.68,-64.83 393.62,-46.04"/>
<polygon fill="#16a34a" stroke="#16a34a" stroke-width="3.6" points="394.4,-48.74 400.75,-43.12 392.28,-43.56 394.4,-48.74"/>
<text xml:space="preserve" text-anchor="middle" x="315.6" y="-77.77" font-family="Helvetica,sans-Serif" font-size="15.00" fill="#16a34a">0</text>
</g>
<!-- r4&#45;&gt;b3 -->
<g id="edge6" class="edge">
<title>r4&#45;&gt;b3</title>
<path fill="none" stroke="#16a34a" stroke-width="3.6" d="M233.81,-40.97C273.84,-57.34 347.68,-87.55 393.62,-106.34"/>
<polygon fill="#16a34a" stroke="#16a34a" stroke-width="3.6" points="392.28,-108.82 400.75,-109.26 394.4,-103.64 392.28,-108.82"/>
<text xml:space="preserve" text-anchor="middle" x="315.6" y="-61.86" font-family="Helvetica,sans-Serif" font-size="15.00" fill="#16a34a">0</text>
</g>
<!-- b1&#45;&gt;r1 -->
<g id="edge7" class="edge">
<title>b1&#45;&gt;r1</title>
<path fill="none" stroke="#334155" stroke-width="3" d="M403.7,-309.54C363.89,-309.54 293.76,-309.54 248.57,-309.54"/>
<polygon fill="#334155" stroke="#334155" stroke-width="3" points="248.8,-306.74 240.8,-309.54 248.8,-312.34 248.8,-306.74"/>
<text xml:space="preserve" text-anchor="middle" x="315.77" y="-311.04" font-family="Helvetica,sans-Serif" font-size="15.00" fill="#334155">0</text>
</g>
<!-- b4&#45;&gt;r4 -->
<g id="edge8" class="edge">
<title>b4&#45;&gt;r4</title>
<path fill="none" stroke="#16a34a" stroke-width="3.6" d="M403.7,-29.52C364.15,-29.52 294.66,-29.52 249.45,-29.52"/>
<polygon fill="#16a34a" stroke="#16a34a" stroke-width="3.6" points="249.7,-26.72 241.7,-29.52 249.7,-32.32 249.7,-26.72"/>
<text xml:space="preserve" text-anchor="middle" x="316.04" y="-31.02" font-family="Helvetica,sans-Serif" font-size="15.00" fill="#16a34a">0</text>
</g>
<!-- s -->
<g id="node1" class="node">
<title>s</title>
<ellipse fill="#fef3c7" stroke="#d97706" stroke-width="2" cx="29.52" cy="-122.86" rx="29.52" ry="29.52"/>
<text xml:space="preserve" text-anchor="middle" x="29.52" y="-115.71" font-family="Helvetica,sans-Serif" font-size="17.00">s</text>
</g>
<!-- r1 -->
<g id="node2" class="node">
<title>r1</title>
<ellipse fill="#dbeafe" stroke="#2563eb" stroke-width="2" cx="205.83" cy="-309.54" rx="29.52" ry="29.52"/>
<text xml:space="preserve" text-anchor="middle" x="205.83" y="-311.39" font-family="Helvetica,sans-Serif" font-size="17.00">r1</text>
<text xml:space="preserve" text-anchor="middle" x="205.83" y="-293.39" font-family="Helvetica,sans-Serif" font-size="17.00">3</text>
</g>
<!-- r2 -->
<g id="node3" class="node">
<title>r2</title>
<ellipse fill="#dbeafe" stroke="#2563eb" stroke-width="2" cx="205.83" cy="-216.2" rx="29.52" ry="29.52"/>
<text xml:space="preserve" text-anchor="middle" x="205.83" y="-218.05" font-family="Helvetica,sans-Serif" font-size="17.00">r2</text>
<text xml:space="preserve" text-anchor="middle" x="205.83" y="-200.05" font-family="Helvetica,sans-Serif" font-size="17.00">0</text>
</g>
<!-- r3 -->
<g id="node4" class="node">
<title>r3</title>
<ellipse fill="#dbeafe" stroke="#2563eb" stroke-width="2" cx="205.83" cy="-122.86" rx="29.52" ry="29.52"/>
<text xml:space="preserve" text-anchor="middle" x="205.83" y="-124.71" font-family="Helvetica,sans-Serif" font-size="17.00">r3</text>
<text xml:space="preserve" text-anchor="middle" x="205.83" y="-106.71" font-family="Helvetica,sans-Serif" font-size="17.00">0</text>
</g>
<!-- r4 -->
<g id="node5" class="node">
<title>r4</title>
<ellipse fill="#dbeafe" stroke="#2563eb" stroke-width="2" cx="205.83" cy="-29.52" rx="29.52" ry="29.52"/>
<text xml:space="preserve" text-anchor="middle" x="205.83" y="-31.37" font-family="Helvetica,sans-Serif" font-size="17.00">r4</text>
<text xml:space="preserve" text-anchor="middle" x="205.83" y="-13.37" font-family="Helvetica,sans-Serif" font-size="17.00">0</text>
</g>
<!-- b1 -->
<g id="node6" class="node">
<title>b1</title>
<ellipse fill="#ffedd5" stroke="#ea580c" stroke-width="2" cx="434" cy="-309.54" rx="29.52" ry="29.52"/>
<text xml:space="preserve" text-anchor="middle" x="434" y="-311.39" font-family="Helvetica,sans-Serif" font-size="17.00">b1</text>
<text xml:space="preserve" text-anchor="middle" x="434" y="-293.39" font-family="Helvetica,sans-Serif" font-size="17.00">3</text>
</g>
<!-- b2 -->
<g id="node7" class="node">
<title>b2</title>
<ellipse fill="#ffedd5" stroke="#ea580c" stroke-width="2" cx="434" cy="-216.2" rx="29.52" ry="29.52"/>
<text xml:space="preserve" text-anchor="middle" x="434" y="-218.05" font-family="Helvetica,sans-Serif" font-size="17.00">b2</text>
<text xml:space="preserve" text-anchor="middle" x="434" y="-200.05" font-family="Helvetica,sans-Serif" font-size="17.00">3</text>
</g>
<!-- b3 -->
<g id="node8" class="node">
<title>b3</title>
<ellipse fill="#ffedd5" stroke="#ea580c" stroke-width="2" cx="434" cy="-122.86" rx="29.52" ry="29.52"/>
<text xml:space="preserve" text-anchor="middle" x="434" y="-124.71" font-family="Helvetica,sans-Serif" font-size="17.00">b3</text>
<text xml:space="preserve" text-anchor="middle" x="434" y="-106.71" font-family="Helvetica,sans-Serif" font-size="17.00">0</text>
</g>
<!-- b4 -->
<g id="node9" class="node">
<title>b4</title>
<ellipse fill="#ffedd5" stroke="#ea580c" stroke-width="2" cx="434" cy="-29.52" rx="29.52" ry="29.52"/>
<text xml:space="preserve" text-anchor="middle" x="434" y="-31.37" font-family="Helvetica,sans-Serif" font-size="17.00">b4</text>
<text xml:space="preserve" text-anchor="middle" x="434" y="-13.37" font-family="Helvetica,sans-Serif" font-size="17.00">0</text>
</g>
</g>
</svg>
