<?xml version="1.0" encoding="UTF-8" standalone="no"?>
<!DOCTYPE svg PUBLIC "-//W3C//DTD SVG 1.1//EN"
 "http://www.w3.org/Graphics/SVG/1.1/DTD/svg11.dtd">
<!-- Generated by graphviz version 14.1.3 (20260303.0454)
 -->
<!-- Title: G Pages: 1 -->
<svg width="405pt" height="288pt"
 viewBox="0.00 0.00 405.00 288.00" xmlns="http://www.w3.org/2000/svg" xmlns:xlink="http://www.w3.org/1999/xlink">
<g id="graph0" class="graph" transform="scale(1 1) rotate(0) translate(25.2 263.2)">
<title>G</title>
<polygon fill="white" stroke="none" points="-25.2,25.2 -25.2,-263.2 379.45,-263.2 379.45,25.2 -25.2,25.2"/>
<text xml:space="preserve" text-anchor="middle" x="177.12" y="-215" font-family="Helvetica,sans-Serif" font-size="20.00">Step 2: after matching r1&#45;b1 and r4&#45;b4</text>
<!-- t -->
<g id="node1" class="node">
<title>t</title>
<polygon fill="none" stroke="black" points="72.88,-173.5 72.88,-208 155.38,-208 155.38,-173.5 72.88,-173.5"/>
<polygon fill="none" stroke="black" points="155.38,-173.5 155.38,-208 281.38,-208 281.38,-173.5 155.38,-173.5"/>
<text xml:space="preserve" text-anchor="start" x="183.5" y="-186.7" font-family="Times,serif" font-weight="bold" font-size="14.00">blue heights</text>
<polygon fill="none" stroke="black" points="72.88,-139 72.88,-173.5 155.38,-173.5 155.38,-139 72.88,-139"/>
<text xml:space="preserve" text-anchor="start" x="81.88" y="-152.2" font-family="Times,serif" font-weight="bold" font-size="14.00">red heights</text>
<polygon fill="none" stroke="black" points="155.38,-139 155.38,-173.5 186.88,-173.5 186.88,-139 155.38,-139"/>
<text xml:space="preserve" text-anchor="start" x="167.75" y="-151.75" font-family="Times,serif" font-size="14.00">5</text>
<polygon fill="none" stroke="black" points="186.88,-139 186.88,-173.5 218.38,-173.5 218.38,-139 186.88,-139"/>
<text xml:space="preserve" text-anchor="start" x="199.25" y="-151.75" font-family="Times,serif" font-size="14.00">9</text>
<polygon fill="none" stroke="black" points="218.38,-139 218.38,-173.5 249.88,-173.5 249.88,-139 218.38,-139"/>
<text xml:space="preserve" text-anchor="start" x="230.75" y="-151.75" font-family="Times,serif" font-size="14.00">8</text>
<polygon fill="none" stroke="black" points="249.88,-139 249.88,-173.5 281.38,-173.5 281.38,-139 249.88,-139"/>
<text xml:space="preserve" text-anchor="start" x="262.25" y="-151.75" font-family="Times,serif" font-size="14.00">6</text>
<polygon fill="none" stroke="black" points="72.88,-104.5 72.88,-139 155.38,-139 155.38,-104.5 72.88,-104.5"/>
<text xml:space="preserve" text-anchor="start" x="110.75" y="-117.25" font-family="Times,serif" font-size="14.00">0</text>
<polygon fill="none" stroke="black" points="155.38,-104.5 155.38,-139 186.88,-139 186.88,-104.5 155.38,-104.5"/>
<text xml:space="preserve" text-anchor="start" x="167.75" y="-117.25" font-family="Times,serif" font-size="14.00">0</text>
<polygon fill="none" stroke="black" points="186.88,-104.5 186.88,-139 218.38,-139 218.38,-104.5 186.88,-104.5"/>
<text xml:space="preserve" text-anchor="start" x="199.25" y="-117.25" font-family="Times,serif" font-size="14.00">0</text>
<polygon fill="none" stroke="black" points="218.38,-104.5 218.38,-139 249.88,-139 249.88,-104.5 218.38,-104.5"/>
<text xml:space="preserve" text-anchor="start" x="230.75" y="-117.25" font-family="Times,serif" font-size="14.00">9</text>
<polygon fill="none" stroke="black" points="249.88,-104.5 249.88,-139 281.38,-139 281.38,-104.5 249.88,-104.5"/>
<text xml:space="preserve" text-anchor="start" x="258.88" y="-117.25" font-family="Times,serif" font-size="14.00">15</text>
<polygon fill="none" stroke="black" points="72.88,-70 72.88,-104.5 155.38,-104.5 155.38,-70 72.88,-70"/>
<text xml:space="preserve" text-anchor="start" x="110.75" y="-82.75" font-family="Times,serif" font-size="14.00">0</text>
<polygon fill="none" stroke="black" points="155.38,-70 155.38,-104.5 186.88,-104.5 186.88,-70 155.38,-70"/>
<text xml:space="preserve" text-anchor="start" x="167.75" y="-82.75" font-family="Times,serif" font-size="14.00">3</text>
<polygon fill="none" stroke="black" points="186.88,-70 186.88,-104.5 218.38,-104.5 218.38,-70 186.88,-70"/>
<text xml:space="preserve" text-anchor="start" x="199.25" y="-82.75" font-family="Times,serif" font-size="14.00">3</text>
<polygon fill="none" stroke="black" points="218.38,-70 218.38,-104.5 249.88,-104.5 249.88,-70 218.38,-70"/>
<text xml:space="preserve" text-anchor="start" x="227.38" y="-82.75" font-family="Times,serif" font-size="14.00">17</text>
<polygon fill="none" stroke="black" points="249.88,-70 249.88,-104.5 281.38,-104.5 281.38,-70 249.88,-70"/>
<text xml:space="preserve" text-anchor="start" x="258.88" y="-82.75" font-family="Times,serif" font-size="14.00">12</text>
<polygon fill="none" stroke="black" points="72.88,-35.5 72.88,-70 155.38,-70 155.38,-35.5 72.88,-35.5"/>
<text xml:space="preserve" text-anchor="start" x="110.75" y="-48.25" font-family="Times,serif" font-size="14.00">0</text>
<polygon fill="none" stroke="black" points="155.38,-35.5 155.38,-70 186.88,-70 186.88,-35.5 155.38,-35.5"/>
<text xml:space="preserve" text-anchor="start" x="167.75" y="-48.25" font-family="Times,serif" font-size="14.00">9</text>
<polygon fill="none" stroke="black" points="186.88,-35.5 186.88,-70 218.38,-70 218.38,-35.5 186.88,-35.5"/>
<text xml:space="preserve" text-anchor="start" x="195.88" y="-48.25" font-family="Times,serif" font-size="14.00">14</text>
<polygon fill="none" stroke="black" points="218.38,-35.5 218.38,-70 249.88,-70 249.88,-35.5 218.38,-35.5"/>
<text xml:space="preserve" text-anchor="start" x="230.75" y="-48.25" font-family="Times,serif" font-size="14.00">7</text>
<polygon fill="none" stroke="black" points="249.88,-35.5 249.88,-70 281.38,-70 281.38,-35.5 249.88,-35.5"/>
<text xml:space="preserve" text-anchor="start" x="262.25" y="-48.25" font-family="Times,serif" font-size="14.00">0</text>
<polygon fill="none" stroke="black" points="72.88,-1 72.88,-35.5 155.38,-35.5 155.38,-1 72.88,-1"/>
<text xml:space="preserve" text-anchor="start" x="108.5" y="-13.75" font-family="Times,serif" font-size="14.00">&#45;5</text>
<polygon fill="none" stroke="black" points="155.38,-1 155.38,-35.5 186.88,-35.5 186.88,-1 155.38,-1"/>
<text xml:space="preserve" text-anchor="start" x="164.38" y="-13.75" font-family="Times,serif" font-size="14.00">19</text>
<polygon fill="none" stroke="black" points="186.88,-1 186.88,-35.5 218.38,-35.5 218.38,-1 186.88,-1"/>
<text xml:space="preserve" text-anchor="start" x="195.88" y="-13.75" font-family="Times,serif" font-size="14.00">12</text>
<polygon fill="none" stroke="black" points="218.38,-1 218.38,-35.5 249.88,-35.5 249.88,-1 218.38,-1"/>
<text xml:space="preserve" text-anchor="start" x="230.75" y="-13.75" font-family="Times,serif" font-size="14.00">0</text>
<polygon fill="none" stroke="black" points="249.88,-1 249.88,-35.5 281.38,-35.5 281.38,-1 249.88,-1"/>
<text xml:space="preserve" text-anchor="start" x="262.25" y="-13.75" font-family="Times,serif" font-size="14.00">0</text>
<polygon fill="none" stroke="black" points="71.88,0 71.88,-209 282.38,-209 282.38,0 71.88,0"/>
</g>
</g>
</svg>
