<?xml version="1.0" encoding="UTF-8" standalone="no"?>
<!DOCTYPE svg PUBLIC "-//W3C//DTD SVG 1.1//EN"
 "http://www.w3.org/Graphics/SVG/1.1/DTD/svg11.dtd">
<!-- Generated by graphviz version 14.1.3 (20260303.0454)
 -->
<!-- Title: G Pages: 1 -->
<svg width="548pt" height="442pt"
 viewBox="0.00 0.00 548.00 442.00" xmlns="http://www.w3.org/2000/svg" xmlns:xlink="http://www.w3.org/1999/xlink">
<g id="graph0" class="graph" transform="scale(1 1) rotate(0) translate(25.2 416.54)">
<title>G</title>
<polygon fill="white" stroke="none" points="-25.2,25.2 -25.2,-416.54 522.34,-416.54 522.34,25.2 -25.2,25.2"/>
<text xml:space="preserve" text-anchor="middle" x="248.57" y="-368.34" font-family="Helvetica,sans-Serif" font-size="20.00">Step 0: shortest path is s &#45;&gt; r4 &#45;&gt; b4</text>
<!-- s&#45;&gt;r1 -->
<g id="edge1" class="edge">
<title>s&#45;&gt;r1</title>
<path fill="none" stroke="#cbd5e1" stroke-width="2" stroke-dasharray="5,2" d="M50.32,-152.64C84.69,-189.03 153.37,-261.75 192.14,-302.81"/>
<polygon fill="#cbd5e1" stroke="#cbd5e1" stroke-width="2" points="190.1,-304.73 197.63,-308.62 194.18,-300.88 190.1,-304.73"/>
<text xml:space="preserve" text-anchor="middle" x="121.01" y="-233.36" font-family="Helvetica,sans-Serif" font-size="15.00" fill="#0f172a">0</text>
</g>
<!-- s&#45;&gt;r2 -->
<g id="edge2" class="edge">
<title>s&#45;&gt;r2</title>
<path fill="none" stroke="#cbd5e1" stroke-width="2" stroke-dasharray="5,2" d="M56.48,-144.89C89.89,-162.58 146.95,-192.79 184.19,-212.5"/>
<polygon fill="#cbd5e1" stroke="#cbd5e1" stroke-width="2" points="182.61,-214.84 190.99,-216.1 185.23,-209.89 182.61,-214.84"/>
<text xml:space="preserve" text-anchor="middle" x="120.74" y="-182.59" font-family="Helvetica,sans-Serif" font-size="15.00" fill="#0f172a">0</text>
</g>
<!-- s&#45;&gt;r3 -->
<g id="edge3" class="edge">
<title>s&#45;&gt;r3</title>
<path fill="none" stroke="#cbd5e1" stroke-width="2" stroke-dasharray="5,2" d="M59.78,-130.62C92.09,-130.62 143.49,-130.62 179.43,-130.62"/>
<polygon fill="#cbd5e1" stroke="#cbd5e1" stroke-width="2" points="179.03,-133.42 187.03,-130.62 179.03,-127.82 179.03,-133.42"/>
<text xml:space="preserve" text-anchor="middle" x="120.64" y="-132.12" font-family="Helvetica,sans-Serif" font-size="15.00" fill="#0f172a">0</text>
</g>
<!-- s&#45;&gt;r4 -->
<g id="edge4" class="edge">
<title>s&#45;&gt;r4</title>
<path fill="none" stroke="#16a34a" stroke-width="3.6" stroke-dasharray="5,2" d="M56.48,-116.35C89.17,-99.04 144.54,-69.73 181.79,-50.01"/>
<polygon fill="#16a34a" stroke="#16a34a" stroke-width="3.6" points="183.09,-52.49 188.85,-46.27 180.47,-47.54 183.09,-52.49"/>
<text xml:space="preserve" text-anchor="middle" x="121.25" y="-81.37" font-family="Helvetica,sans-Serif" font-size="15.00" fill="#16a34a">0</text>
</g>
<!-- r4&#45;&gt;b4 -->
<g id="edge5" class="edge">
<title>r4&#45;&gt;b4</title>
<path fill="none" stroke="#16a34a" stroke-width="3.6" d="M250.79,-29.52C294.26,-29.52 374.56,-29.52 424.29,-29.52"/>
<polygon fill="#16a34a" stroke="#16a34a" stroke-width="3.6" points="424.01,-32.32 432.01,-29.52 424.01,-26.72 424.01,-32.32"/>
<text xml:space="preserve" text-anchor="middle" x="340" y="-31.02" font-family="Helvetica,sans-Serif" font-size="15.00" fill="#16a34a">1</text>
</g>
<!-- s -->
<g id="node1" class="node">
<title>s</title>
<ellipse fill="#fef3c7" stroke="#d97706" stroke-width="2" cx="29.52" cy="-130.62" rx="29.52" ry="29.52"/>
<text xml:space="preserve" text-anchor="middle" x="29.52" y="-123.47" font-family="Helvetica,sans-Serif" font-size="17.00">s</text>
</g>
<!-- r1 -->
<g id="node2" class="node">
<title>r1</title>
<ellipse fill="#dbeafe" stroke="#2563eb" stroke-width="2" cx="220.49" cy="-332.82" rx="29.52" ry="29.52"/>
<text xml:space="preserve" text-anchor="middle" x="220.49" y="-334.67" font-family="Helvetica,sans-Serif" font-size="17.00">r1</text>
<text xml:space="preserve" text-anchor="middle" x="220.49" y="-316.67" font-family="Helvetica,sans-Serif" font-size="17.00">0</text>
</g>
<!-- r2 -->
<g id="node3" class="node">
<title>r2</title>
<ellipse fill="#dbeafe" stroke="#2563eb" stroke-width="2" cx="220.49" cy="-231.72" rx="29.52" ry="29.52"/>
<text xml:space="preserve" text-anchor="middle" x="220.49" y="-233.57" font-family="Helvetica,sans-Serif" font-size="17.00">r2</text>
<text xml:space="preserve" text-anchor="middle" x="220.49" y="-215.57" font-family="Helvetica,sans-Serif" font-size="17.00">0</text>
</g>
<!-- r3 -->
<g id="node4" class="node">
<title>r3</title>
<ellipse fill="#dbeafe" stroke="#2563eb" stroke-width="2" cx="220.49" cy="-130.62" rx="29.52" ry="29.52"/>
<text xml:space="preserve" text-anchor="middle" x="220.49" y="-132.47" font-family="Helvetica,sans-Serif" font-size="17.00">r3</text>
<text xml:space="preserve" text-anchor="middle" x="220.49" y="-114.47" font-family="Helvetica,sans-Serif" font-size="17.00">0</text>
</g>
<!-- r4 -->
<g id="node5" class="node">
<title>r4</title>
<ellipse fill="#dbeafe" stroke="#2563eb" stroke-width="2" cx="220.49" cy="-29.52" rx="29.52" ry="29.52"/>
<text xml:space="preserve" text-anchor="middle" x="220.49" y="-31.37" font-family="Helvetica,sans-Serif" font-size="17.00">r4</text>
<text xml:space="preserve" text-anchor="middle" x="220.49" y="-13.37" font-family="Helvetica,sans-Serif" font-size="17.00">0</text>
</g>
<!-- b1 -->
<g id="node6" class="node">
<title>b1</title>
<ellipse fill="#ffedd5" stroke="#ea580c" stroke-width="2" cx="467.62" cy="-332.82" rx="29.52" ry="29.52"/>
<text xml:space="preserve" text-anchor="middle" x="467.62" y="-334.67" font-family="Helvetica,sans-Serif" font-size="17.00">b1</text>
<text xml:space="preserve" text-anchor="middle" x="467.62" y="-316.67" font-family="Helvetica,sans-Serif" font-size="17.00">5</text>
</g>
<!-- b2 -->
<g id="node7" class="node">
<title>b2</title>
<ellipse fill="#ffedd5" stroke="#ea580c" stroke-width="2" cx="467.62" cy="-231.72" rx="29.52" ry="29.52"/>
<text xml:space="preserve" text-anchor="middle" x="467.62" y="-233.57" font-family="Helvetica,sans-Serif" font-size="17.00">b2</text>
<text xml:space="preserve" text-anchor="middle" x="467.62" y="-215.57" font-family="Helvetica,sans-Serif" font-size="17.00">9</text>
</g>
<!-- b3 -->
<g id="node8" class="node">
<title>b3</title>
<ellipse fill="#ffedd5" stroke="#ea580c" stroke-width="2" cx="467.62" cy="-130.62" rx="29.52" ry="29.52"/>
<text xml:space="preserve" text-anchor="middle" x="467.62" y="-132.47" font-family="Helvetica,sans-Serif" font-size="17.00">b3</text>
<text xml:space="preserve" text-anchor="middle" x="467.62" y="-114.47" font-family="Helvetica,sans-Serif" font-size="17.00">3</text>
</g>
<!-- b4 -->
<g id="node9" class="node">
<title>b4</title>
<ellipse fill="#ffedd5" stroke="#ea580c" stroke-width="2" cx="467.62" cy="-29.52" rx="29.52" ry="29.52"/>
<text xml:space="preserve" text-anchor="middle" x="467.62" y="-31.37" font-family="Helvetica,sans-Serif" font-size="17.00">b4</text>
<text xml:space="preserve" text-anchor="middle" x="467.62" y="-13.37" font-family="Helvetica,sans-Serif" font-size="17.00">1</text>
</g>
</g>
</svg>
