<?xml version="1.0" encoding="UTF-8" standalone="no"?>
<!DOCTYPE svg PUBLIC "-//W3C//DTD SVG 1.1//EN"
 "http://www.w3.org/Graphics/SVG/1.1/DTD/svg11.dtd">
<!-- Generated by graphviz version 14.1.3 (20260303.0454)
 -->
<!-- Title: G Pages: 1 -->
<svg width="486pt" height="334pt"
 viewBox="0.00 0.00 486.00 334.00" xmlns="http://www.w3.org/2000/svg" xmlns:xlink="http://www.w3.org/1999/xlink">
<g id="graph0" class="graph" transform="scale(1 1) rotate(0) translate(25.2 308.7)">
<title>G</title>
<polygon fill="white" stroke="none" points="-25.2,25.2 -25.2,-308.7 461.2,-308.7 461.2,25.2 -25.2,25.2"/>
<text xml:space="preserve" text-anchor="middle" x="218" y="-260.5" font-family="Helvetica,sans-Serif" font-size="20.00">Final perfect matching from the lecture example</text>
<!-- t -->
<g id="node1" class="node">
<title>t</title>
<polygon fill="none" stroke="black" points="98.12,-203 98.12,-253.5 144.88,-253.5 144.88,-203 98.12,-203"/>
<polygon fill="none" stroke="black" points="144.88,-203 144.88,-253.5 193.12,-253.5 193.12,-203 144.88,-203"/>
<text xml:space="preserve" text-anchor="start" x="161.88" y="-224.2" font-family="Times,serif" font-weight="bold" font-size="14.00">b1</text>
<polygon fill="none" stroke="black" points="193.12,-203 193.12,-253.5 241.38,-253.5 241.38,-203 193.12,-203"/>
<text xml:space="preserve" text-anchor="start" x="210.12" y="-224.2" font-family="Times,serif" font-weight="bold" font-size="14.00">b2</text>
<polygon fill="none" stroke="black" points="241.38,-203 241.38,-253.5 289.62,-253.5 289.62,-203 241.38,-203"/>
<text xml:space="preserve" text-anchor="start" x="258.38" y="-224.2" font-family="Times,serif" font-weight="bold" font-size="14.00">b3</text>
<polygon fill="none" stroke="black" points="289.62,-203 289.62,-253.5 337.88,-253.5 337.88,-203 289.62,-203"/>
<text xml:space="preserve" text-anchor="start" x="306.62" y="-224.2" font-family="Times,serif" font-weight="bold" font-size="14.00">b4</text>
<polygon fill="none" stroke="black" points="98.12,-152.5 98.12,-203 144.88,-203 144.88,-152.5 98.12,-152.5"/>
<text xml:space="preserve" text-anchor="start" x="115.12" y="-173.7" font-family="Times,serif" font-weight="bold" font-size="14.00">r1</text>
<polygon fill="none" stroke="black" points="144.88,-152.5 144.88,-203 193.12,-203 193.12,-152.5 144.88,-152.5"/>
<text xml:space="preserve" text-anchor="start" x="164.12" y="-173.7" font-family="Times,serif" font-weight="bold" font-size="14.00">X</text>
<polygon fill="none" stroke="black" points="193.12,-152.5 193.12,-203 241.38,-203 241.38,-152.5 193.12,-152.5"/>
<polygon fill="none" stroke="black" points="241.38,-152.5 241.38,-203 289.62,-203 289.62,-152.5 241.38,-152.5"/>
<polygon fill="none" stroke="black" points="289.62,-152.5 289.62,-203 337.88,-203 337.88,-152.5 289.62,-152.5"/>
<polygon fill="none" stroke="black" points="98.12,-102 98.12,-152.5 144.88,-152.5 144.88,-102 98.12,-102"/>
<text xml:space="preserve" text-anchor="start" x="115.12" y="-123.2" font-family="Times,serif" font-weight="bold" font-size="14.00">r2</text>
<polygon fill="none" stroke="black" points="144.88,-102 144.88,-152.5 193.12,-152.5 193.12,-102 144.88,-102"/>
<polygon fill="none" stroke="black" points="193.12,-102 193.12,-152.5 241.38,-152.5 241.38,-102 193.12,-102"/>
<text xml:space="preserve" text-anchor="start" x="212.38" y="-123.2" font-family="Times,serif" font-weight="bold" font-size="14.00">X</text>
<polygon fill="none" stroke="black" points="241.38,-102 241.38,-152.5 289.62,-152.5 289.62,-102 241.38,-102"/>
<polygon fill="none" stroke="black" points="289.62,-102 289.62,-152.5 337.88,-152.5 337.88,-102 289.62,-102"/>
<polygon fill="none" stroke="black" points="98.12,-51.5 98.12,-102 144.88,-102 144.88,-51.5 98.12,-51.5"/>
<text xml:space="preserve" text-anchor="start" x="115.12" y="-72.7" font-family="Times,serif" font-weight="bold" font-size="14.00">r3</text>
<polygon fill="none" stroke="black" points="144.88,-51.5 144.88,-102 193.12,-102 193.12,-51.5 144.88,-51.5"/>
<polygon fill="none" stroke="black" points="193.12,-51.5 193.12,-102 241.38,-102 241.38,-51.5 193.12,-51.5"/>
<polygon fill="none" stroke="black" points="241.38,-51.5 241.38,-102 289.62,-102 289.62,-51.5 241.38,-51.5"/>
<polygon fill="none" stroke="black" points="289.62,-51.5 289.62,-102 337.88,-102 337.88,-51.5 289.62,-51.5"/>
<text xml:space="preserve" text-anchor="start" x="308.88" y="-72.7" font-family="Times,serif" font-weight="bold" font-size="14.00">X</text>
<polygon fill="none" stroke="black" points="98.12,-1 98.12,-51.5 144.88,-51.5 144.88,-1 98.12,-1"/>
<text xml:space="preserve" text-anchor="start" x="115.12" y="-22.2" font-family="Times,serif" font-weight="bold" font-size="14.00">r4</text>
<polygon fill="none" stroke="black" points="144.88,-1 144.88,-51.5 193.12,-51.5 193.12,-1 144.88,-1"/>
<polygon fill="none" stroke="black" points="193.12,-1 193.12,-51.5 241.38,-51.5 241.38,-1 193.12,-1"/>
<polygon fill="none" stroke="black" points="241.38,-1 241.38,-51.5 289.62,-51.5 289.62,-1 241.38,-1"/>
<text xml:space="preserve" text-anchor="start" x="260.62" y="-22.2" font-family="Times,serif" font-weight="bold" font-size="14.00">X</text>
<polygon fill="none" stroke="black" points="289.62,-1 289.62,-51.5 337.88,-51.5 337.88,-1 289.62,-1"/>
<polygon fill="none" stroke="black" points="97.12,0 97.12,-254.5 338.88,-254.5 338.88,0 97.12,0"/>
</g>
</g>
</svg>
