<?xml version="1.0" encoding="UTF-8" standalone="no"?>
<!DOCTYPE svg PUBLIC "-//W3C//DTD SVG 1.1//EN"
 "http://www.w3.org/Graphics/SVG/1.1/DTD/svg11.dtd">
<!-- Generated by graphviz version 14.1.3 (20260303.0454)
 -->
<!-- Title: G Pages: 1 -->
<svg width="487pt" height="288pt"
 viewBox="0.00 0.00 487.00 288.00" xmlns="http://www.w3.org/2000/svg" xmlns:xlink="http://www.w3.org/1999/xlink">
<g id="graph0" class="graph" transform="scale(1 1) rotate(0) translate(25.2 263.2)">
<title>G</title>
<polygon fill="white" stroke="none" points="-25.2,25.2 -25.2,-263.2 461.95,-263.2 461.95,25.2 -25.2,25.2"/>
<text xml:space="preserve" text-anchor="middle" x="218.38" y="-215" font-family="Helvetica,sans-Serif" font-size="20.00">Step 0: initial adjusted weights and zero heights</text>
<!-- t -->
<g id="node1" class="node">
<title>t</title>
<polygon fill="none" stroke="black" points="114.12,-173.5 114.12,-208 196.62,-208 196.62,-173.5 114.12,-173.5"/>
<polygon fill="none" stroke="black" points="196.62,-173.5 196.62,-208 322.62,-208 322.62,-173.5 196.62,-173.5"/>
<text xml:space="preserve" text-anchor="start" x="224.75" y="-186.7" font-family="Times,serif" font-weight="bold" font-size="14.00">blue heights</text>
<polygon fill="none" stroke="black" points="114.12,-139 114.12,-173.5 196.62,-173.5 196.62,-139 114.12,-139"/>
<text xml:space="preserve" text-anchor="start" x="123.12" y="-152.2" font-family="Times,serif" font-weight="bold" font-size="14.00">red heights</text>
<polygon fill="none" stroke="black" points="196.62,-139 196.62,-173.5 228.12,-173.5 228.12,-139 196.62,-139"/>
<text xml:space="preserve" text-anchor="start" x="209" y="-151.75" font-family="Times,serif" font-size="14.00">0</text>
<polygon fill="none" stroke="black" points="228.12,-139 228.12,-173.5 259.62,-173.5 259.62,-139 228.12,-139"/>
<text xml:space="preserve" text-anchor="start" x="240.5" y="-151.75" font-family="Times,serif" font-size="14.00">0</text>
<polygon fill="none" stroke="black" points="259.62,-139 259.62,-173.5 291.12,-173.5 291.12,-139 259.62,-139"/>
<text xml:space="preserve" text-anchor="start" x="272" y="-151.75" font-family="Times,serif" font-size="14.00">0</text>
<polygon fill="none" stroke="black" points="291.12,-139 291.12,-173.5 322.62,-173.5 322.62,-139 291.12,-139"/>
<text xml:space="preserve" text-anchor="start" x="303.5" y="-151.75" font-family="Times,serif" font-size="14.00">0</text>
<polygon fill="none" stroke="black" points="114.12,-104.5 114.12,-139 196.62,-139 196.62,-104.5 114.12,-104.5"/>
<text xml:space="preserve" text-anchor="start" x="152" y="-117.25" font-family="Times,serif" font-size="14.00">0</text>
<polygon fill="none" stroke="black" points="196.62,-104.5 196.62,-139 228.12,-139 228.12,-104.5 196.62,-104.5"/>
<text xml:space="preserve" text-anchor="start" x="209" y="-117.25" font-family="Times,serif" font-size="14.00">5</text>
<polygon fill="none" stroke="black" points="228.12,-104.5 228.12,-139 259.62,-139 259.62,-104.5 228.12,-104.5"/>
<text xml:space="preserve" text-anchor="start" x="240.5" y="-117.25" font-family="Times,serif" font-size="14.00">9</text>
<polygon fill="none" stroke="black" points="259.62,-104.5 259.62,-139 291.12,-139 291.12,-104.5 259.62,-104.5"/>
<text xml:space="preserve" text-anchor="start" x="268.62" y="-117.25" font-family="Times,serif" font-size="14.00">17</text>
<polygon fill="none" stroke="black" points="291.12,-104.5 291.12,-139 322.62,-139 322.62,-104.5 291.12,-104.5"/>
<text xml:space="preserve" text-anchor="start" x="300.12" y="-117.25" font-family="Times,serif" font-size="14.00">21</text>
<polygon fill="none" stroke="black" points="114.12,-70 114.12,-104.5 196.62,-104.5 196.62,-70 114.12,-70"/>
<text xml:space="preserve" text-anchor="start" x="152" y="-82.75" font-family="Times,serif" font-size="14.00">0</text>
<polygon fill="none" stroke="black" points="196.62,-70 196.62,-104.5 228.12,-104.5 228.12,-70 196.62,-70"/>
<text xml:space="preserve" text-anchor="start" x="209" y="-82.75" font-family="Times,serif" font-size="14.00">8</text>
<polygon fill="none" stroke="black" points="228.12,-70 228.12,-104.5 259.62,-104.5 259.62,-70 228.12,-70"/>
<text xml:space="preserve" text-anchor="start" x="237.12" y="-82.75" font-family="Times,serif" font-size="14.00">12</text>
<polygon fill="none" stroke="black" points="259.62,-70 259.62,-104.5 291.12,-104.5 291.12,-70 259.62,-70"/>
<text xml:space="preserve" text-anchor="start" x="268.62" y="-82.75" font-family="Times,serif" font-size="14.00">25</text>
<polygon fill="none" stroke="black" points="291.12,-70 291.12,-104.5 322.62,-104.5 322.62,-70 291.12,-70"/>
<text xml:space="preserve" text-anchor="start" x="300.12" y="-82.75" font-family="Times,serif" font-size="14.00">18</text>
<polygon fill="none" stroke="black" points="114.12,-35.5 114.12,-70 196.62,-70 196.62,-35.5 114.12,-35.5"/>
<text xml:space="preserve" text-anchor="start" x="152" y="-48.25" font-family="Times,serif" font-size="14.00">0</text>
<polygon fill="none" stroke="black" points="196.62,-35.5 196.62,-70 228.12,-70 228.12,-35.5 196.62,-35.5"/>
<text xml:space="preserve" text-anchor="start" x="205.62" y="-48.25" font-family="Times,serif" font-size="14.00">14</text>
<polygon fill="none" stroke="black" points="228.12,-35.5 228.12,-70 259.62,-70 259.62,-35.5 228.12,-35.5"/>
<text xml:space="preserve" text-anchor="start" x="237.12" y="-48.25" font-family="Times,serif" font-size="14.00">23</text>
<polygon fill="none" stroke="black" points="259.62,-35.5 259.62,-70 291.12,-70 291.12,-35.5 259.62,-35.5"/>
<text xml:space="preserve" text-anchor="start" x="268.62" y="-48.25" font-family="Times,serif" font-size="14.00">15</text>
<polygon fill="none" stroke="black" points="291.12,-35.5 291.12,-70 322.62,-70 322.62,-35.5 291.12,-35.5"/>
<text xml:space="preserve" text-anchor="start" x="303.5" y="-48.25" font-family="Times,serif" font-size="14.00">6</text>
<polygon fill="none" stroke="black" points="114.12,-1 114.12,-35.5 196.62,-35.5 196.62,-1 114.12,-1"/>
<text xml:space="preserve" text-anchor="start" x="152" y="-13.75" font-family="Times,serif" font-size="14.00">0</text>
<polygon fill="none" stroke="black" points="196.62,-1 196.62,-35.5 228.12,-35.5 228.12,-1 196.62,-1"/>
<text xml:space="preserve" text-anchor="start" x="205.62" y="-13.75" font-family="Times,serif" font-size="14.00">19</text>
<polygon fill="none" stroke="black" points="228.12,-1 228.12,-35.5 259.62,-35.5 259.62,-1 228.12,-1"/>
<text xml:space="preserve" text-anchor="start" x="237.12" y="-13.75" font-family="Times,serif" font-size="14.00">16</text>
<polygon fill="none" stroke="black" points="259.62,-1 259.62,-35.5 291.12,-35.5 291.12,-1 259.62,-1"/>
<text xml:space="preserve" text-anchor="start" x="272" y="-13.75" font-family="Times,serif" font-size="14.00">3</text>
<polygon fill="none" stroke="black" points="291.12,-1 291.12,-35.5 322.62,-35.5 322.62,-1 291.12,-1"/>
<text xml:space="preserve" text-anchor="start" x="303.5" y="-13.75" font-family="Times,serif" font-size="14.00">1</text>
<polygon fill="none" stroke="black" points="113.12,0 113.12,-209 323.62,-209 323.62,0 113.12,0"/>
</g>
</g>
</svg>
