<?xml version="1.0" encoding="UTF-8" standalone="no"?>
<!DOCTYPE svg PUBLIC "-//W3C//DTD SVG 1.1//EN"
 "http://www.w3.org/Graphics/SVG/1.1/DTD/svg11.dtd">
<!-- Generated by graphviz version 14.1.3 (20260303.0454)
 -->
<!-- Title: G Pages: 1 -->
<svg width="498pt" height="254pt"
 viewBox="0.00 0.00 498.00 254.00" xmlns="http://www.w3.org/2000/svg" xmlns:xlink="http://www.w3.org/1999/xlink">
<g id="graph0" class="graph" transform="scale(1 1) rotate(0) translate(25.2 228.7)">
<title>G</title>
<polygon fill="white" stroke="none" points="-25.2,25.2 -25.2,-228.7 472.7,-228.7 472.7,25.2 -25.2,25.2"/>
<text xml:space="preserve" text-anchor="middle" x="223.75" y="-180.5" font-family="Helvetica,sans-Serif" font-size="20.00">Lecture 9b Hungarian trace summary</text>
<!-- t -->
<g id="node1" class="node">
<title>t</title>
<polygon fill="none" stroke="black" points="1,-139 1,-173.5 44.5,-173.5 44.5,-139 1,-139"/>
<text xml:space="preserve" text-anchor="start" x="10" y="-152.2" font-family="Times,serif" font-weight="bold" font-size="14.00">Step</text>
<polygon fill="none" stroke="black" points="44.5,-139 44.5,-173.5 208,-173.5 208,-139 44.5,-139"/>
<text xml:space="preserve" text-anchor="start" x="53.5" y="-152.2" font-family="Times,serif" font-weight="bold" font-size="14.00">Shortest alternating path</text>
<polygon fill="none" stroke="black" points="208,-139 208,-173.5 275.5,-173.5 275.5,-139 208,-139"/>
<text xml:space="preserve" text-anchor="start" x="217" y="-152.2" font-family="Times,serif" font-weight="bold" font-size="14.00">Distance</text>
<polygon fill="none" stroke="black" points="275.5,-139 275.5,-173.5 446.5,-173.5 446.5,-139 275.5,-139"/>
<text xml:space="preserve" text-anchor="start" x="290.12" y="-152.2" font-family="Times,serif" font-weight="bold" font-size="14.00">Matching after augment</text>
<polygon fill="none" stroke="black" points="1,-104.5 1,-139 44.5,-139 44.5,-104.5 1,-104.5"/>
<text xml:space="preserve" text-anchor="start" x="19.38" y="-117.25" font-family="Times,serif" font-size="14.00">1</text>
<polygon fill="none" stroke="black" points="44.5,-104.5 44.5,-139 208,-139 208,-104.5 44.5,-104.5"/>
<text xml:space="preserve" text-anchor="start" x="91" y="-117.25" font-family="Times,serif" font-size="14.00">s &#45;&gt; r4 &#45;&gt; b4</text>
<polygon fill="none" stroke="black" points="208,-104.5 208,-139 275.5,-139 275.5,-104.5 208,-104.5"/>
<text xml:space="preserve" text-anchor="start" x="238.38" y="-117.25" font-family="Times,serif" font-size="14.00">1</text>
<polygon fill="none" stroke="black" points="275.5,-104.5 275.5,-139 446.5,-139 446.5,-104.5 275.5,-104.5"/>
<text xml:space="preserve" text-anchor="start" x="339.62" y="-117.25" font-family="Times,serif" font-size="14.00">{r4&#45;b4}</text>
<polygon fill="none" stroke="black" points="1,-70 1,-104.5 44.5,-104.5 44.5,-70 1,-70"/>
<text xml:space="preserve" text-anchor="start" x="19.38" y="-82.75" font-family="Times,serif" font-size="14.00">2</text>
<polygon fill="none" stroke="black" points="44.5,-70 44.5,-104.5 208,-104.5 208,-70 44.5,-70"/>
<text xml:space="preserve" text-anchor="start" x="91" y="-82.75" font-family="Times,serif" font-size="14.00">s &#45;&gt; r1 &#45;&gt; b1</text>
<polygon fill="none" stroke="black" points="208,-70 208,-104.5 275.5,-104.5 275.5,-70 208,-70"/>
<text xml:space="preserve" text-anchor="start" x="238.38" y="-82.75" font-family="Times,serif" font-size="14.00">0</text>
<polygon fill="none" stroke="black" points="275.5,-70 275.5,-104.5 446.5,-104.5 446.5,-70 275.5,-70"/>
<text xml:space="preserve" text-anchor="start" x="321.25" y="-82.75" font-family="Times,serif" font-size="14.00">{r1&#45;b1, r4&#45;b4}</text>
<polygon fill="none" stroke="black" points="1,-35.5 1,-70 44.5,-70 44.5,-35.5 1,-35.5"/>
<text xml:space="preserve" text-anchor="start" x="19.38" y="-48.25" font-family="Times,serif" font-size="14.00">3</text>
<polygon fill="none" stroke="black" points="44.5,-35.5 44.5,-70 208,-70 208,-35.5 44.5,-35.5"/>
<text xml:space="preserve" text-anchor="start" x="58.38" y="-48.25" font-family="Times,serif" font-size="14.00">s &#45;&gt; r3 &#45;&gt; b4 &#45;&gt; r4 &#45;&gt; b3</text>
<polygon fill="none" stroke="black" points="208,-35.5 208,-70 275.5,-70 275.5,-35.5 208,-35.5"/>
<text xml:space="preserve" text-anchor="start" x="238.38" y="-48.25" font-family="Times,serif" font-size="14.00">0</text>
<polygon fill="none" stroke="black" points="275.5,-35.5 275.5,-70 446.5,-70 446.5,-35.5 275.5,-35.5"/>
<text xml:space="preserve" text-anchor="start" x="302.88" y="-48.25" font-family="Times,serif" font-size="14.00">{r1&#45;b1, r3&#45;b4, r4&#45;b3}</text>
<polygon fill="none" stroke="black" points="1,-1 1,-35.5 44.5,-35.5 44.5,-1 1,-1"/>
<text xml:space="preserve" text-anchor="start" x="19.38" y="-13.75" font-family="Times,serif" font-size="14.00">4</text>
<polygon fill="none" stroke="black" points="44.5,-1 44.5,-35.5 208,-35.5 208,-1 44.5,-1"/>
<text xml:space="preserve" text-anchor="start" x="91" y="-13.75" font-family="Times,serif" font-size="14.00">s &#45;&gt; r2 &#45;&gt; b2</text>
<polygon fill="none" stroke="black" points="208,-1 208,-35.5 275.5,-35.5 275.5,-1 208,-1"/>
<text xml:space="preserve" text-anchor="start" x="238.38" y="-13.75" font-family="Times,serif" font-size="14.00">0</text>
<polygon fill="none" stroke="black" points="275.5,-1 275.5,-35.5 446.5,-35.5 446.5,-1 275.5,-1"/>
<text xml:space="preserve" text-anchor="start" x="284.5" y="-13.75" font-family="Times,serif" font-size="14.00">{r1&#45;b1, r2&#45;b2, r3&#45;b4, r4&#45;b3}</text>
<polygon fill="none" stroke="black" points="0,0 0,-174.5 447.5,-174.5 447.5,0 0,0"/>
</g>
</g>
</svg>
