<?xml version="1.0" encoding="UTF-8" standalone="no"?>
<!DOCTYPE svg PUBLIC "-//W3C//DTD SVG 1.1//EN"
 "http://www.w3.org/Graphics/SVG/1.1/DTD/svg11.dtd">
<!-- Generated by graphviz version 14.1.3 (20260303.0454)
 -->
<!-- Title: G Pages: 1 -->
<svg width="449pt" height="449pt"
 viewBox="0.00 0.00 449.00 449.00" xmlns="http://www.w3.org/2000/svg" xmlns:xlink="http://www.w3.org/1999/xlink">
<g id="graph0" class="graph" transform="scale(1 1) rotate(0) translate(21.6 427.84)">
<title>G</title>
<polygon fill="white" stroke="none" points="-21.6,21.6 -21.6,-427.84 426.91,-427.84 426.91,21.6 -21.6,21.6"/>
<text xml:space="preserve" text-anchor="middle" x="202.66" y="-383.24" font-family="Helvetica,sans-Serif" font-size="20.00">Question 3: compatibility/conflict graph = K3</text>
<!-- f14&#45;&#45;f25 -->
<g id="edge1" class="edge">
<title>f14&#45;&#45;f25</title>
<path fill="none" stroke="#dc2626" stroke-width="2.4" d="M185.89,-312.3C153.6,-253.1 83.14,-123.92 50.9,-64.82"/>
</g>
<!-- f25&#45;&#45;f36 -->
<g id="edge2" class="edge">
<title>f25&#45;&#45;f36</title>
<path fill="none" stroke="#dc2626" stroke-width="2.4" d="M69.3,-34.2C134.02,-34.2 271.43,-34.2 336.09,-34.2"/>
</g>
<!-- f36&#45;&#45;f14 -->
<g id="edge3" class="edge">
<title>f36&#45;&#45;f14</title>
<path fill="none" stroke="#dc2626" stroke-width="2.4" d="M354.35,-64.94C322.06,-124.14 251.59,-253.32 219.36,-312.42"/>
</g>
<!-- f14 -->
<g id="node1" class="node">
<title>f14</title>
<ellipse fill="#fee2e2" stroke="#dc2626" stroke-width="2" cx="202.66" cy="-343.04" rx="34.2" ry="34.2"/>
<text xml:space="preserve" text-anchor="middle" x="202.66" y="-337.24" font-family="Helvetica,sans-Serif" font-size="14.00">F14</text>
</g>
<!-- f25 -->
<g id="node2" class="node">
<title>f25</title>
<ellipse fill="#fee2e2" stroke="#dc2626" stroke-width="2" cx="34.2" cy="-34.2" rx="34.2" ry="34.2"/>
<text xml:space="preserve" text-anchor="middle" x="34.2" y="-28.4" font-family="Helvetica,sans-Serif" font-size="14.00">F25</text>
</g>
<!-- f36 -->
<g id="node3" class="node">
<title>f36</title>
<ellipse fill="#fee2e2" stroke="#dc2626" stroke-width="2" cx="371.11" cy="-34.2" rx="34.2" ry="34.2"/>
<text xml:space="preserve" text-anchor="middle" x="371.11" y="-28.4" font-family="Helvetica,sans-Serif" font-size="14.00">F36</text>
</g>
</g>
</svg>
