<?xml version="1.0" encoding="UTF-8" standalone="no"?>
<!DOCTYPE svg PUBLIC "-//W3C//DTD SVG 1.1//EN"
 "http://www.w3.org/Graphics/SVG/1.1/DTD/svg11.dtd">
<!-- Generated by graphviz version 14.1.3 (20260303.0454)
 -->
<!-- Title: G Pages: 1 -->
<svg width="729pt" height="267pt"
 viewBox="0.00 0.00 729.00 267.00" xmlns="http://www.w3.org/2000/svg" xmlns:xlink="http://www.w3.org/1999/xlink">
<g id="graph0" class="graph" transform="scale(1 1) rotate(0) translate(21.6 245.1)">
<title>G</title>
<polygon fill="white" stroke="none" points="-21.6,21.6 -21.6,-245.1 707.1,-245.1 707.1,21.6 -21.6,21.6"/>
<text xml:space="preserve" text-anchor="middle" x="342.75" y="-200.5" font-family="Helvetica,sans-Serif" font-size="20.00">Question 3: the flaps generated by C</text>
<!-- t -->
<g id="node1" class="node">
<title>t</title>
<polygon fill="none" stroke="black" points="1,-155 1,-193.5 130.33,-193.5 130.33,-155 1,-155"/>
<text xml:space="preserve" text-anchor="start" x="22.17" y="-170.2" font-family="Times,serif" font-weight="bold" font-size="14.00">Non&#45;cycle edge</text>
<polygon fill="none" stroke="black" points="130.33,-155 130.33,-193.5 230.42,-193.5 230.42,-155 130.33,-155"/>
<text xml:space="preserve" text-anchor="start" x="151.5" y="-170.2" font-family="Times,serif" font-weight="bold" font-size="14.00">Flap label</text>
<polygon fill="none" stroke="black" points="230.42,-155 230.42,-193.5 684.5,-193.5 684.5,-155 230.42,-155"/>
<text xml:space="preserve" text-anchor="start" x="412.46" y="-170.2" font-family="Times,serif" font-weight="bold" font-size="14.00">Why it is a flap</text>
<polygon fill="none" stroke="black" points="1,-116.5 1,-155 130.33,-155 130.33,-116.5 1,-116.5"/>
<text xml:space="preserve" text-anchor="start" x="52.54" y="-131.25" font-family="Times,serif" font-size="14.00">(1,4)</text>
<polygon fill="none" stroke="black" points="130.33,-116.5 130.33,-155 230.42,-155 230.42,-116.5 130.33,-116.5"/>
<text xml:space="preserve" text-anchor="start" x="169.88" y="-131.25" font-family="Times,serif" font-size="14.00">F14</text>
<polygon fill="none" stroke="black" points="230.42,-116.5 230.42,-155 684.5,-155 684.5,-116.5 230.42,-116.5"/>
<text xml:space="preserve" text-anchor="start" x="241.42" y="-131.25" font-family="Times,serif" font-size="14.00">All endpoints already lie on C, so this chord is one isolated off&#45;cycle piece.</text>
<polygon fill="none" stroke="black" points="1,-78 1,-116.5 130.33,-116.5 130.33,-78 1,-78"/>
<text xml:space="preserve" text-anchor="start" x="52.54" y="-92.75" font-family="Times,serif" font-size="14.00">(2,5)</text>
<polygon fill="none" stroke="black" points="130.33,-78 130.33,-116.5 230.42,-116.5 230.42,-78 130.33,-78"/>
<text xml:space="preserve" text-anchor="start" x="169.88" y="-92.75" font-family="Times,serif" font-size="14.00">F25</text>
<polygon fill="none" stroke="black" points="230.42,-78 230.42,-116.5 684.5,-116.5 684.5,-78 230.42,-78"/>
<text xml:space="preserve" text-anchor="start" x="241.42" y="-92.75" font-family="Times,serif" font-size="14.00">Same reason.</text>
<polygon fill="none" stroke="black" points="1,-39.5 1,-78 130.33,-78 130.33,-39.5 1,-39.5"/>
<text xml:space="preserve" text-anchor="start" x="52.54" y="-54.25" font-family="Times,serif" font-size="14.00">(3,6)</text>
<polygon fill="none" stroke="black" points="130.33,-39.5 130.33,-78 230.42,-78 230.42,-39.5 130.33,-39.5"/>
<text xml:space="preserve" text-anchor="start" x="169.88" y="-54.25" font-family="Times,serif" font-size="14.00">F36</text>
<polygon fill="none" stroke="black" points="230.42,-39.5 230.42,-78 684.5,-78 684.5,-39.5 230.42,-39.5"/>
<text xml:space="preserve" text-anchor="start" x="241.42" y="-54.25" font-family="Times,serif" font-size="14.00">Same reason.</text>
<polygon fill="none" stroke="black" points="1,-1 1,-39.5 684.5,-39.5 684.5,-1 1,-1"/>
<text xml:space="preserve" text-anchor="start" x="12" y="-15.75" font-family="Times,serif" font-size="14.00">After the textbook split&#45;edge step, each chord becomes one tiny connected component, so each chord is exactly one flap.</text>
<polygon fill="none" stroke="black" points="0,0 0,-194.5 685.5,-194.5 685.5,0 0,0"/>
</g>
</g>
</svg>
