<?xml version="1.0" encoding="UTF-8" standalone="no"?>
<!DOCTYPE svg PUBLIC "-//W3C//DTD SVG 1.1//EN"
 "http://www.w3.org/Graphics/SVG/1.1/DTD/svg11.dtd">
<!-- Generated by graphviz version 14.1.3 (20260303.0454)
 -->
<!-- Title: G Pages: 1 -->
<svg width="415pt" height="228pt"
 viewBox="0.00 0.00 415.00 228.00" xmlns="http://www.w3.org/2000/svg" xmlns:xlink="http://www.w3.org/1999/xlink">
<g id="graph0" class="graph" transform="scale(1 1) rotate(0) translate(21.6 206.6)">
<title>G</title>
<polygon fill="white" stroke="none" points="-21.6,21.6 -21.6,-206.6 393.1,-206.6 393.1,21.6 -21.6,21.6"/>
<text xml:space="preserve" text-anchor="middle" x="185.75" y="-162" font-family="Helvetica,sans-Serif" font-size="20.00">Question 3: pairwise interleaving checks</text>
<!-- t -->
<g id="node1" class="node">
<title>t</title>
<polygon fill="none" stroke="black" points="44,-116.5 44,-155 127.5,-155 127.5,-116.5 44,-116.5"/>
<text xml:space="preserve" text-anchor="start" x="73.38" y="-131.7" font-family="Times,serif" font-weight="bold" font-size="14.00">Pair</text>
<polygon fill="none" stroke="black" points="127.5,-116.5 127.5,-155 252.25,-155 252.25,-116.5 127.5,-116.5"/>
<text xml:space="preserve" text-anchor="start" x="138.5" y="-131.7" font-family="Times,serif" font-weight="bold" font-size="14.00">Cyclic order on C</text>
<polygon fill="none" stroke="black" points="252.25,-116.5 252.25,-155 327.5,-155 327.5,-116.5 252.25,-116.5"/>
<text xml:space="preserve" text-anchor="start" x="263.25" y="-131.7" font-family="Times,serif" font-weight="bold" font-size="14.00">Conflict?</text>
<polygon fill="none" stroke="black" points="44,-78 44,-116.5 127.5,-116.5 127.5,-78 44,-78"/>
<text xml:space="preserve" text-anchor="start" x="55" y="-92.75" font-family="Times,serif" font-size="14.00">F14 vs F25</text>
<polygon fill="none" stroke="black" points="127.5,-78 127.5,-116.5 252.25,-116.5 252.25,-78 127.5,-78"/>
<text xml:space="preserve" text-anchor="start" x="165.12" y="-92.75" font-family="Times,serif" font-size="14.00">1, 2, 4, 5</text>
<polygon fill="none" stroke="black" points="252.25,-78 252.25,-116.5 327.5,-116.5 327.5,-78 252.25,-78"/>
<text xml:space="preserve" text-anchor="start" x="279.75" y="-92.75" font-family="Times,serif" font-size="14.00">Yes</text>
<polygon fill="none" stroke="black" points="44,-39.5 44,-78 127.5,-78 127.5,-39.5 44,-39.5"/>
<text xml:space="preserve" text-anchor="start" x="55" y="-54.25" font-family="Times,serif" font-size="14.00">F14 vs F36</text>
<polygon fill="none" stroke="black" points="127.5,-39.5 127.5,-78 252.25,-78 252.25,-39.5 127.5,-39.5"/>
<text xml:space="preserve" text-anchor="start" x="165.12" y="-54.25" font-family="Times,serif" font-size="14.00">1, 3, 4, 6</text>
<polygon fill="none" stroke="black" points="252.25,-39.5 252.25,-78 327.5,-78 327.5,-39.5 252.25,-39.5"/>
<text xml:space="preserve" text-anchor="start" x="279.75" y="-54.25" font-family="Times,serif" font-size="14.00">Yes</text>
<polygon fill="none" stroke="black" points="44,-1 44,-39.5 127.5,-39.5 127.5,-1 44,-1"/>
<text xml:space="preserve" text-anchor="start" x="55" y="-15.75" font-family="Times,serif" font-size="14.00">F25 vs F36</text>
<polygon fill="none" stroke="black" points="127.5,-1 127.5,-39.5 252.25,-39.5 252.25,-1 127.5,-1"/>
<text xml:space="preserve" text-anchor="start" x="165.12" y="-15.75" font-family="Times,serif" font-size="14.00">2, 3, 5, 6</text>
<polygon fill="none" stroke="black" points="252.25,-1 252.25,-39.5 327.5,-39.5 327.5,-1 252.25,-1"/>
<text xml:space="preserve" text-anchor="start" x="279.75" y="-15.75" font-family="Times,serif" font-size="14.00">Yes</text>
<polygon fill="none" stroke="black" points="43,0 43,-156 328.5,-156 328.5,0 43,0"/>
</g>
</g>
</svg>
