<?xml version="1.0" encoding="UTF-8" standalone="no"?>
<!DOCTYPE svg PUBLIC "-//W3C//DTD SVG 1.1//EN"
 "http://www.w3.org/Graphics/SVG/1.1/DTD/svg11.dtd">
<!-- Generated by graphviz version 14.1.3 (20260303.0454)
 -->
<!-- Title: G Pages: 1 -->
<svg width="507pt" height="447pt"
 viewBox="0.00 0.00 507.00 447.00" xmlns="http://www.w3.org/2000/svg" xmlns:xlink="http://www.w3.org/1999/xlink">
<g id="graph0" class="graph" transform="scale(1 1) rotate(0) translate(25.2 421.4)">
<title>G</title>
<polygon fill="white" stroke="none" points="-25.2,25.2 -25.2,-421.4 482.2,-421.4 482.2,25.2 -25.2,25.2"/>
<text xml:space="preserve" text-anchor="middle" x="228.5" y="-373.2" font-family="Helvetica,sans-Serif" font-size="20.00">Question 2: the König&#45;theorem chain of reasoning</text>
<!-- a -->
<g id="node1" class="node">
<title>a</title>
<path fill="#dbeafe" stroke="#2563eb" stroke-width="1.8" d="M379.84,-367.2C379.84,-367.2 77.16,-367.2 77.16,-367.2 71.16,-367.2 65.16,-361.2 65.16,-355.2 65.16,-355.2 65.16,-343.2 65.16,-343.2 65.16,-337.2 71.16,-331.2 77.16,-331.2 77.16,-331.2 379.84,-331.2 379.84,-331.2 385.84,-331.2 391.84,-337.2 391.84,-343.2 391.84,-343.2 391.84,-355.2 391.84,-355.2 391.84,-361.2 385.84,-367.2 379.84,-367.2"/>
<text xml:space="preserve" text-anchor="middle" x="228.5" y="-342.05" font-family="Helvetica,sans-Serif" font-size="17.00">Connected + every vertex has degree 2</text>
</g>
<!-- b -->
<g id="node2" class="node">
<title>b</title>
<path fill="#f8fafc" stroke="#475569" stroke-width="1.8" d="M352.84,-295.2C352.84,-295.2 104.16,-295.2 104.16,-295.2 98.16,-295.2 92.16,-289.2 92.16,-283.2 92.16,-283.2 92.16,-271.2 92.16,-271.2 92.16,-265.2 98.16,-259.2 104.16,-259.2 104.16,-259.2 352.84,-259.2 352.84,-259.2 358.84,-259.2 364.84,-265.2 364.84,-271.2 364.84,-271.2 364.84,-283.2 364.84,-283.2 364.84,-289.2 358.84,-295.2 352.84,-295.2"/>
<text xml:space="preserve" text-anchor="middle" x="228.5" y="-270.05" font-family="Helvetica,sans-Serif" font-size="17.00">Therefore the graph is one cycle</text>
</g>
<!-- a&#45;&gt;b -->
<g id="edge1" class="edge">
<title>a&#45;&gt;b</title>
<path fill="none" stroke="#475569" stroke-width="1.8" d="M228.5,-330.54C228.5,-323.18 228.5,-314.47 228.5,-306.28"/>
<polygon fill="#475569" stroke="#475569" stroke-width="1.8" points="231.3,-306.34 228.5,-298.34 225.7,-306.34 231.3,-306.34"/>
</g>
<!-- c -->
<g id="node3" class="node">
<title>c</title>
<path fill="#fef3c7" stroke="#d97706" stroke-width="1.8" d="M322.46,-223.2C322.46,-223.2 134.54,-223.2 134.54,-223.2 128.54,-223.2 122.54,-217.2 122.54,-211.2 122.54,-211.2 122.54,-184.8 122.54,-184.8 122.54,-178.8 128.54,-172.8 134.54,-172.8 134.54,-172.8 322.46,-172.8 322.46,-172.8 328.46,-172.8 334.46,-178.8 334.46,-184.8 334.46,-184.8 334.46,-211.2 334.46,-211.2 334.46,-217.2 328.46,-223.2 322.46,-223.2"/>
<text xml:space="preserve" text-anchor="middle" x="228.5" y="-199.85" font-family="Helvetica,sans-Serif" font-size="17.00">Bipartite cycles are even</text>
<text xml:space="preserve" text-anchor="middle" x="228.5" y="-181.85" font-family="Helvetica,sans-Serif" font-size="17.00">So the graph is C200</text>
</g>
<!-- b&#45;&gt;c -->
<g id="edge2" class="edge">
<title>b&#45;&gt;c</title>
<path fill="none" stroke="#475569" stroke-width="1.8" d="M228.5,-258.68C228.5,-251.57 228.5,-243.07 228.5,-234.76"/>
<polygon fill="#475569" stroke="#475569" stroke-width="1.8" points="231.3,-234.78 228.5,-226.78 225.7,-234.78 231.3,-234.78"/>
</g>
<!-- d -->
<g id="node4" class="node">
<title>d</title>
<path fill="#dcfce7" stroke="#16a34a" stroke-width="1.8" d="M371.21,-136.8C371.21,-136.8 85.79,-136.8 85.79,-136.8 79.79,-136.8 73.79,-130.8 73.79,-124.8 73.79,-124.8 73.79,-98.4 73.79,-98.4 73.79,-92.4 79.79,-86.4 85.79,-86.4 85.79,-86.4 371.21,-86.4 371.21,-86.4 377.21,-86.4 383.21,-92.4 383.21,-98.4 383.21,-98.4 383.21,-124.8 383.21,-124.8 383.21,-130.8 377.21,-136.8 371.21,-136.8"/>
<text xml:space="preserve" text-anchor="middle" x="228.5" y="-113.45" font-family="Helvetica,sans-Serif" font-size="17.00">An even cycle has a perfect matching</text>
<text xml:space="preserve" text-anchor="middle" x="228.5" y="-95.45" font-family="Helvetica,sans-Serif" font-size="17.00">So M = 100</text>
</g>
<!-- c&#45;&gt;d -->
<g id="edge3" class="edge">
<title>c&#45;&gt;d</title>
<path fill="none" stroke="#475569" stroke-width="1.8" d="M228.5,-172.13C228.5,-164.65 228.5,-156.28 228.5,-148.23"/>
<polygon fill="#475569" stroke="#475569" stroke-width="1.8" points="231.3,-148.3 228.5,-140.3 225.7,-148.3 231.3,-148.3"/>
</g>
<!-- e -->
<g id="node5" class="node">
<title>e</title>
<path fill="#fee2e2" stroke="#dc2626" stroke-width="1.8" d="M341.96,-50.4C341.96,-50.4 115.04,-50.4 115.04,-50.4 109.04,-50.4 103.04,-44.4 103.04,-38.4 103.04,-38.4 103.04,-12 103.04,-12 103.04,-6 109.04,0 115.04,0 115.04,0 341.96,0 341.96,0 347.96,0 353.96,-6 353.96,-12 353.96,-12 353.96,-38.4 353.96,-38.4 353.96,-44.4 347.96,-50.4 341.96,-50.4"/>
<text xml:space="preserve" text-anchor="middle" x="228.5" y="-27.05" font-family="Helvetica,sans-Serif" font-size="17.00">König: M + I = n = 200</text>
<text xml:space="preserve" text-anchor="middle" x="228.5" y="-9.05" font-family="Helvetica,sans-Serif" font-size="17.00">Therefore I = 200 &#45; 100 = 100</text>
</g>
<!-- d&#45;&gt;e -->
<g id="edge4" class="edge">
<title>d&#45;&gt;e</title>
<path fill="none" stroke="#475569" stroke-width="1.8" d="M228.5,-85.73C228.5,-78.25 228.5,-69.88 228.5,-61.83"/>
<polygon fill="#475569" stroke="#475569" stroke-width="1.8" points="231.3,-61.9 228.5,-53.9 225.7,-61.9 231.3,-61.9"/>
</g>
</g>
</svg>
