<?xml version="1.0" encoding="UTF-8" standalone="no"?>
<!DOCTYPE svg PUBLIC "-//W3C//DTD SVG 1.1//EN"
 "http://www.w3.org/Graphics/SVG/1.1/DTD/svg11.dtd">
<!-- Generated by graphviz version 14.1.3 (20260303.0454)
 -->
<!-- Title: G Pages: 1 -->
<svg width="351pt" height="392pt"
 viewBox="0.00 0.00 351.00 392.00" xmlns="http://www.w3.org/2000/svg" xmlns:xlink="http://www.w3.org/1999/xlink">
<g id="graph0" class="graph" transform="scale(1 1) rotate(0) translate(25.2 366.7)">
<title>G</title>
<polygon fill="white" stroke="none" points="-25.2,25.2 -25.2,-366.7 326.2,-366.7 326.2,25.2 -25.2,25.2"/>
<text xml:space="preserve" text-anchor="middle" x="150.5" y="-318.5" font-family="Helvetica,sans-Serif" font-size="20.00">PS9 Problem 4 preference table</text>
<!-- prefs -->
<g id="node1" class="node">
<title>prefs</title>
<polygon fill="none" stroke="black" points="50.75,-277 50.75,-311.5 134,-311.5 134,-277 50.75,-277"/>
<text xml:space="preserve" text-anchor="start" x="59.75" y="-290.2" font-family="Times,serif" font-weight="bold" font-size="14.00">Participant</text>
<polygon fill="none" stroke="black" points="134,-277 134,-311.5 250.25,-311.5 250.25,-277 134,-277"/>
<text xml:space="preserve" text-anchor="start" x="143" y="-290.2" font-family="Times,serif" font-weight="bold" font-size="14.00">Preference order</text>
<polygon fill="none" stroke="black" points="50.75,-242.5 50.75,-277 134,-277 134,-242.5 50.75,-242.5"/>
<text xml:space="preserve" text-anchor="start" x="87.5" y="-255.25" font-family="Times,serif" font-size="14.00">A</text>
<polygon fill="none" stroke="black" points="134,-242.5 134,-277 250.25,-277 250.25,-242.5 134,-242.5"/>
<text xml:space="preserve" text-anchor="start" x="161.75" y="-255.25" font-family="Times,serif" font-size="14.00">Z, W, X, Y</text>
<polygon fill="none" stroke="black" points="50.75,-208 50.75,-242.5 134,-242.5 134,-208 50.75,-208"/>
<text xml:space="preserve" text-anchor="start" x="87.88" y="-220.75" font-family="Times,serif" font-size="14.00">B</text>
<polygon fill="none" stroke="black" points="134,-208 134,-242.5 250.25,-242.5 250.25,-208 134,-208"/>
<text xml:space="preserve" text-anchor="start" x="162.5" y="-220.75" font-family="Times,serif" font-size="14.00">W, X, Y, Z</text>
<polygon fill="none" stroke="black" points="50.75,-173.5 50.75,-208 134,-208 134,-173.5 50.75,-173.5"/>
<text xml:space="preserve" text-anchor="start" x="87.88" y="-186.25" font-family="Times,serif" font-size="14.00">C</text>
<polygon fill="none" stroke="black" points="134,-173.5 134,-208 250.25,-208 250.25,-173.5 134,-173.5"/>
<text xml:space="preserve" text-anchor="start" x="162.88" y="-186.25" font-family="Times,serif" font-size="14.00">Z, Y, W, X</text>
<polygon fill="none" stroke="black" points="50.75,-139 50.75,-173.5 134,-173.5 134,-139 50.75,-139"/>
<text xml:space="preserve" text-anchor="start" x="87.5" y="-151.75" font-family="Times,serif" font-size="14.00">D</text>
<polygon fill="none" stroke="black" points="134,-139 134,-173.5 250.25,-173.5 250.25,-139 134,-139"/>
<text xml:space="preserve" text-anchor="start" x="161.38" y="-151.75" font-family="Times,serif" font-size="14.00">W, Z, X, Y</text>
<polygon fill="none" stroke="black" points="50.75,-104.5 50.75,-139 134,-139 134,-104.5 50.75,-104.5"/>
<text xml:space="preserve" text-anchor="start" x="85.62" y="-117.25" font-family="Times,serif" font-size="14.00">W</text>
<polygon fill="none" stroke="black" points="134,-104.5 134,-139 250.25,-139 250.25,-104.5 134,-104.5"/>
<text xml:space="preserve" text-anchor="start" x="162.5" y="-117.25" font-family="Times,serif" font-size="14.00">B, A, C, D</text>
<polygon fill="none" stroke="black" points="50.75,-70 50.75,-104.5 134,-104.5 134,-70 50.75,-70"/>
<text xml:space="preserve" text-anchor="start" x="87.5" y="-82.75" font-family="Times,serif" font-size="14.00">X</text>
<polygon fill="none" stroke="black" points="134,-70 134,-104.5 250.25,-104.5 250.25,-70 134,-70"/>
<text xml:space="preserve" text-anchor="start" x="162.5" y="-82.75" font-family="Times,serif" font-size="14.00">C, B, A, D</text>
<polygon fill="none" stroke="black" points="50.75,-35.5 50.75,-70 134,-70 134,-35.5 50.75,-35.5"/>
<text xml:space="preserve" text-anchor="start" x="87.5" y="-48.25" font-family="Times,serif" font-size="14.00">Y</text>
<polygon fill="none" stroke="black" points="134,-35.5 134,-70 250.25,-70 250.25,-35.5 134,-35.5"/>
<text xml:space="preserve" text-anchor="start" x="162.5" y="-48.25" font-family="Times,serif" font-size="14.00">B, C, A, D</text>
<polygon fill="none" stroke="black" points="50.75,-1 50.75,-35.5 134,-35.5 134,-1 50.75,-1"/>
<text xml:space="preserve" text-anchor="start" x="88.25" y="-13.75" font-family="Times,serif" font-size="14.00">Z</text>
<polygon fill="none" stroke="black" points="134,-1 134,-35.5 250.25,-35.5 250.25,-1 134,-1"/>
<text xml:space="preserve" text-anchor="start" x="162.5" y="-13.75" font-family="Times,serif" font-size="14.00">C, D, A, B</text>
<polygon fill="none" stroke="black" points="49.75,0 49.75,-312.5 251.25,-312.5 251.25,0 49.75,0"/>
</g>
</g>
</svg>
