<?xml version="1.0" encoding="UTF-8" standalone="no"?>
<!DOCTYPE svg PUBLIC "-//W3C//DTD SVG 1.1//EN"
 "http://www.w3.org/Graphics/SVG/1.1/DTD/svg11.dtd">
<!-- Generated by graphviz version 14.1.3 (20260303.0454)
 -->
<!-- Title: G Pages: 1 -->
<svg width="690pt" height="558pt"
 viewBox="0.00 0.00 690.00 558.00" xmlns="http://www.w3.org/2000/svg" xmlns:xlink="http://www.w3.org/1999/xlink">
<g id="graph0" class="graph" transform="scale(1 1) rotate(0) translate(182.99 532.49)">
<title>G</title>
<polygon fill="white" stroke="none" points="-182.99,25.2 -182.99,-532.49 507.41,-532.49 507.41,25.2 -182.99,25.2"/>
<text xml:space="preserve" text-anchor="middle" x="162.21" y="-484.29" font-family="Helvetica,sans-Serif" font-size="20.00">Lesson 3: a separating triangle does not automatically kill Hamiltonicity</text>
<text xml:space="preserve" text-anchor="middle" x="162.21" y="-463.29" font-family="Helvetica,sans-Serif" font-size="20.00">This same graph has separator abc and Hamiltonian cycle d&#45;a&#45;e&#45;b&#45;c&#45;d.</text>
<!-- a&#45;&#45;b -->
<g id="edge1" class="edge">
<title>a&#45;&#45;b</title>
<path fill="none" stroke="#cbd5e1" stroke-width="2" d="M43.47,-127.65C69.27,-168.2 120.97,-249.45 146.8,-290.03"/>
</g>
<!-- b&#45;&#45;c -->
<g id="edge2" class="edge">
<title>b&#45;&#45;c</title>
<path fill="none" stroke="#16a34a" stroke-width="4.2" d="M177.6,-290.07C203.4,-249.52 255.1,-168.27 280.93,-127.69"/>
</g>
<!-- c&#45;&#45;a -->
<g id="edge3" class="edge">
<title>c&#45;&#45;a</title>
<path fill="none" stroke="#cbd5e1" stroke-width="2" d="M267.38,-103.47C215.76,-103.47 108.45,-103.47 56.92,-103.47"/>
</g>
<!-- d&#45;&#45;a -->
<g id="edge4" class="edge">
<title>d&#45;&#45;a</title>
<path fill="none" stroke="#16a34a" stroke-width="4.2" d="M137.61,-169.97C113.41,-155.28 76.67,-132.97 52.53,-118.31"/>
</g>
<!-- d&#45;&#45;b -->
<g id="edge5" class="edge">
<title>d&#45;&#45;b</title>
<path fill="none" stroke="#cbd5e1" stroke-width="2" d="M162.21,-213.93C162.21,-235.23 162.21,-264.04 162.21,-285.32"/>
</g>
<!-- d&#45;&#45;c -->
<g id="edge6" class="edge">
<title>d&#45;&#45;c</title>
<path fill="none" stroke="#16a34a" stroke-width="4.2" d="M186.81,-169.97C211.01,-155.28 247.75,-132.97 271.89,-118.31"/>
</g>
<!-- e&#45;&#45;a -->
<g id="edge7" class="edge">
<title>e&#45;&#45;a</title>
<path fill="none" stroke="#16a34a" stroke-width="4.2" d="M151.23,-402.56C126.02,-341.32 64.2,-191.19 39.02,-130.04"/>
</g>
<!-- e&#45;&#45;b -->
<g id="edge8" class="edge">
<title>e&#45;&#45;b</title>
<path fill="none" stroke="#16a34a" stroke-width="4.2" d="M162.21,-400.2C162.21,-382.77 162.21,-360.67 162.21,-343.25"/>
</g>
<!-- e&#45;&#45;c -->
<g id="edge9" class="edge">
<title>e&#45;&#45;c</title>
<path fill="none" stroke="#cbd5e1" stroke-width="2" d="M173.19,-402.56C198.4,-341.32 260.22,-191.19 285.4,-130.04"/>
</g>
<!-- a -->
<g id="node1" class="node">
<title>a</title>
<ellipse fill="#fed7aa" stroke="#ea580c" stroke-width="2" cx="28.08" cy="-103.47" rx="28.08" ry="28.08"/>
<text xml:space="preserve" text-anchor="middle" x="28.08" y="-95.75" font-family="Helvetica,sans-Serif" font-size="18.00">a</text>
</g>
<!-- b -->
<g id="node2" class="node">
<title>b</title>
<ellipse fill="#fed7aa" stroke="#ea580c" stroke-width="2" cx="162.21" cy="-314.25" rx="28.08" ry="28.08"/>
<text xml:space="preserve" text-anchor="middle" x="162.21" y="-306.52" font-family="Helvetica,sans-Serif" font-size="18.00">b</text>
</g>
<!-- c -->
<g id="node3" class="node">
<title>c</title>
<ellipse fill="#fed7aa" stroke="#ea580c" stroke-width="2" cx="296.34" cy="-103.47" rx="28.08" ry="28.08"/>
<text xml:space="preserve" text-anchor="middle" x="296.34" y="-95.75" font-family="Helvetica,sans-Serif" font-size="18.00">c</text>
</g>
<!-- d -->
<g id="node4" class="node">
<title>d</title>
<ellipse fill="#dbeafe" stroke="#2563eb" stroke-width="2" cx="162.21" cy="-184.91" rx="28.08" ry="28.08"/>
<text xml:space="preserve" text-anchor="middle" x="162.21" y="-177.18" font-family="Helvetica,sans-Serif" font-size="18.00">d</text>
</g>
<!-- e -->
<g id="node5" class="node">
<title>e</title>
<ellipse fill="#dcfce7" stroke="#16a34a" stroke-width="2" cx="162.21" cy="-429.21" rx="28.08" ry="28.08"/>
<text xml:space="preserve" text-anchor="middle" x="162.21" y="-421.49" font-family="Helvetica,sans-Serif" font-size="18.00">e</text>
</g>
<!-- sep_note -->
<g id="node6" class="node">
<title>sep_note</title>
<text xml:space="preserve" text-anchor="middle" x="162.21" y="-21.02" font-family="Helvetica,sans-Serif" font-size="18.00">Orange vertices form the separating triangle.</text>
</g>
<!-- ham_note -->
<g id="node7" class="node">
<title>ham_note</title>
<text xml:space="preserve" text-anchor="middle" x="162.21" y="7.72" font-family="Helvetica,sans-Serif" font-size="18.00">Green edges form a Hamiltonian cycle through all 5 vertices.</text>
</g>
</g>
</svg>
