<?xml version="1.0" encoding="UTF-8" standalone="no"?>
<!DOCTYPE svg PUBLIC "-//W3C//DTD SVG 1.1//EN"
 "http://www.w3.org/Graphics/SVG/1.1/DTD/svg11.dtd">
<!-- Generated by graphviz version 14.1.3 (20260303.0454)
 -->
<!-- Title: G Pages: 1 -->
<svg width="788pt" height="512pt"
 viewBox="0.00 0.00 788.00 512.00" xmlns="http://www.w3.org/2000/svg" xmlns:xlink="http://www.w3.org/1999/xlink">
<g id="graph0" class="graph" transform="scale(1 1) rotate(0) translate(245.72 487.15)">
<title>G</title>
<polygon fill="white" stroke="none" points="-245.72,25.2 -245.72,-487.15 542.18,-487.15 542.18,25.2 -245.72,25.2"/>
<text xml:space="preserve" text-anchor="middle" x="148.23" y="-438.95" font-family="Helvetica,sans-Serif" font-size="20.00">PS10 Problem 4: triangular bipyramid counterexample</text>
<text xml:space="preserve" text-anchor="middle" x="148.23" y="-417.95" font-family="Helvetica,sans-Serif" font-size="20.00">All faces are triangles, but triangle abc is not a face because it separates d from e.</text>
<!-- a&#45;&#45;b -->
<g id="edge1" class="edge">
<title>a&#45;&#45;b</title>
<path fill="none" stroke="#f59e0b" stroke-width="3.4" d="M43.54,-91.24C66.55,-127.39 109.56,-194.97 132.64,-231.25"/>
</g>
<!-- b&#45;&#45;c -->
<g id="edge2" class="edge">
<title>b&#45;&#45;c</title>
<path fill="none" stroke="#f59e0b" stroke-width="3.4" d="M163.69,-231.45C186.7,-195.3 229.71,-127.72 252.79,-91.44"/>
</g>
<!-- c&#45;&#45;a -->
<g id="edge3" class="edge">
<title>c&#45;&#45;a</title>
<path fill="none" stroke="#f59e0b" stroke-width="3.4" d="M239.4,-66.94C193.08,-66.94 102.93,-66.94 56.79,-66.94"/>
</g>
<!-- d&#45;&#45;a -->
<g id="edge4" class="edge">
<title>d&#45;&#45;a</title>
<path fill="none" stroke="#475569" stroke-width="2.2" d="M123.63,-124.95C102.89,-112.36 73.38,-94.44 52.65,-81.86"/>
</g>
<!-- d&#45;&#45;b -->
<g id="edge5" class="edge">
<title>d&#45;&#45;b</title>
<path fill="none" stroke="#475569" stroke-width="2.2" d="M148.23,-168.83C148.23,-186.52 148.23,-209.08 148.23,-226.78"/>
</g>
<!-- d&#45;&#45;c -->
<g id="edge6" class="edge">
<title>d&#45;&#45;c</title>
<path fill="none" stroke="#475569" stroke-width="2.2" d="M172.84,-124.95C193.57,-112.36 223.09,-94.44 243.81,-81.86"/>
</g>
<!-- e&#45;&#45;a -->
<g id="edge7" class="edge">
<title>e&#45;&#45;a</title>
<path fill="none" stroke="#475569" stroke-width="2.2" d="M137.25,-332.07C114.37,-276.5 61.82,-148.87 38.99,-93.44"/>
</g>
<!-- e&#45;&#45;b -->
<g id="edge8" class="edge">
<title>e&#45;&#45;b</title>
<path fill="none" stroke="#475569" stroke-width="2.2" d="M148.23,-329.78C148.23,-315.62 148.23,-298.62 148.23,-284.49"/>
</g>
<!-- e&#45;&#45;c -->
<g id="edge9" class="edge">
<title>e&#45;&#45;c</title>
<path fill="none" stroke="#475569" stroke-width="2.2" d="M159.21,-332.07C182.09,-276.5 234.65,-148.87 257.47,-93.44"/>
</g>
<!-- a -->
<g id="node1" class="node">
<title>a</title>
<ellipse fill="#fed7aa" stroke="#ea580c" stroke-width="2" cx="28.08" cy="-66.94" rx="28.08" ry="28.08"/>
<text xml:space="preserve" text-anchor="middle" x="28.08" y="-59.22" font-family="Helvetica,sans-Serif" font-size="18.00">a</text>
</g>
<!-- b -->
<g id="node2" class="node">
<title>b</title>
<ellipse fill="#fed7aa" stroke="#ea580c" stroke-width="2" cx="148.23" cy="-255.75" rx="28.08" ry="28.08"/>
<text xml:space="preserve" text-anchor="middle" x="148.23" y="-248.03" font-family="Helvetica,sans-Serif" font-size="18.00">b</text>
</g>
<!-- c -->
<g id="node3" class="node">
<title>c</title>
<ellipse fill="#fed7aa" stroke="#ea580c" stroke-width="2" cx="268.38" cy="-66.94" rx="28.08" ry="28.08"/>
<text xml:space="preserve" text-anchor="middle" x="268.38" y="-59.22" font-family="Helvetica,sans-Serif" font-size="18.00">c</text>
</g>
<!-- d -->
<g id="node4" class="node">
<title>d</title>
<ellipse fill="#dbeafe" stroke="#2563eb" stroke-width="2" cx="148.23" cy="-139.89" rx="28.08" ry="28.08"/>
<text xml:space="preserve" text-anchor="middle" x="148.23" y="-132.17" font-family="Helvetica,sans-Serif" font-size="18.00">d</text>
</g>
<!-- e -->
<g id="node5" class="node">
<title>e</title>
<ellipse fill="#dcfce7" stroke="#16a34a" stroke-width="2" cx="148.23" cy="-358.74" rx="28.08" ry="28.08"/>
<text xml:space="preserve" text-anchor="middle" x="148.23" y="-351.01" font-family="Helvetica,sans-Serif" font-size="18.00">e</text>
</g>
<!-- inside_note -->
<g id="node6" class="node">
<title>inside_note</title>
<text xml:space="preserve" text-anchor="middle" x="148.23" y="-170.79" font-family="Helvetica,sans-Serif" font-size="18.00">inside of abc</text>
</g>
<!-- outside_note -->
<g id="node7" class="node">
<title>outside_note</title>
<text xml:space="preserve" text-anchor="middle" x="148.23" y="-404.22" font-family="Helvetica,sans-Serif" font-size="18.00">outside of abc</text>
</g>
<!-- faces_note -->
<g id="node8" class="node">
<title>faces_note</title>
<text xml:space="preserve" text-anchor="middle" x="148.23" y="7.72" font-family="Helvetica,sans-Serif" font-size="18.00">Faces: abd, bcd, cad, abe, bce, cae</text>
</g>
</g>
</svg>
