<?xml version="1.0" encoding="UTF-8" standalone="no"?>
<!DOCTYPE svg PUBLIC "-//W3C//DTD SVG 1.1//EN"
 "http://www.w3.org/Graphics/SVG/1.1/DTD/svg11.dtd">
<!-- Generated by graphviz version 14.1.3 (20260303.0454)
 -->
<!-- Title: G Pages: 1 -->
<svg width="616pt" height="305pt"
 viewBox="0.00 0.00 616.00 305.00" xmlns="http://www.w3.org/2000/svg" xmlns:xlink="http://www.w3.org/1999/xlink">
<g id="graph0" class="graph" transform="scale(1 1) rotate(0) translate(21.6 283.6)">
<title>G</title>
<polygon fill="white" stroke="none" points="-21.6,21.6 -21.6,-283.6 594.1,-283.6 594.1,21.6 -21.6,21.6"/>
<text xml:space="preserve" text-anchor="middle" x="286.25" y="-239" font-family="Helvetica,sans-Serif" font-size="20.00">Question 4: count argument for why the dual subgraph is a tree</text>
<!-- t -->
<g id="node1" class="node">
<title>t</title>
<polygon fill="none" stroke="black" points="5.12,-193.5 5.12,-232 142.62,-232 142.62,-193.5 5.12,-193.5"/>
<text xml:space="preserve" text-anchor="start" x="61.12" y="-208.7" font-family="Times,serif" font-weight="bold" font-size="14.00">Step</text>
<polygon fill="none" stroke="black" points="142.62,-193.5 142.62,-232 567.38,-232 567.38,-193.5 142.62,-193.5"/>
<text xml:space="preserve" text-anchor="start" x="328.38" y="-208.7" font-family="Times,serif" font-weight="bold" font-size="14.00">Equation</text>
<polygon fill="none" stroke="black" points="5.12,-155 5.12,-193.5 142.62,-193.5 142.62,-155 5.12,-155"/>
<text xml:space="preserve" text-anchor="start" x="33.38" y="-169.75" font-family="Times,serif" font-size="14.00">Euler for c = 2</text>
<polygon fill="none" stroke="black" points="142.62,-155 142.62,-193.5 567.38,-193.5 567.38,-155 142.62,-155"/>
<text xml:space="preserve" text-anchor="start" x="318.62" y="-169.75" font-family="Times,serif" font-size="14.00">n &#45; m + f = 3</text>
<polygon fill="none" stroke="black" points="5.12,-116.5 5.12,-155 142.62,-155 142.62,-116.5 5.12,-116.5"/>
<text xml:space="preserve" text-anchor="start" x="25.88" y="-131.25" font-family="Times,serif" font-size="14.00">Primal forest size</text>
<polygon fill="none" stroke="black" points="142.62,-116.5 142.62,-155 567.38,-155 567.38,-116.5 142.62,-116.5"/>
<text xml:space="preserve" text-anchor="start" x="327.25" y="-131.25" font-family="Times,serif" font-size="14.00">|T| = n &#45; 2</text>
<polygon fill="none" stroke="black" points="5.12,-78 5.12,-116.5 142.62,-116.5 142.62,-78 5.12,-78"/>
<text xml:space="preserve" text-anchor="start" x="16.12" y="-92.75" font-family="Times,serif" font-size="14.00">Unused primal edges</text>
<polygon fill="none" stroke="black" points="142.62,-78 142.62,-116.5 567.38,-116.5 567.38,-78 142.62,-78"/>
<text xml:space="preserve" text-anchor="start" x="292" y="-92.75" font-family="Times,serif" font-size="14.00">m &#45; (n &#45; 2) = m &#45; n + 2</text>
<polygon fill="none" stroke="black" points="5.12,-39.5 5.12,-78 142.62,-78 142.62,-39.5 5.12,-39.5"/>
<text xml:space="preserve" text-anchor="start" x="19.12" y="-54.25" font-family="Times,serif" font-size="14.00">Replace using Euler</text>
<polygon fill="none" stroke="black" points="142.62,-39.5 142.62,-78 567.38,-78 567.38,-39.5 142.62,-39.5"/>
<text xml:space="preserve" text-anchor="start" x="309.25" y="-54.25" font-family="Times,serif" font-size="14.00">m &#45; n + 2 = f &#45; 1</text>
<polygon fill="none" stroke="black" points="5.12,-1 5.12,-39.5 142.62,-39.5 142.62,-1 5.12,-1"/>
<text xml:space="preserve" text-anchor="start" x="43.12" y="-15.75" font-family="Times,serif" font-size="14.00">Conclusion</text>
<polygon fill="none" stroke="black" points="142.62,-1 142.62,-39.5 567.38,-39.5 567.38,-1 142.62,-1"/>
<text xml:space="preserve" text-anchor="start" x="153.62" y="-15.75" font-family="Times,serif" font-size="14.00">The dual subgraph is connected and has exactly f &#45; 1 edges, so it is a tree.</text>
<polygon fill="none" stroke="black" points="4.12,0 4.12,-233 568.38,-233 568.38,0 4.12,0"/>
</g>
</g>
</svg>
