<?xml version="1.0" encoding="UTF-8" standalone="no"?>
<!DOCTYPE svg PUBLIC "-//W3C//DTD SVG 1.1//EN"
 "http://www.w3.org/Graphics/SVG/1.1/DTD/svg11.dtd">
<!-- Generated by graphviz version 14.1.3 (20260303.0454)
 -->
<!-- Title: G Pages: 1 -->
<svg width="659pt" height="243pt"
 viewBox="0.00 0.00 659.00 243.00" xmlns="http://www.w3.org/2000/svg" xmlns:xlink="http://www.w3.org/1999/xlink">
<g id="graph0" class="graph" transform="scale(1 1) rotate(0) translate(73.27 221.73)">
<title>G</title>
<polygon fill="white" stroke="none" points="-73.27,21.6 -73.27,-221.73 585.93,-221.73 585.93,21.6 -73.27,21.6"/>
<text xml:space="preserve" text-anchor="middle" x="256.33" y="-177.13" font-family="Helvetica,sans-Serif" font-size="20.00">Question 4: disconnected primal graph with one tree per component</text>
<!-- a1&#45;&#45;a2 -->
<g id="edge1" class="edge">
<title>a1&#45;&#45;a2</title>
<path fill="none" stroke="#0f172a" stroke-width="2.4" d="M45.3,-148.81C71.08,-148.81 112.66,-148.81 138.45,-148.81"/>
</g>
<!-- a2&#45;&#45;a3 -->
<g id="edge2" class="edge">
<title>a2&#45;&#45;a3</title>
<path fill="none" stroke="#0f172a" stroke-width="2.4" d="M150.28,-128.49C137.3,-104.88 116.01,-66.18 103.04,-42.59"/>
</g>
<!-- a3&#45;&#45;a1 -->
<g id="edge3" class="edge">
<title>a3&#45;&#45;a1</title>
<path fill="none" stroke="#dc2626" stroke-width="2" stroke-dasharray="5,2" d="M80.71,-42.64C67.73,-66.25 46.44,-104.96 33.47,-128.54"/>
</g>
<!-- b1&#45;&#45;b2 -->
<g id="edge4" class="edge">
<title>b1&#45;&#45;b2</title>
<path fill="none" stroke="#0f172a" stroke-width="2.4" d="M374.18,-148.81C399.96,-148.81 441.54,-148.81 467.33,-148.81"/>
</g>
<!-- b2&#45;&#45;b3 -->
<g id="edge5" class="edge">
<title>b2&#45;&#45;b3</title>
<path fill="none" stroke="#0f172a" stroke-width="2.4" d="M479.17,-128.49C466.18,-104.88 444.89,-66.18 431.92,-42.59"/>
</g>
<!-- b3&#45;&#45;b1 -->
<g id="edge6" class="edge">
<title>b3&#45;&#45;b1</title>
<path fill="none" stroke="#dc2626" stroke-width="2" stroke-dasharray="5,2" d="M409.6,-42.64C396.61,-66.25 375.32,-104.96 362.35,-128.54"/>
</g>
<!-- a1 -->
<g id="node1" class="node">
<title>a1</title>
<ellipse fill="#f8fafc" stroke="#475569" stroke-width="1.8" cx="22.32" cy="-148.81" rx="22.32" ry="22.32"/>
<text xml:space="preserve" text-anchor="middle" x="22.32" y="-143.79" font-family="Helvetica,sans-Serif" font-size="12.00">a1</text>
</g>
<!-- a2 -->
<g id="node2" class="node">
<title>a2</title>
<ellipse fill="#f8fafc" stroke="#475569" stroke-width="1.8" cx="161.46" cy="-148.81" rx="22.32" ry="22.32"/>
<text xml:space="preserve" text-anchor="middle" x="161.46" y="-143.79" font-family="Helvetica,sans-Serif" font-size="12.00">a2</text>
</g>
<!-- a3 -->
<g id="node3" class="node">
<title>a3</title>
<ellipse fill="#f8fafc" stroke="#475569" stroke-width="1.8" cx="91.89" cy="-22.32" rx="22.32" ry="22.32"/>
<text xml:space="preserve" text-anchor="middle" x="91.89" y="-17.3" font-family="Helvetica,sans-Serif" font-size="12.00">a3</text>
</g>
<!-- b1 -->
<g id="node4" class="node">
<title>b1</title>
<ellipse fill="#f8fafc" stroke="#475569" stroke-width="1.8" cx="351.2" cy="-148.81" rx="22.32" ry="22.32"/>
<text xml:space="preserve" text-anchor="middle" x="351.2" y="-143.79" font-family="Helvetica,sans-Serif" font-size="12.00">b1</text>
</g>
<!-- b2 -->
<g id="node5" class="node">
<title>b2</title>
<ellipse fill="#f8fafc" stroke="#475569" stroke-width="1.8" cx="490.34" cy="-148.81" rx="22.32" ry="22.32"/>
<text xml:space="preserve" text-anchor="middle" x="490.34" y="-143.79" font-family="Helvetica,sans-Serif" font-size="12.00">b2</text>
</g>
<!-- b3 -->
<g id="node6" class="node">
<title>b3</title>
<ellipse fill="#f8fafc" stroke="#475569" stroke-width="1.8" cx="420.77" cy="-22.32" rx="22.32" ry="22.32"/>
<text xml:space="preserve" text-anchor="middle" x="420.77" y="-17.3" font-family="Helvetica,sans-Serif" font-size="12.00">b3</text>
</g>
</g>
</svg>
