<?xml version="1.0" encoding="UTF-8" standalone="no"?>
<!DOCTYPE svg PUBLIC "-//W3C//DTD SVG 1.1//EN"
 "http://www.w3.org/Graphics/SVG/1.1/DTD/svg11.dtd">
<!-- Generated by graphviz version 14.1.3 (20260303.0454)
 -->
<!-- Title: G Pages: 1 -->
<svg width="723pt" height="343pt"
 viewBox="0.00 0.00 723.00 343.00" xmlns="http://www.w3.org/2000/svg" xmlns:xlink="http://www.w3.org/1999/xlink">
<g id="graph0" class="graph" transform="scale(1 1) rotate(0) translate(230.91 310.2)">
<title>G</title>
<polygon fill="white" stroke="none" points="-230.91,32.4 -230.91,-310.2 491.89,-310.2 491.89,32.4 -230.91,32.4"/>
<text xml:space="preserve" text-anchor="middle" x="130.49" y="-254.8" font-family="Helvetica,sans-Serif" font-size="20.00">Translate the coloring back to the original graph</text>
<text xml:space="preserve" text-anchor="middle" x="130.49" y="-233.8" font-family="Helvetica,sans-Serif" font-size="20.00">Draw F1 inside and route F2 outside the square, so they no longer cross.</text>
<!-- A&#45;&#45;B -->
<g id="edge1" class="edge">
<title>A&#45;&#45;B</title>
<path fill="none" stroke="#475569" stroke-width="2.2" d="M94.95,-170.86C115.95,-170.86 145.07,-170.86 166.06,-170.86"/>
</g>
<!-- A&#45;&#45;C -->
<g id="edge5" class="edge">
<title>A&#45;&#45;C</title>
<path fill="none" stroke="#16a34a" stroke-width="3.8" d="M87.16,-151.96C110.69,-128.43 150.62,-88.49 174.05,-65.07"/>
<text xml:space="preserve" text-anchor="middle" x="97.64" y="-109.77" font-family="Helvetica,sans-Serif" font-size="16.00" fill="#16a34a">F1 inside</text>
</g>
<!-- B&#45;&#45;C -->
<g id="edge2" class="edge">
<title>B&#45;&#45;C</title>
<path fill="none" stroke="#475569" stroke-width="2.2" d="M192.72,-144.16C192.72,-123.16 192.72,-94.04 192.72,-73.05"/>
</g>
<!-- B&#45;&#45;P1 -->
<g id="edge6" class="edge">
<title>B&#45;&#45;P1</title>
<path fill="none" stroke="#7c3aed" stroke-width="3.4" d="M213.09,-187.84C231.21,-202.94 255.52,-223.19 259.92,-226.86"/>
</g>
<!-- C&#45;&#45;D -->
<g id="edge3" class="edge">
<title>C&#45;&#45;D</title>
<path fill="none" stroke="#475569" stroke-width="2.2" d="M166.02,-46.39C145.02,-46.39 115.9,-46.39 94.91,-46.39"/>
</g>
<!-- D&#45;&#45;A -->
<g id="edge4" class="edge">
<title>D&#45;&#45;A</title>
<path fill="none" stroke="#475569" stroke-width="2.2" d="M68.25,-73.09C68.25,-94.1 68.25,-123.21 68.25,-144.2"/>
</g>
<!-- P1&#45;&#45;P2 -->
<g id="edge7" class="edge">
<title>P1&#45;&#45;P2</title>
<path fill="none" stroke="#7c3aed" stroke-width="3.4" d="M259.45,-227.44C241.41,-227.44 18.8,-227.44 1.43,-227.44"/>
</g>
<!-- P2&#45;&#45;P3 -->
<g id="edge8" class="edge">
<title>P2&#45;&#45;P3</title>
<path fill="none" stroke="#7c3aed" stroke-width="3.4" d="M0.36,-226.64C0.36,-216.7 0.36,-116.7 0.36,-104.24"/>
</g>
<!-- P3&#45;&#45;D -->
<g id="edge9" class="edge">
<title>P3&#45;&#45;D</title>
<path fill="none" stroke="#7c3aed" stroke-width="3.4" d="M1.12,-102.33C5.67,-98.55 29.6,-78.6 47.61,-63.6"/>
</g>
<!-- A -->
<g id="node1" class="node">
<title>A</title>
<ellipse fill="#f8fafc" stroke="#0f172a" stroke-width="2" cx="68.25" cy="-170.86" rx="25.92" ry="25.92"/>
<text xml:space="preserve" text-anchor="middle" x="68.25" y="-163.14" font-family="Helvetica,sans-Serif" font-size="18.00">A</text>
</g>
<!-- B -->
<g id="node2" class="node">
<title>B</title>
<ellipse fill="#f8fafc" stroke="#0f172a" stroke-width="2" cx="192.72" cy="-170.86" rx="25.92" ry="25.92"/>
<text xml:space="preserve" text-anchor="middle" x="192.72" y="-163.14" font-family="Helvetica,sans-Serif" font-size="18.00">B</text>
</g>
<!-- C -->
<g id="node3" class="node">
<title>C</title>
<ellipse fill="#f8fafc" stroke="#0f172a" stroke-width="2" cx="192.72" cy="-46.39" rx="25.92" ry="25.92"/>
<text xml:space="preserve" text-anchor="middle" x="192.72" y="-38.67" font-family="Helvetica,sans-Serif" font-size="18.00">C</text>
</g>
<!-- D -->
<g id="node4" class="node">
<title>D</title>
<ellipse fill="#f8fafc" stroke="#0f172a" stroke-width="2" cx="68.25" cy="-46.39" rx="25.92" ry="25.92"/>
<text xml:space="preserve" text-anchor="middle" x="68.25" y="-38.67" font-family="Helvetica,sans-Serif" font-size="18.00">D</text>
</g>
<!-- P1 -->
<!-- P2 -->
<!-- P3 -->
<!-- outside_note -->
<g id="node8" class="node">
<title>outside_note</title>
<polygon fill="#f8fafc" stroke="none" stroke-width="2" points="nan,nan nan,nan nan,nan nan,nan nan,nan"/>
<text xml:space="preserve" text-anchor="middle" x="138.97" y="7.72" font-family="Helvetica,sans-Serif" font-size="18.00">F2 routed outside</text>
</g>
</g>
</svg>
