<?xml version="1.0" encoding="UTF-8" standalone="no"?>
<!DOCTYPE svg PUBLIC "-//W3C//DTD SVG 1.1//EN"
 "http://www.w3.org/Graphics/SVG/1.1/DTD/svg11.dtd">
<!-- Generated by graphviz version 14.1.3 (20260303.0454)
 -->
<!-- Title: G Pages: 1 -->
<svg width="635pt" height="399pt"
 viewBox="0.00 0.00 635.00 399.00" xmlns="http://www.w3.org/2000/svg" xmlns:xlink="http://www.w3.org/1999/xlink">
<g id="graph0" class="graph" transform="scale(1 1) rotate(0) translate(168.33 373.45)">
<title>G</title>
<polygon fill="white" stroke="none" points="-168.33,25.2 -168.33,-373.45 466.57,-373.45 466.57,25.2 -168.33,25.2"/>
<text xml:space="preserve" text-anchor="middle" x="149.12" y="-325.25" font-family="Helvetica,sans-Serif" font-size="20.00">Tiny example: a square cycle with two flaps</text>
<text xml:space="preserve" text-anchor="middle" x="149.12" y="-304.25" font-family="Helvetica,sans-Serif" font-size="20.00">F1 = AC and F2 = BD. Their endpoints alternate, so they conflict.</text>
<!-- A&#45;&#45;B -->
<g id="edge1" class="edge">
<title>A&#45;&#45;B</title>
<path fill="none" stroke="#475569" stroke-width="2.2" d="M52.76,-272.33C100.16,-272.33 198.15,-272.33 245.52,-272.33"/>
</g>
<!-- A&#45;&#45;C -->
<g id="edge5" class="edge">
<title>A&#45;&#45;C</title>
<path fill="none" stroke="#dc2626" stroke-width="3.6" d="M44.85,-253.4C90.71,-207.53 207.4,-90.84 253.34,-44.91"/>
<text xml:space="preserve" text-anchor="middle" x="139.69" y="-150.48" font-family="Helvetica,sans-Serif" font-size="16.00" fill="#dc2626">F1</text>
</g>
<!-- B&#45;&#45;C -->
<g id="edge2" class="edge">
<title>B&#45;&#45;C</title>
<path fill="none" stroke="#475569" stroke-width="2.2" d="M272.33,-245.49C272.33,-198.09 272.33,-100.1 272.33,-52.73"/>
</g>
<!-- B&#45;&#45;D -->
<g id="edge6" class="edge">
<title>B&#45;&#45;D</title>
<path fill="none" stroke="#2563eb" stroke-width="3.6" d="M253.4,-253.4C207.53,-207.53 90.84,-90.84 44.91,-44.91"/>
<text xml:space="preserve" text-anchor="middle" x="139.81" y="-133.98" font-family="Helvetica,sans-Serif" font-size="16.00" fill="#2563eb">F2</text>
</g>
<!-- C&#45;&#45;D -->
<g id="edge3" class="edge">
<title>C&#45;&#45;D</title>
<path fill="none" stroke="#475569" stroke-width="2.2" d="M245.49,-25.92C198.09,-25.92 100.1,-25.92 52.73,-25.92"/>
</g>
<!-- D&#45;&#45;A -->
<g id="edge4" class="edge">
<title>D&#45;&#45;A</title>
<path fill="none" stroke="#475569" stroke-width="2.2" d="M25.92,-52.76C25.92,-100.16 25.92,-198.15 25.92,-245.52"/>
</g>
<!-- A -->
<g id="node1" class="node">
<title>A</title>
<ellipse fill="#f8fafc" stroke="#0f172a" stroke-width="2" cx="25.92" cy="-272.33" rx="25.92" ry="25.92"/>
<text xml:space="preserve" text-anchor="middle" x="25.92" y="-264.6" font-family="Helvetica,sans-Serif" font-size="18.00">A</text>
</g>
<!-- B -->
<g id="node2" class="node">
<title>B</title>
<ellipse fill="#f8fafc" stroke="#0f172a" stroke-width="2" cx="272.33" cy="-272.33" rx="25.92" ry="25.92"/>
<text xml:space="preserve" text-anchor="middle" x="272.33" y="-264.6" font-family="Helvetica,sans-Serif" font-size="18.00">B</text>
</g>
<!-- C -->
<g id="node3" class="node">
<title>C</title>
<ellipse fill="#f8fafc" stroke="#0f172a" stroke-width="2" cx="272.33" cy="-25.92" rx="25.92" ry="25.92"/>
<text xml:space="preserve" text-anchor="middle" x="272.33" y="-18.2" font-family="Helvetica,sans-Serif" font-size="18.00">C</text>
</g>
<!-- D -->
<g id="node4" class="node">
<title>D</title>
<ellipse fill="#f8fafc" stroke="#0f172a" stroke-width="2" cx="25.92" cy="-25.92" rx="25.92" ry="25.92"/>
<text xml:space="preserve" text-anchor="middle" x="25.92" y="-18.2" font-family="Helvetica,sans-Serif" font-size="18.00">D</text>
</g>
</g>
</svg>
