<?xml version="1.0" encoding="UTF-8" standalone="no"?>
<!DOCTYPE svg PUBLIC "-//W3C//DTD SVG 1.1//EN"
 "http://www.w3.org/Graphics/SVG/1.1/DTD/svg11.dtd">
<!-- Generated by graphviz version 14.1.3 (20260303.0454)
 -->
<!-- Title: G Pages: 1 -->
<svg width="555pt" height="408pt"
 viewBox="0.00 0.00 555.00 408.00" xmlns="http://www.w3.org/2000/svg" xmlns:xlink="http://www.w3.org/1999/xlink">
<g id="graph0" class="graph" transform="scale(1 1) rotate(0) translate(32.47 383.24)">
<title>G</title>
<polygon fill="white" stroke="none" points="-32.47,25.2 -32.47,-383.24 522.93,-383.24 522.93,25.2 -32.47,25.2"/>
<text xml:space="preserve" text-anchor="middle" x="245.23" y="-335.04" font-family="Helvetica,sans-Serif" font-size="20.00">Question 3: one Dijkstra iteration from the super&#45;source</text>
<text xml:space="preserve" text-anchor="middle" x="245.23" y="-314.04" font-family="Helvetica,sans-Serif" font-size="20.00">Tie&#45;break alphabetically: A is explored before B.</text>
<!-- s&#45;&gt;A -->
<g id="edge1" class="edge">
<title>s&#45;&gt;A</title>
<path fill="none" stroke="#16a34a" stroke-width="3.6" stroke-dasharray="5,2" d="M60.11,-172.49C91,-193.09 141.2,-226.55 176,-249.75"/>
<polygon fill="#16a34a" stroke="#16a34a" stroke-width="3.6" points="174.42,-252.06 182.63,-254.17 177.52,-247.4 174.42,-252.06"/>
<text xml:space="preserve" text-anchor="middle" x="119.77" y="-216.52" font-family="Helvetica,sans-Serif" font-size="15.00" fill="#16a34a">0</text>
</g>
<!-- s&#45;&gt;B -->
<g id="edge2" class="edge">
<title>s&#45;&gt;B</title>
<path fill="none" stroke="#cbd5e1" stroke-width="2" stroke-dasharray="5,2" d="M60.11,-135.55C91.67,-114.5 143.39,-80.03 178.25,-56.79"/>
<polygon fill="#cbd5e1" stroke="#cbd5e1" stroke-width="2" points="179.54,-59.29 184.64,-52.52 176.43,-54.63 179.54,-59.29"/>
<text xml:space="preserve" text-anchor="middle" x="119.3" y="-94.84" font-family="Helvetica,sans-Serif" font-size="15.00">0</text>
</g>
<!-- A&#45;&gt;X -->
<g id="edge3" class="edge">
<title>A&#45;&gt;X</title>
<path fill="none" stroke="#cbd5e1" stroke-width="2" d="M248.14,-275.64C291.14,-275.64 366.1,-275.64 413.84,-275.64"/>
<polygon fill="#cbd5e1" stroke="#cbd5e1" stroke-width="2" points="413.74,-278.44 421.74,-275.64 413.74,-272.84 413.74,-278.44"/>
<text xml:space="preserve" text-anchor="middle" x="332.5" y="-277.14" font-family="Helvetica,sans-Serif" font-size="15.00">5</text>
</g>
<!-- A&#45;&gt;Y -->
<g id="edge4" class="edge">
<title>A&#45;&gt;Y</title>
<path fill="none" stroke="#16a34a" stroke-width="3.6" d="M238.15,-252.32C281.63,-208.84 375.16,-115.31 425.08,-65.39"/>
<polygon fill="#16a34a" stroke="#16a34a" stroke-width="3.6" points="426.93,-67.5 430.6,-59.86 422.97,-63.54 426.93,-67.5"/>
<text xml:space="preserve" text-anchor="middle" x="332.06" y="-155.78" font-family="Helvetica,sans-Serif" font-size="15.00" fill="#16a34a">2</text>
</g>
<!-- B&#45;&gt;X -->
<g id="edge5" class="edge">
<title>B&#45;&gt;X</title>
<path fill="none" stroke="#cbd5e1" stroke-width="2" d="M238.15,-55.72C282.17,-99.74 377.5,-195.07 426.93,-244.5"/>
<polygon fill="#cbd5e1" stroke="#cbd5e1" stroke-width="2" points="424.68,-246.21 432.32,-249.89 428.64,-242.25 424.68,-246.21"/>
<text xml:space="preserve" text-anchor="middle" x="332.22" y="-139.66" font-family="Helvetica,sans-Serif" font-size="15.00">6</text>
</g>
<!-- B&#45;&gt;Y -->
<g id="edge6" class="edge">
<title>B&#45;&gt;Y</title>
<path fill="none" stroke="#cbd5e1" stroke-width="2" d="M248.14,-32.4C291.14,-32.4 366.1,-32.4 413.84,-32.4"/>
<polygon fill="#cbd5e1" stroke="#cbd5e1" stroke-width="2" points="413.74,-35.2 421.74,-32.4 413.74,-29.6 413.74,-35.2"/>
<text xml:space="preserve" text-anchor="middle" x="332.5" y="-33.9" font-family="Helvetica,sans-Serif" font-size="15.00">4</text>
</g>
<!-- s -->
<g id="node1" class="node">
<title>s</title>
<ellipse fill="#fef3c7" stroke="#d97706" stroke-width="2" cx="32.4" cy="-154.02" rx="32.4" ry="32.4"/>
<text xml:space="preserve" text-anchor="middle" x="32.4" y="-155.87" font-family="Helvetica,sans-Serif" font-size="17.00">s</text>
<text xml:space="preserve" text-anchor="middle" x="32.4" y="-137.87" font-family="Helvetica,sans-Serif" font-size="17.00">dist 0</text>
</g>
<!-- A -->
<g id="node2" class="node">
<title>A</title>
<ellipse fill="#dbeafe" stroke="#2563eb" stroke-width="2" cx="214.83" cy="-275.64" rx="32.4" ry="32.4"/>
<text xml:space="preserve" text-anchor="middle" x="214.83" y="-277.49" font-family="Helvetica,sans-Serif" font-size="17.00">A</text>
<text xml:space="preserve" text-anchor="middle" x="214.83" y="-259.49" font-family="Helvetica,sans-Serif" font-size="17.00">dist 0</text>
</g>
<!-- B -->
<g id="node3" class="node">
<title>B</title>
<ellipse fill="#dbeafe" stroke="#2563eb" stroke-width="2" cx="214.83" cy="-32.4" rx="32.4" ry="32.4"/>
<text xml:space="preserve" text-anchor="middle" x="214.83" y="-34.25" font-family="Helvetica,sans-Serif" font-size="17.00">B</text>
<text xml:space="preserve" text-anchor="middle" x="214.83" y="-16.25" font-family="Helvetica,sans-Serif" font-size="17.00">dist 0</text>
</g>
<!-- X -->
<g id="node4" class="node">
<title>X</title>
<ellipse fill="#ffedd5" stroke="#ea580c" stroke-width="2" cx="458.07" cy="-275.64" rx="32.4" ry="32.4"/>
<text xml:space="preserve" text-anchor="middle" x="458.07" y="-277.49" font-family="Helvetica,sans-Serif" font-size="17.00">X</text>
<text xml:space="preserve" text-anchor="middle" x="458.07" y="-259.49" font-family="Helvetica,sans-Serif" font-size="17.00">dist 5</text>
</g>
<!-- Y -->
<g id="node5" class="node">
<title>Y</title>
<ellipse fill="#ffedd5" stroke="#ea580c" stroke-width="2" cx="458.07" cy="-32.4" rx="32.4" ry="32.4"/>
<text xml:space="preserve" text-anchor="middle" x="458.07" y="-34.25" font-family="Helvetica,sans-Serif" font-size="17.00">Y</text>
<text xml:space="preserve" text-anchor="middle" x="458.07" y="-16.25" font-family="Helvetica,sans-Serif" font-size="17.00">dist 2</text>
</g>
</g>
</svg>
