<?xml version="1.0" encoding="UTF-8" standalone="no"?>
<!DOCTYPE svg PUBLIC "-//W3C//DTD SVG 1.1//EN"
 "http://www.w3.org/Graphics/SVG/1.1/DTD/svg11.dtd">
<!-- Generated by graphviz version 14.1.3 (20260303.0454)
 -->
<!-- Title: G Pages: 1 -->
<svg width="515pt" height="392pt"
 viewBox="0.00 0.00 515.00 392.00" xmlns="http://www.w3.org/2000/svg" xmlns:xlink="http://www.w3.org/1999/xlink">
<g id="graph0" class="graph" transform="scale(1 1) rotate(0) translate(25.2 366.7)">
<title>G</title>
<polygon fill="white" stroke="none" points="-25.2,25.2 -25.2,-366.7 489.7,-366.7 489.7,25.2 -25.2,25.2"/>
<text xml:space="preserve" text-anchor="middle" x="232.25" y="-318.5" font-family="Helvetica,sans-Serif" font-size="20.00">Question 3: height update and augmentation result</text>
<!-- info -->
<g id="node1" class="node">
<title>info</title>
<polygon fill="none" stroke="black" points="51.88,-277 51.88,-311.5 209.38,-311.5 209.38,-277 51.88,-277"/>
<text xml:space="preserve" text-anchor="start" x="116.75" y="-290.2" font-family="Times,serif" font-weight="bold" font-size="14.00">Item</text>
<polygon fill="none" stroke="black" points="209.38,-277 209.38,-311.5 412.62,-311.5 412.62,-277 209.38,-277"/>
<text xml:space="preserve" text-anchor="start" x="240.5" y="-290.2" font-family="Times,serif" font-weight="bold" font-size="14.00">Value after one iteration</text>
<polygon fill="none" stroke="black" points="51.88,-242.5 51.88,-277 209.38,-277 209.38,-242.5 51.88,-242.5"/>
<text xml:space="preserve" text-anchor="start" x="60.88" y="-255.25" font-family="Times,serif" font-size="14.00">Shortest augmenting path</text>
<polygon fill="none" stroke="black" points="209.38,-242.5 209.38,-277 412.62,-277 412.62,-242.5 209.38,-242.5"/>
<text xml:space="preserve" text-anchor="start" x="279.88" y="-255.25" font-family="Times,serif" font-size="14.00">s &#45;&gt; A &#45;&gt; Y</text>
<polygon fill="none" stroke="black" points="51.88,-208 51.88,-242.5 209.38,-242.5 209.38,-208 51.88,-208"/>
<text xml:space="preserve" text-anchor="start" x="69.5" y="-220.75" font-family="Times,serif" font-size="14.00">Adjustment distance d</text>
<polygon fill="none" stroke="black" points="209.38,-208 209.38,-242.5 412.62,-242.5 412.62,-208 209.38,-208"/>
<text xml:space="preserve" text-anchor="start" x="307.62" y="-220.75" font-family="Times,serif" font-size="14.00">2</text>
<polygon fill="none" stroke="black" points="51.88,-173.5 51.88,-208 209.38,-208 209.38,-173.5 51.88,-173.5"/>
<text xml:space="preserve" text-anchor="start" x="103.25" y="-186.25" font-family="Times,serif" font-size="14.00">New h(A)</text>
<polygon fill="none" stroke="black" points="209.38,-173.5 209.38,-208 412.62,-208 412.62,-173.5 209.38,-173.5"/>
<text xml:space="preserve" text-anchor="start" x="271.25" y="-186.25" font-family="Times,serif" font-size="14.00">0 &#45; dist(A) = 0</text>
<polygon fill="none" stroke="black" points="51.88,-139 51.88,-173.5 209.38,-173.5 209.38,-139 51.88,-139"/>
<text xml:space="preserve" text-anchor="start" x="103.62" y="-151.75" font-family="Times,serif" font-size="14.00">New h(B)</text>
<polygon fill="none" stroke="black" points="209.38,-139 209.38,-173.5 412.62,-173.5 412.62,-139 209.38,-139"/>
<text xml:space="preserve" text-anchor="start" x="271.62" y="-151.75" font-family="Times,serif" font-size="14.00">0 &#45; dist(B) = 0</text>
<polygon fill="none" stroke="black" points="51.88,-104.5 51.88,-139 209.38,-139 209.38,-104.5 51.88,-104.5"/>
<text xml:space="preserve" text-anchor="start" x="103.25" y="-117.25" font-family="Times,serif" font-size="14.00">New h(X)</text>
<polygon fill="none" stroke="black" points="209.38,-104.5 209.38,-139 412.62,-139 412.62,-104.5 209.38,-104.5"/>
<text xml:space="preserve" text-anchor="start" x="269.38" y="-117.25" font-family="Times,serif" font-size="14.00">0 + dist(X) = 5</text>
<polygon fill="none" stroke="black" points="51.88,-70 51.88,-104.5 209.38,-104.5 209.38,-70 51.88,-70"/>
<text xml:space="preserve" text-anchor="start" x="103.25" y="-82.75" font-family="Times,serif" font-size="14.00">New h(Y)</text>
<polygon fill="none" stroke="black" points="209.38,-70 209.38,-104.5 412.62,-104.5 412.62,-70 209.38,-70"/>
<text xml:space="preserve" text-anchor="start" x="269.38" y="-82.75" font-family="Times,serif" font-size="14.00">0 + dist(Y) = 2</text>
<polygon fill="none" stroke="black" points="51.88,-35.5 51.88,-70 209.38,-70 209.38,-35.5 51.88,-35.5"/>
<text xml:space="preserve" text-anchor="start" x="64.62" y="-48.25" font-family="Times,serif" font-size="14.00">Matching after augment</text>
<polygon fill="none" stroke="black" points="209.38,-35.5 209.38,-70 412.62,-70 412.62,-35.5 209.38,-35.5"/>
<text xml:space="preserve" text-anchor="start" x="286.62" y="-48.25" font-family="Times,serif" font-size="14.00">{(A, Y)}</text>
<polygon fill="none" stroke="black" points="51.88,-1 51.88,-35.5 209.38,-35.5 209.38,-1 51.88,-1"/>
<text xml:space="preserve" text-anchor="start" x="70.62" y="-13.75" font-family="Times,serif" font-size="14.00">New adjusted weights</text>
<polygon fill="none" stroke="black" points="209.38,-1 209.38,-35.5 412.62,-35.5 412.62,-1 209.38,-1"/>
<text xml:space="preserve" text-anchor="start" x="218.38" y="-13.75" font-family="Times,serif" font-size="14.00">AX = 0, AY = 0, BX = 1, BY = 2</text>
<polygon fill="none" stroke="black" points="50.88,0 50.88,-312.5 413.62,-312.5 413.62,0 50.88,0"/>
</g>
</g>
</svg>
