<?xml version="1.0" encoding="UTF-8" standalone="no"?>
<!DOCTYPE svg PUBLIC "-//W3C//DTD SVG 1.1//EN"
 "http://www.w3.org/Graphics/SVG/1.1/DTD/svg11.dtd">
<!-- Generated by graphviz version 14.1.3 (20260303.0454)
 -->
<!-- Title: G Pages: 1 -->
<svg width="492pt" height="377pt"
 viewBox="0.00 0.00 492.00 377.00" xmlns="http://www.w3.org/2000/svg" xmlns:xlink="http://www.w3.org/1999/xlink">
<g id="graph0" class="graph" transform="scale(1 1) rotate(0) translate(25.2 351.98)">
<title>G</title>
<polygon fill="white" stroke="none" points="-25.2,25.2 -25.2,-351.98 466.37,-351.98 466.37,25.2 -25.2,25.2"/>
<text xml:space="preserve" text-anchor="middle" x="220.58" y="-303.78" font-family="Helvetica,sans-Serif" font-size="20.00">Question 3: initial weighted bipartite graph</text>
<text xml:space="preserve" text-anchor="middle" x="220.58" y="-282.78" font-family="Helvetica,sans-Serif" font-size="20.00">All heights start at 0 and the matching is empty.</text>
<!-- s&#45;&gt;A -->
<g id="edge1" class="edge">
<title>s&#45;&gt;A</title>
<path fill="none" stroke="#475569" stroke-width="2" stroke-dasharray="5,2" d="M53.41,-154.8C81.62,-173.6 128,-204.53 159.54,-225.55"/>
<polygon fill="#475569" stroke="#475569" stroke-width="2" points="157.68,-227.68 165.89,-229.78 160.79,-223.02 157.68,-227.68"/>
<text xml:space="preserve" text-anchor="middle" x="106.54" y="-194.52" font-family="Helvetica,sans-Serif" font-size="16.00">0</text>
</g>
<!-- s&#45;&gt;B -->
<g id="edge2" class="edge">
<title>s&#45;&gt;B</title>
<path fill="none" stroke="#475569" stroke-width="2" stroke-dasharray="5,2" d="M53.41,-121.98C81.62,-103.18 128,-72.26 159.54,-51.23"/>
<polygon fill="#475569" stroke="#475569" stroke-width="2" points="160.79,-53.77 165.89,-47 157.68,-49.11 160.79,-53.77"/>
<text xml:space="preserve" text-anchor="middle" x="106.54" y="-84.86" font-family="Helvetica,sans-Serif" font-size="16.00">0</text>
</g>
<!-- A&#45;&gt;X -->
<g id="edge3" class="edge">
<title>A&#45;&gt;X</title>
<path fill="none" stroke="#475569" stroke-width="2" d="M222.75,-247.98C261.15,-247.98 328.37,-247.98 371.6,-247.98"/>
<polygon fill="#475569" stroke="#475569" stroke-width="2" points="371.55,-250.78 379.55,-247.98 371.55,-245.18 371.55,-250.78"/>
<text xml:space="preserve" text-anchor="middle" x="297.84" y="-249.28" font-family="Helvetica,sans-Serif" font-size="16.00">5</text>
</g>
<!-- A&#45;&gt;Y -->
<g id="edge4" class="edge">
<title>A&#45;&gt;Y</title>
<path fill="none" stroke="#475569" stroke-width="2" d="M214.2,-226.97C253.72,-187.44 339.15,-102.02 383.83,-57.34"/>
<polygon fill="#475569" stroke="#475569" stroke-width="2" points="385.6,-59.53 389.28,-51.89 381.64,-55.57 385.6,-59.53"/>
<text xml:space="preserve" text-anchor="middle" x="298.19" y="-139.78" font-family="Helvetica,sans-Serif" font-size="16.00">2</text>
</g>
<!-- B&#45;&gt;X -->
<g id="edge5" class="edge">
<title>B&#45;&gt;X</title>
<path fill="none" stroke="#475569" stroke-width="2" d="M214.2,-49.82C253.72,-89.34 339.15,-174.76 383.83,-219.44"/>
<polygon fill="#475569" stroke="#475569" stroke-width="2" points="381.64,-221.21 389.28,-224.89 385.6,-217.25 381.64,-221.21"/>
<text xml:space="preserve" text-anchor="middle" x="298.19" y="-123.1" font-family="Helvetica,sans-Serif" font-size="16.00">6</text>
</g>
<!-- B&#45;&gt;Y -->
<g id="edge6" class="edge">
<title>B&#45;&gt;Y</title>
<path fill="none" stroke="#475569" stroke-width="2" d="M222.75,-28.8C261.15,-28.8 328.37,-28.8 371.6,-28.8"/>
<polygon fill="#475569" stroke="#475569" stroke-width="2" points="371.55,-31.6 379.55,-28.8 371.55,-26 371.55,-31.6"/>
<text xml:space="preserve" text-anchor="middle" x="297.84" y="-30.1" font-family="Helvetica,sans-Serif" font-size="16.00">4</text>
</g>
<!-- s -->
<g id="node1" class="node">
<title>s</title>
<ellipse fill="#fef3c7" stroke="#d97706" stroke-width="2" cx="28.8" cy="-138.39" rx="28.8" ry="28.8"/>
<text xml:space="preserve" text-anchor="middle" x="28.8" y="-130.67" font-family="Helvetica,sans-Serif" font-size="18.00">s</text>
</g>
<!-- A -->
<g id="node2" class="node">
<title>A</title>
<ellipse fill="#dbeafe" stroke="#2563eb" stroke-width="2" cx="193.19" cy="-247.98" rx="28.8" ry="28.8"/>
<text xml:space="preserve" text-anchor="middle" x="193.19" y="-249.63" font-family="Helvetica,sans-Serif" font-size="18.00">A</text>
<text xml:space="preserve" text-anchor="middle" x="193.19" y="-230.88" font-family="Helvetica,sans-Serif" font-size="18.00">h=0</text>
</g>
<!-- B -->
<g id="node3" class="node">
<title>B</title>
<ellipse fill="#dbeafe" stroke="#2563eb" stroke-width="2" cx="193.19" cy="-28.8" rx="28.8" ry="28.8"/>
<text xml:space="preserve" text-anchor="middle" x="193.19" y="-30.45" font-family="Helvetica,sans-Serif" font-size="18.00">B</text>
<text xml:space="preserve" text-anchor="middle" x="193.19" y="-11.7" font-family="Helvetica,sans-Serif" font-size="18.00">h=0</text>
</g>
<!-- X -->
<g id="node4" class="node">
<title>X</title>
<ellipse fill="#ffedd5" stroke="#ea580c" stroke-width="2" cx="412.37" cy="-247.98" rx="28.8" ry="28.8"/>
<text xml:space="preserve" text-anchor="middle" x="412.37" y="-249.63" font-family="Helvetica,sans-Serif" font-size="18.00">X</text>
<text xml:space="preserve" text-anchor="middle" x="412.37" y="-230.88" font-family="Helvetica,sans-Serif" font-size="18.00">h=0</text>
</g>
<!-- Y -->
<g id="node5" class="node">
<title>Y</title>
<ellipse fill="#ffedd5" stroke="#ea580c" stroke-width="2" cx="412.37" cy="-28.8" rx="28.8" ry="28.8"/>
<text xml:space="preserve" text-anchor="middle" x="412.37" y="-30.45" font-family="Helvetica,sans-Serif" font-size="18.00">Y</text>
<text xml:space="preserve" text-anchor="middle" x="412.37" y="-11.7" font-family="Helvetica,sans-Serif" font-size="18.00">h=0</text>
</g>
</g>
</svg>
