<?xml version="1.0" encoding="UTF-8" standalone="no"?>
<!DOCTYPE svg PUBLIC "-//W3C//DTD SVG 1.1//EN"
 "http://www.w3.org/Graphics/SVG/1.1/DTD/svg11.dtd">
<!-- Generated by graphviz version 14.1.3 (20260303.0454)
 -->
<!-- Title: G Pages: 1 -->
<svg width="669pt" height="405pt"
 viewBox="0.00 0.00 669.00 405.00" xmlns="http://www.w3.org/2000/svg" xmlns:xlink="http://www.w3.org/1999/xlink">
<g id="graph0" class="graph" transform="scale(1 1) rotate(0) translate(202.91 379.84)">
<title>G</title>
<polygon fill="white" stroke="none" points="-202.91,25.2 -202.91,-379.84 465.74,-379.84 465.74,25.2 -202.91,25.2"/>
<text xml:space="preserve" text-anchor="middle" x="131.42" y="-331.64" font-family="Helvetica,sans-Serif" font-size="20.00">Question 4: acceptable pairs only</text>
<text xml:space="preserve" text-anchor="middle" x="131.42" y="-310.64" font-family="Helvetica,sans-Serif" font-size="20.00">S1 can only be matched to H3; H1 and H2 are missing from S1&#39;s list.</text>
<!-- S1&#45;&#45;H3 -->
<g id="edge1" class="edge">
<title>S1&#45;&#45;H3</title>
<path fill="none" stroke="#16a34a" stroke-width="3.4" d="M52.11,-254.95C91.28,-219.97 171.38,-148.46 210.62,-113.42"/>
</g>
<!-- S2&#45;&#45;H1 -->
<g id="edge2" class="edge">
<title>S2&#45;&#45;H1</title>
<path fill="none" stroke="#94a3b8" stroke-width="2" stroke-dasharray="5,2" d="M59.15,-207.63C97.68,-214.51 164.6,-226.46 203.31,-233.37"/>
</g>
<!-- S2&#45;&#45;H2 -->
<g id="edge3" class="edge">
<title>S2&#45;&#45;H2</title>
<path fill="none" stroke="#94a3b8" stroke-width="2" stroke-dasharray="5,2" d="M59.15,-197.04C97.68,-190.16 164.6,-178.21 203.31,-171.3"/>
</g>
<!-- S2&#45;&#45;H3 -->
<g id="edge4" class="edge">
<title>S2&#45;&#45;H3</title>
<path fill="none" stroke="#94a3b8" stroke-width="2" stroke-dasharray="5,2" d="M56.16,-188.06C95.22,-167.14 167.6,-128.36 206.66,-107.44"/>
</g>
<!-- S3&#45;&#45;H1 -->
<g id="edge5" class="edge">
<title>S3&#45;&#45;H1</title>
<path fill="none" stroke="#94a3b8" stroke-width="2" stroke-dasharray="5,2" d="M56.16,-143.83C95.22,-164.75 167.6,-203.53 206.66,-224.45"/>
</g>
<!-- S3&#45;&#45;H2 -->
<g id="edge6" class="edge">
<title>S3&#45;&#45;H2</title>
<path fill="none" stroke="#94a3b8" stroke-width="2" stroke-dasharray="5,2" d="M59.15,-134.84C97.68,-141.72 164.6,-153.67 203.31,-160.59"/>
</g>
<!-- S3&#45;&#45;H3 -->
<g id="edge7" class="edge">
<title>S3&#45;&#45;H3</title>
<path fill="none" stroke="#94a3b8" stroke-width="2" stroke-dasharray="5,2" d="M59.15,-124.26C97.68,-117.38 164.6,-105.43 203.31,-98.52"/>
</g>
<!-- S4&#45;&#45;H1 -->
<g id="edge8" class="edge">
<title>S4&#45;&#45;H1</title>
<path fill="none" stroke="#94a3b8" stroke-width="2" stroke-dasharray="5,2" d="M52.11,-76.94C91.28,-111.91 171.38,-183.43 210.62,-218.47"/>
</g>
<!-- S4&#45;&#45;H2 -->
<g id="edge9" class="edge">
<title>S4&#45;&#45;H2</title>
<path fill="none" stroke="#94a3b8" stroke-width="2" stroke-dasharray="5,2" d="M56.16,-71.04C95.22,-91.97 167.6,-130.74 206.66,-151.67"/>
</g>
<!-- S4&#45;&#45;H3 -->
<g id="edge10" class="edge">
<title>S4&#45;&#45;H3</title>
<path fill="none" stroke="#94a3b8" stroke-width="2" stroke-dasharray="5,2" d="M59.15,-62.06C97.68,-68.94 164.6,-80.89 203.31,-87.8"/>
</g>
<!-- S1 -->
<g id="node1" class="node">
<title>S1</title>
<ellipse fill="#dbeafe" stroke="#2563eb" stroke-width="2" cx="29.52" cy="-275.12" rx="29.52" ry="29.52"/>
<text xml:space="preserve" text-anchor="middle" x="29.52" y="-267.97" font-family="Helvetica,sans-Serif" font-size="17.00">S1</text>
</g>
<!-- S2 -->
<g id="node2" class="node">
<title>S2</title>
<ellipse fill="#dbeafe" stroke="#2563eb" stroke-width="2" cx="29.52" cy="-202.34" rx="29.52" ry="29.52"/>
<text xml:space="preserve" text-anchor="middle" x="29.52" y="-195.19" font-family="Helvetica,sans-Serif" font-size="17.00">S2</text>
</g>
<!-- S3 -->
<g id="node3" class="node">
<title>S3</title>
<ellipse fill="#dbeafe" stroke="#2563eb" stroke-width="2" cx="29.52" cy="-129.55" rx="29.52" ry="29.52"/>
<text xml:space="preserve" text-anchor="middle" x="29.52" y="-122.4" font-family="Helvetica,sans-Serif" font-size="17.00">S3</text>
</g>
<!-- S4 -->
<g id="node4" class="node">
<title>S4</title>
<ellipse fill="#dbeafe" stroke="#2563eb" stroke-width="2" cx="29.52" cy="-56.77" rx="29.52" ry="29.52"/>
<text xml:space="preserve" text-anchor="middle" x="29.52" y="-49.62" font-family="Helvetica,sans-Serif" font-size="17.00">S4</text>
</g>
<!-- H1 -->
<g id="node5" class="node">
<title>H1</title>
<ellipse fill="#ffedd5" stroke="#ea580c" stroke-width="2" cx="233.31" cy="-238.73" rx="29.52" ry="29.52"/>
<text xml:space="preserve" text-anchor="middle" x="233.31" y="-231.58" font-family="Helvetica,sans-Serif" font-size="17.00">H1</text>
</g>
<!-- H2 -->
<g id="node6" class="node">
<title>H2</title>
<ellipse fill="#ffedd5" stroke="#ea580c" stroke-width="2" cx="233.31" cy="-165.94" rx="29.52" ry="29.52"/>
<text xml:space="preserve" text-anchor="middle" x="233.31" y="-158.79" font-family="Helvetica,sans-Serif" font-size="17.00">H2</text>
</g>
<!-- H3 -->
<g id="node7" class="node">
<title>H3</title>
<ellipse fill="#ffedd5" stroke="#ea580c" stroke-width="2" cx="233.31" cy="-93.16" rx="29.52" ry="29.52"/>
<text xml:space="preserve" text-anchor="middle" x="233.31" y="-86.01" font-family="Helvetica,sans-Serif" font-size="17.00">H3</text>
</g>
<!-- note -->
<g id="node8" class="node">
<title>note</title>
<polygon fill="lightgrey" stroke="none" stroke-width="2" points="nan,nan nan,nan nan,nan nan,nan nan,nan"/>
<text xml:space="preserve" text-anchor="middle" x="131.42" y="7.15" font-family="Helvetica,sans-Serif" font-size="17.00">Dashed edges mean the remaining acceptable pairs may be chosen however you like.</text>
</g>
</g>
</svg>
