<?xml version="1.0" encoding="UTF-8" standalone="no"?>
<!DOCTYPE svg PUBLIC "-//W3C//DTD SVG 1.1//EN"
 "http://www.w3.org/Graphics/SVG/1.1/DTD/svg11.dtd">
<!-- Generated by graphviz version 14.1.3 (20260303.0454)
 -->
<!-- Title: G Pages: 1 -->
<svg width="589pt" height="418pt"
 viewBox="0.00 0.00 589.00 418.00" xmlns="http://www.w3.org/2000/svg" xmlns:xlink="http://www.w3.org/1999/xlink">
<g id="graph0" class="graph" transform="scale(1 1) rotate(0) translate(25.2 392.6)">
<title>G</title>
<polygon fill="white" stroke="none" points="-25.2,25.2 -25.2,-392.6 564.12,-392.6 564.12,25.2 -25.2,25.2"/>
<text xml:space="preserve" text-anchor="middle" x="269.46" y="-344.4" font-family="Helvetica,sans-Serif" font-size="20.00">Question 4: the Rural Hospitals invariant</text>
<!-- a -->
<g id="node1" class="node">
<title>a</title>
<path fill="#dbeafe" stroke="#2563eb" stroke-width="1.8" d="M471.42,-338.4C471.42,-338.4 67.5,-338.4 67.5,-338.4 61.5,-338.4 55.5,-332.4 55.5,-326.4 55.5,-326.4 55.5,-314.4 55.5,-314.4 55.5,-308.4 61.5,-302.4 67.5,-302.4 67.5,-302.4 471.42,-302.4 471.42,-302.4 477.42,-302.4 483.42,-308.4 483.42,-314.4 483.42,-314.4 483.42,-326.4 483.42,-326.4 483.42,-332.4 477.42,-338.4 471.42,-338.4"/>
<text xml:space="preserve" text-anchor="middle" x="269.46" y="-313.25" font-family="Helvetica,sans-Serif" font-size="17.00">Suppose S1 is matched to H3 in one stable matching</text>
</g>
<!-- b -->
<g id="node2" class="node">
<title>b</title>
<path fill="#fef3c7" stroke="#d97706" stroke-width="1.8" d="M525.04,-266.4C525.04,-266.4 13.88,-266.4 13.88,-266.4 7.87,-266.4 1.88,-260.4 1.88,-254.4 1.88,-254.4 1.88,-228 1.88,-228 1.88,-222 7.88,-216 13.88,-216 13.88,-216 525.04,-216 525.04,-216 531.04,-216 537.04,-222 537.04,-228 537.04,-228 537.04,-254.4 537.04,-254.4 537.04,-260.4 531.04,-266.4 525.04,-266.4"/>
<text xml:space="preserve" text-anchor="middle" x="269.46" y="-243.05" font-family="Helvetica,sans-Serif" font-size="17.00">Rural Hospitals Theorem:</text>
<text xml:space="preserve" text-anchor="middle" x="269.46" y="-225.05" font-family="Helvetica,sans-Serif" font-size="17.00">the set of unmatched students is the same in every stable matching</text>
</g>
<!-- a&#45;&gt;b -->
<g id="edge1" class="edge">
<title>a&#45;&gt;b</title>
<path fill="none" stroke="#475569" stroke-width="1.8" d="M269.46,-301.88C269.46,-294.77 269.46,-286.27 269.46,-277.96"/>
<polygon fill="#475569" stroke="#475569" stroke-width="1.8" points="272.26,-277.98 269.46,-269.98 266.66,-277.98 272.26,-277.98"/>
</g>
<!-- c -->
<g id="node3" class="node">
<title>c</title>
<path fill="#dcfce7" stroke="#16a34a" stroke-width="1.8" d="M483.42,-180C483.42,-180 55.5,-180 55.5,-180 49.5,-180 43.5,-174 43.5,-168 43.5,-168 43.5,-156 43.5,-156 43.5,-150 49.5,-144 55.5,-144 55.5,-144 483.42,-144 483.42,-144 489.42,-144 495.42,-150 495.42,-156 495.42,-156 495.42,-168 495.42,-168 495.42,-174 489.42,-180 483.42,-180"/>
<text xml:space="preserve" text-anchor="middle" x="269.46" y="-154.85" font-family="Helvetica,sans-Serif" font-size="17.00">Therefore S1 must be matched in every stable matching</text>
</g>
<!-- b&#45;&gt;c -->
<g id="edge2" class="edge">
<title>b&#45;&gt;c</title>
<path fill="none" stroke="#475569" stroke-width="1.8" d="M269.46,-215.35C269.46,-207.68 269.46,-199.18 269.46,-191.29"/>
<polygon fill="#475569" stroke="#475569" stroke-width="1.8" points="272.26,-191.44 269.46,-183.44 266.66,-191.44 272.26,-191.44"/>
</g>
<!-- d -->
<g id="node4" class="node">
<title>d</title>
<path fill="#fee2e2" stroke="#dc2626" stroke-width="1.8" d="M526.92,-108C526.92,-108 12,-108 12,-108 6,-108 0,-102 0,-96 0,-96 0,-84 0,-84 0,-78 6,-72 12,-72 12,-72 526.92,-72 526.92,-72 532.92,-72 538.92,-78 538.92,-84 538.92,-84 538.92,-96 538.92,-96 538.92,-102 532.92,-108 526.92,-108"/>
<text xml:space="preserve" text-anchor="middle" x="269.46" y="-82.85" font-family="Helvetica,sans-Serif" font-size="17.00">So S1 cannot be unmatched in the hospital&#45;optimal stable matching</text>
</g>
<!-- c&#45;&gt;d -->
<g id="edge3" class="edge">
<title>c&#45;&gt;d</title>
<path fill="none" stroke="#475569" stroke-width="1.8" d="M269.46,-143.34C269.46,-135.98 269.46,-127.27 269.46,-119.08"/>
<polygon fill="#475569" stroke="#475569" stroke-width="1.8" points="272.26,-119.14 269.46,-111.14 266.66,-119.14 272.26,-119.14"/>
</g>
<!-- e -->
<g id="node5" class="node">
<title>e</title>
<path fill="#ede9fe" stroke="#7c3aed" stroke-width="1.8" d="M314.29,-36C314.29,-36 224.62,-36 224.62,-36 218.62,-36 212.62,-30 212.62,-24 212.62,-24 212.62,-12 212.62,-12 212.62,-6 218.62,0 224.62,0 224.62,0 314.29,0 314.29,0 320.29,0 326.29,-6 326.29,-12 326.29,-12 326.29,-24 326.29,-24 326.29,-30 320.29,-36 314.29,-36"/>
<text xml:space="preserve" text-anchor="middle" x="269.46" y="-10.85" font-family="Helvetica,sans-Serif" font-size="17.00">Answer: No</text>
</g>
<!-- d&#45;&gt;e -->
<g id="edge4" class="edge">
<title>d&#45;&gt;e</title>
<path fill="none" stroke="#475569" stroke-width="1.8" d="M269.46,-71.34C269.46,-63.98 269.46,-55.27 269.46,-47.08"/>
<polygon fill="#475569" stroke="#475569" stroke-width="1.8" points="272.26,-47.14 269.46,-39.14 266.66,-47.14 272.26,-47.14"/>
</g>
</g>
</svg>
