<?xml version="1.0" encoding="UTF-8" standalone="no"?>
<!DOCTYPE svg PUBLIC "-//W3C//DTD SVG 1.1//EN"
 "http://www.w3.org/Graphics/SVG/1.1/DTD/svg11.dtd">
<!-- Generated by graphviz version 14.1.3 (20260303.0454)
 -->
<!-- Title: G Pages: 1 -->
<svg width="511pt" height="447pt"
 viewBox="0.00 0.00 511.00 447.00" xmlns="http://www.w3.org/2000/svg" xmlns:xlink="http://www.w3.org/1999/xlink">
<g id="graph0" class="graph" transform="scale(1 1) rotate(0) translate(25.2 421.4)">
<title>G</title>
<polygon fill="white" stroke="none" points="-25.2,25.2 -25.2,-421.4 486.12,-421.4 486.12,25.2 -25.2,25.2"/>
<text xml:space="preserve" text-anchor="middle" x="230.46" y="-373.2" font-family="Helvetica,sans-Serif" font-size="20.00">How edge deletion works in a subdivision proof</text>
<!-- goal -->
<g id="node1" class="node">
<title>goal</title>
<path fill="#dbeafe" stroke="#2563eb" stroke-width="1.8" d="M429.42,-367.2C429.42,-367.2 31.5,-367.2 31.5,-367.2 25.5,-367.2 19.5,-361.2 19.5,-355.2 19.5,-355.2 19.5,-328.8 19.5,-328.8 19.5,-322.8 25.5,-316.8 31.5,-316.8 31.5,-316.8 429.42,-316.8 429.42,-316.8 435.42,-316.8 441.42,-322.8 441.42,-328.8 441.42,-328.8 441.42,-355.2 441.42,-355.2 441.42,-361.2 435.42,-367.2 429.42,-367.2"/>
<text xml:space="preserve" text-anchor="middle" x="230.46" y="-343.85" font-family="Helvetica,sans-Serif" font-size="17.00">Goal:</text>
<text xml:space="preserve" text-anchor="middle" x="230.46" y="-325.85" font-family="Helvetica,sans-Serif" font-size="17.00">find a subdivision of K3,3 inside the original graph G</text>
</g>
<!-- pick -->
<g id="node2" class="node">
<title>pick</title>
<path fill="#f8fafc" stroke="#475569" stroke-width="1.8" d="M385.92,-280.8C385.92,-280.8 75,-280.8 75,-280.8 69,-280.8 63,-274.8 63,-268.8 63,-268.8 63,-242.4 63,-242.4 63,-236.4 69,-230.4 75,-230.4 75,-230.4 385.92,-230.4 385.92,-230.4 391.92,-230.4 397.92,-236.4 397.92,-242.4 397.92,-242.4 397.92,-268.8 397.92,-268.8 397.92,-274.8 391.92,-280.8 385.92,-280.8"/>
<text xml:space="preserve" text-anchor="middle" x="230.46" y="-257.45" font-family="Helvetica,sans-Serif" font-size="17.00">Pick the 6 branch vertices</text>
<text xml:space="preserve" text-anchor="middle" x="230.46" y="-239.45" font-family="Helvetica,sans-Serif" font-size="17.00">and the 9 left&#45;right paths you want to use</text>
</g>
<!-- goal&#45;&gt;pick -->
<g id="edge1" class="edge">
<title>goal&#45;&gt;pick</title>
<path fill="none" stroke="#475569" stroke-width="1.8" d="M230.46,-316.13C230.46,-308.65 230.46,-300.28 230.46,-292.23"/>
<polygon fill="#475569" stroke="#475569" stroke-width="1.8" points="233.26,-292.3 230.46,-284.3 227.66,-292.3 233.26,-292.3"/>
</g>
<!-- keep -->
<g id="node3" class="node">
<title>keep</title>
<path fill="#dcfce7" stroke="#16a34a" stroke-width="1.8" d="M438.8,-194.4C438.8,-194.4 22.13,-194.4 22.13,-194.4 16.12,-194.4 10.12,-188.4 10.12,-182.4 10.12,-182.4 10.12,-170.4 10.12,-170.4 10.12,-164.4 16.12,-158.4 22.12,-158.4 22.12,-158.4 438.8,-158.4 438.8,-158.4 444.8,-158.4 450.8,-164.4 450.8,-170.4 450.8,-170.4 450.8,-182.4 450.8,-182.4 450.8,-188.4 444.8,-194.4 438.8,-194.4"/>
<text xml:space="preserve" text-anchor="middle" x="230.46" y="-169.25" font-family="Helvetica,sans-Serif" font-size="17.00">Keep every edge that appears on one of those 9 paths</text>
</g>
<!-- pick&#45;&gt;keep -->
<g id="edge2" class="edge">
<title>pick&#45;&gt;keep</title>
<path fill="none" stroke="#475569" stroke-width="1.8" d="M230.46,-229.75C230.46,-222.08 230.46,-213.58 230.46,-205.69"/>
<polygon fill="#475569" stroke="#475569" stroke-width="1.8" points="233.26,-205.84 230.46,-197.84 227.66,-205.84 233.26,-205.84"/>
</g>
<!-- delete -->
<g id="node4" class="node">
<title>delete</title>
<path fill="#fee2e2" stroke="#dc2626" stroke-width="1.8" d="M448.92,-122.4C448.92,-122.4 12,-122.4 12,-122.4 6,-122.4 0,-116.4 0,-110.4 0,-110.4 0,-98.4 0,-98.4 0,-92.4 6,-86.4 12,-86.4 12,-86.4 448.92,-86.4 448.92,-86.4 454.92,-86.4 460.92,-92.4 460.92,-98.4 460.92,-98.4 460.92,-110.4 460.92,-110.4 460.92,-116.4 454.92,-122.4 448.92,-122.4"/>
<text xml:space="preserve" text-anchor="middle" x="230.46" y="-97.25" font-family="Helvetica,sans-Serif" font-size="17.00">Delete every edge that is not used by those chosen paths</text>
</g>
<!-- keep&#45;&gt;delete -->
<g id="edge3" class="edge">
<title>keep&#45;&gt;delete</title>
<path fill="none" stroke="#475569" stroke-width="1.8" d="M230.46,-157.74C230.46,-150.38 230.46,-141.67 230.46,-133.48"/>
<polygon fill="#475569" stroke="#475569" stroke-width="1.8" points="233.26,-133.54 230.46,-125.54 227.66,-133.54 233.26,-133.54"/>
</g>
<!-- result -->
<g id="node5" class="node">
<title>result</title>
<path fill="#fef3c7" stroke="#d97706" stroke-width="1.8" d="M391.92,-50.4C391.92,-50.4 69,-50.4 69,-50.4 63,-50.4 57,-44.4 57,-38.4 57,-38.4 57,-12 57,-12 57,-6 63,0 69,0 69,0 391.92,0 391.92,0 397.92,0 403.92,-6 403.92,-12 403.92,-12 403.92,-38.4 403.92,-38.4 403.92,-44.4 397.92,-50.4 391.92,-50.4"/>
<text xml:space="preserve" text-anchor="middle" x="230.46" y="-27.05" font-family="Helvetica,sans-Serif" font-size="17.00">The result is a subgraph H of G</text>
<text xml:space="preserve" text-anchor="middle" x="230.46" y="-9.05" font-family="Helvetica,sans-Serif" font-size="17.00">If H is a subdivision of K3,3, that is enough</text>
</g>
<!-- delete&#45;&gt;result -->
<g id="edge4" class="edge">
<title>delete&#45;&gt;result</title>
<path fill="none" stroke="#475569" stroke-width="1.8" d="M230.46,-85.88C230.46,-78.77 230.46,-70.27 230.46,-61.96"/>
<polygon fill="#475569" stroke="#475569" stroke-width="1.8" points="233.26,-61.98 230.46,-53.98 227.66,-61.98 233.26,-61.98"/>
</g>
</g>
</svg>
