<?xml version="1.0" encoding="UTF-8" standalone="no"?>
<!DOCTYPE svg PUBLIC "-//W3C//DTD SVG 1.1//EN"
 "http://www.w3.org/Graphics/SVG/1.1/DTD/svg11.dtd">
<!-- Generated by graphviz version 14.1.3 (20260303.0454)
 -->
<!-- Title: G Pages: 1 -->
<svg width="676pt" height="254pt"
 viewBox="0.00 0.00 676.00 254.00" xmlns="http://www.w3.org/2000/svg" xmlns:xlink="http://www.w3.org/1999/xlink">
<g id="graph0" class="graph" transform="scale(1 1) rotate(0) translate(25.2 228.7)">
<title>G</title>
<polygon fill="white" stroke="none" points="-25.2,25.2 -25.2,-228.7 651.2,-228.7 651.2,25.2 -25.2,25.2"/>
<text xml:space="preserve" text-anchor="middle" x="313" y="-180.5" font-family="Helvetica,sans-Serif" font-size="20.00">Why these three specific edges may be deleted</text>
<!-- table -->
<g id="node1" class="node">
<title>table</title>
<polygon fill="none" stroke="black" points="1,-139 1,-173.5 188.88,-173.5 188.88,-139 1,-139"/>
<text xml:space="preserve" text-anchor="start" x="58.19" y="-152.2" font-family="Times,serif" font-weight="bold" font-size="14.00">Deleted edge</text>
<polygon fill="none" stroke="black" points="188.88,-139 188.88,-173.5 625,-173.5 625,-139 188.88,-139"/>
<text xml:space="preserve" text-anchor="start" x="336.06" y="-152.2" font-family="Times,serif" font-weight="bold" font-size="14.00">Why it is safe to remove</text>
<polygon fill="none" stroke="black" points="1,-104.5 1,-139 188.88,-139 188.88,-104.5 1,-104.5"/>
<text xml:space="preserve" text-anchor="start" x="73.19" y="-117.25" font-family="Times,serif" font-size="14.00">CM&#45;RL</text>
<polygon fill="none" stroke="black" points="188.88,-104.5 188.88,-139 625,-139 625,-104.5 188.88,-104.5"/>
<text xml:space="preserve" text-anchor="start" x="246.06" y="-117.25" font-family="Times,serif" font-size="14.00">No chosen K3,3 path needs to go directly from CM to RL.</text>
<polygon fill="none" stroke="black" points="1,-70 1,-104.5 188.88,-104.5 188.88,-70 1,-70"/>
<text xml:space="preserve" text-anchor="start" x="77.69" y="-82.75" font-family="Times,serif" font-size="14.00">IL&#45;BL</text>
<polygon fill="none" stroke="black" points="188.88,-70 188.88,-104.5 625,-104.5 625,-70 188.88,-70"/>
<text xml:space="preserve" text-anchor="start" x="254.69" y="-82.75" font-family="Times,serif" font-size="14.00">The UL&#45;to&#45;RM path uses UL&#45;IL&#45;RM, not UL&#45;IL&#45;BL&#45;...</text>
<polygon fill="none" stroke="black" points="1,-35.5 1,-70 188.88,-70 188.88,-35.5 1,-35.5"/>
<text xml:space="preserve" text-anchor="start" x="76.94" y="-48.25" font-family="Times,serif" font-size="14.00">IR&#45;BR</text>
<polygon fill="none" stroke="black" points="188.88,-35.5 188.88,-70 625,-70 625,-35.5 188.88,-35.5"/>
<text xml:space="preserve" text-anchor="start" x="253.19" y="-48.25" font-family="Times,serif" font-size="14.00">The UR&#45;to&#45;LM path uses UR&#45;IR&#45;LM, not UR&#45;IR&#45;BR&#45;...</text>
<polygon fill="none" stroke="black" points="1,-1 1,-35.5 625,-35.5 625,-1 1,-1"/>
<text xml:space="preserve" text-anchor="start" x="10" y="-13.75" font-family="Times,serif" font-size="14.00">Rule: once the 9 subdivision paths are chosen, every edge not on those paths is optional and may be discarded.</text>
<polygon fill="none" stroke="black" points="0,0 0,-174.5 626,-174.5 626,0 0,0"/>
</g>
</g>
</svg>
