<?xml version="1.0" encoding="UTF-8" standalone="no"?>
<!DOCTYPE svg PUBLIC "-//W3C//DTD SVG 1.1//EN"
 "http://www.w3.org/Graphics/SVG/1.1/DTD/svg11.dtd">
<!-- Generated by graphviz version 14.1.3 (20260303.0454)
 -->
<!-- Title: G Pages: 1 -->
<svg width="433pt" height="447pt"
 viewBox="0.00 0.00 433.00 447.00" xmlns="http://www.w3.org/2000/svg" xmlns:xlink="http://www.w3.org/1999/xlink">
<g id="graph0" class="graph" transform="scale(1 1) rotate(0) translate(25.2 421.4)">
<title>G</title>
<polygon fill="white" stroke="none" points="-25.2,25.2 -25.2,-421.4 408.12,-421.4 408.12,25.2 -25.2,25.2"/>
<text xml:space="preserve" text-anchor="middle" x="191.46" y="-373.2" font-family="Helvetica,sans-Serif" font-size="20.00">Why deleting edges is logically allowed</text>
<!-- g -->
<g id="node1" class="node">
<title>g</title>
<path fill="#dbeafe" stroke="#2563eb" stroke-width="1.8" d="M306.05,-367.2C306.05,-367.2 76.88,-367.2 76.88,-367.2 70.88,-367.2 64.88,-361.2 64.88,-355.2 64.88,-355.2 64.88,-343.2 64.88,-343.2 64.88,-337.2 70.88,-331.2 76.88,-331.2 76.88,-331.2 306.05,-331.2 306.05,-331.2 312.05,-331.2 318.05,-337.2 318.05,-343.2 318.05,-343.2 318.05,-355.2 318.05,-355.2 318.05,-361.2 312.05,-367.2 306.05,-367.2"/>
<text xml:space="preserve" text-anchor="middle" x="191.46" y="-342.05" font-family="Helvetica,sans-Serif" font-size="17.00">Start with the original graph G</text>
</g>
<!-- h -->
<g id="node2" class="node">
<title>h</title>
<path fill="#fee2e2" stroke="#dc2626" stroke-width="1.8" d="M351.42,-295.2C351.42,-295.2 31.5,-295.2 31.5,-295.2 25.5,-295.2 19.5,-289.2 19.5,-283.2 19.5,-283.2 19.5,-271.2 19.5,-271.2 19.5,-265.2 25.5,-259.2 31.5,-259.2 31.5,-259.2 351.42,-259.2 351.42,-259.2 357.42,-259.2 363.42,-265.2 363.42,-271.2 363.42,-271.2 363.42,-283.2 363.42,-283.2 363.42,-289.2 357.42,-295.2 351.42,-295.2"/>
<text xml:space="preserve" text-anchor="middle" x="191.46" y="-270.05" font-family="Helvetica,sans-Serif" font-size="17.00">Delete unused edges to get a subgraph H</text>
</g>
<!-- g&#45;&gt;h -->
<g id="edge1" class="edge">
<title>g&#45;&gt;h</title>
<path fill="none" stroke="#475569" stroke-width="1.8" d="M191.46,-330.54C191.46,-323.18 191.46,-314.47 191.46,-306.28"/>
<polygon fill="#475569" stroke="#475569" stroke-width="1.8" points="194.26,-306.34 191.46,-298.34 188.66,-306.34 194.26,-306.34"/>
</g>
<!-- ifplanar -->
<g id="node3" class="node">
<title>ifplanar</title>
<path fill="#f8fafc" stroke="#475569" stroke-width="1.8" d="M370.92,-223.2C370.92,-223.2 12,-223.2 12,-223.2 6,-223.2 0,-217.2 0,-211.2 0,-211.2 0,-184.8 0,-184.8 0,-178.8 6,-172.8 12,-172.8 12,-172.8 370.92,-172.8 370.92,-172.8 376.92,-172.8 382.92,-178.8 382.92,-184.8 382.92,-184.8 382.92,-211.2 382.92,-211.2 382.92,-217.2 376.92,-223.2 370.92,-223.2"/>
<text xml:space="preserve" text-anchor="middle" x="191.46" y="-199.85" font-family="Helvetica,sans-Serif" font-size="17.00">If G were planar,</text>
<text xml:space="preserve" text-anchor="middle" x="191.46" y="-181.85" font-family="Helvetica,sans-Serif" font-size="17.00">then every subgraph of G would also be planar</text>
</g>
<!-- h&#45;&gt;ifplanar -->
<g id="edge2" class="edge">
<title>h&#45;&gt;ifplanar</title>
<path fill="none" stroke="#475569" stroke-width="1.8" d="M191.46,-258.68C191.46,-251.57 191.46,-243.07 191.46,-234.76"/>
<polygon fill="#475569" stroke="#475569" stroke-width="1.8" points="194.26,-234.78 191.46,-226.78 188.66,-234.78 194.26,-234.78"/>
</g>
<!-- k33 -->
<g id="node4" class="node">
<title>k33</title>
<path fill="#fef3c7" stroke="#d97706" stroke-width="1.8" d="M304.92,-136.8C304.92,-136.8 78,-136.8 78,-136.8 72,-136.8 66,-130.8 66,-124.8 66,-124.8 66,-98.4 66,-98.4 66,-92.4 72,-86.4 78,-86.4 78,-86.4 304.92,-86.4 304.92,-86.4 310.92,-86.4 316.92,-92.4 316.92,-98.4 316.92,-98.4 316.92,-124.8 316.92,-124.8 316.92,-130.8 310.92,-136.8 304.92,-136.8"/>
<text xml:space="preserve" text-anchor="middle" x="191.46" y="-113.45" font-family="Helvetica,sans-Serif" font-size="17.00">But H is a subdivision of K3,3,</text>
<text xml:space="preserve" text-anchor="middle" x="191.46" y="-95.45" font-family="Helvetica,sans-Serif" font-size="17.00">so H is nonplanar</text>
</g>
<!-- ifplanar&#45;&gt;k33 -->
<g id="edge3" class="edge">
<title>ifplanar&#45;&gt;k33</title>
<path fill="none" stroke="#475569" stroke-width="1.8" d="M191.46,-172.13C191.46,-164.65 191.46,-156.28 191.46,-148.23"/>
<polygon fill="#475569" stroke="#475569" stroke-width="1.8" points="194.26,-148.3 191.46,-140.3 188.66,-148.3 194.26,-148.3"/>
</g>
<!-- contra -->
<g id="node5" class="node">
<title>contra</title>
<path fill="#dcfce7" stroke="#16a34a" stroke-width="1.8" d="M288.8,-50.4C288.8,-50.4 94.12,-50.4 94.12,-50.4 88.13,-50.4 82.13,-44.4 82.13,-38.4 82.13,-38.4 82.13,-12 82.13,-12 82.13,-6 88.13,0 94.13,0 94.13,0 288.8,0 288.8,0 294.8,0 300.8,-6 300.8,-12 300.8,-12 300.8,-38.4 300.8,-38.4 300.8,-44.4 294.8,-50.4 288.8,-50.4"/>
<text xml:space="preserve" text-anchor="middle" x="191.46" y="-27.05" font-family="Helvetica,sans-Serif" font-size="17.00">Contradiction</text>
<text xml:space="preserve" text-anchor="middle" x="191.46" y="-9.05" font-family="Helvetica,sans-Serif" font-size="17.00">Therefore G is nonplanar</text>
</g>
<!-- k33&#45;&gt;contra -->
<g id="edge4" class="edge">
<title>k33&#45;&gt;contra</title>
<path fill="none" stroke="#475569" stroke-width="1.8" d="M191.46,-85.73C191.46,-78.25 191.46,-69.88 191.46,-61.83"/>
<polygon fill="#475569" stroke="#475569" stroke-width="1.8" points="194.26,-61.9 191.46,-53.9 188.66,-61.9 194.26,-61.9"/>
</g>
</g>
</svg>
